<svg width="56" height="61" viewBox="0 0 56 61" fill="none" xmlns="http://www.w3.org/2000/svg">
<path d="M9.57692 35.0721C3.555 35.5314 -0.410532 41.805 0.0338994 47.4255C0.0952293 53.13 3.4923 59.4398 9.52663 60.6738C15.3118 61.8196 21.4307 59.0739 25.185 54.7584C28.3773 50.9548 29.3812 44.4909 25.4624 40.8263C23.4699 38.9914 20.6293 38.1135 17.9311 38.4472C17.3372 37.8555 16.5993 37.9417 15.8747 37.5284C13.9532 36.4327 13.3641 35.0693 9.57692 35.0721Z" fill="#B01C2D"/>
<path d="M22.5128 46.4885C22.5128 47.2946 19.9626 51.463 18.7716 49.4077C17.8729 47.8568 14.4218 46.656 14.2452 45.8499C14.0725 45.062 16.0602 46.624 18.3098 45.8043C20.9385 44.8464 22.5128 45.6824 22.5128 46.4885Z" fill="url(#paint0_radial_262_171)"/>
<path d="M22.5128 46.4885C22.5128 47.2946 19.9626 51.463 18.7716 49.4077C17.8729 47.8568 14.4218 46.656 14.2452 45.8499C14.0725 45.062 16.0602 46.624 18.3098 45.8043C20.9385 44.8464 22.5128 45.6824 22.5128 46.4885Z" fill="#DF394C"/>
<path d="M47.2009 27.5494C44.1348 27.738 41.8093 30.7351 38.6114 30.1377C36.8781 29.7892 34.7826 30.3132 33.3228 31.079C31.678 31.9419 30.3592 33.3355 29.581 35.0281C28.0694 38.4793 28.8499 42.5122 30.7527 45.6556C33.0533 49.776 37.344 53.1742 42.2612 53.2633C45.9854 53.1821 49.8797 51.9302 52.451 49.1712C54.7063 46.5686 55.745 43.1065 55.9782 39.7371C56.1969 35.671 54.781 31.1775 51.2222 28.8234C50.0328 28.0514 48.6319 27.5628 47.2009 27.5494Z" fill="#B01C2D"/>
<path d="M52.0724 37.1467C51.9017 38.75 50.6138 40.0658 49.3384 40.0658C47.0751 39.9874 47.7341 38.716 48.1456 37.1371C48.475 35.8733 48.2145 34.2815 49.3721 33.9204C50.061 33.9556 51.2768 33.4999 51.6373 34.0119C52.1198 34.6969 52.1725 36.2076 52.0724 37.1467Z" fill="url(#paint1_radial_262_171)"/>
<path d="M52.0724 37.1467C51.9017 38.75 50.6138 40.0658 49.3384 40.0658C47.0751 39.9874 47.7341 38.716 48.1456 37.1371C48.475 35.8733 48.2145 34.2815 49.3721 33.9204C50.061 33.9556 51.2768 33.4999 51.6373 34.0119C52.1198 34.6969 52.1725 36.2076 52.0724 37.1467Z" fill="#DF394C"/>
<path d="M34.2964 0.745706C33.7518 0.898651 33.5277 1.5739 33.2196 2.04306C32.8707 2.57441 32.576 3.14622 32.3588 3.74203C32.0477 4.59572 31.1665 5.68393 31.7384 6.39402C31.8341 6.51287 32.0567 6.44994 32.1997 6.39402C32.9447 6.10258 33.4101 5.35154 33.9517 4.76833C34.4917 4.18679 35.0551 3.60328 35.436 2.90964C35.7067 2.41664 36.2324 1.81898 35.9816 1.31581C35.7194 0.789661 34.8675 0.585291 34.2964 0.745706Z" fill="url(#paint2_linear_262_171)"/>
<path d="M21.358 39.852C20.5863 40.4438 20.2302 40.8748 17.9863 41.3344C15.4637 41.8511 12.0096 36.4221 13.506 36.8871C14.2451 37.1168 15.6051 37.8996 17.9863 38.8714C19.894 39.6499 22.7478 38.7862 21.358 39.852Z" fill="url(#paint3_radial_262_171)"/>
<path d="M21.358 39.852C20.5863 40.4438 20.2302 40.8748 17.9863 41.3344C15.4637 41.8511 12.0096 36.4221 13.506 36.8871C14.2451 37.1168 15.6051 37.8996 17.9863 38.8714C19.894 39.6499 22.7478 38.7862 21.358 39.852Z" fill="#911725"/>
<path d="M37.2946 32.0059C38.0662 32.5977 38.4223 33.0286 40.6662 33.4882C43.1889 34.005 46.6429 28.5759 45.1465 29.041C44.4075 29.2707 43.0474 30.0535 40.6662 31.0252C38.7585 31.8038 35.9047 30.94 37.2946 32.0059Z" fill="#8A1623"/>
<path d="M35.288 0.0654463C35.1785 0.0670965 35.0601 0.0809381 34.9369 0.101739C34.3382 0.534525 32.9593 0.655046 32.8916 1.533C32.7812 3.05007 31.3638 4.34665 31.1892 5.5324C30.87 6.20789 30.4724 7.14816 30.1074 8.30618C24.1883 15.8085 20.8071 23.5103 18.9055 29.3353C17.1749 34.6373 16.5751 38.8615 16.0032 39.0119C15.9021 39.0385 15.813 39.1675 15.8431 39.2368C15.8206 39.3702 16.7242 39.9458 17.17 39.966C17.8415 39.9964 18.4949 39.7442 18.6156 39.5399C18.6918 39.411 18.3544 39.3218 18.3122 39.2697C18.3122 39.2697 18.2951 39.2044 18.2776 39.0768C18.2331 38.751 18.186 38.0187 18.4137 36.9259C18.7307 35.4048 19.0257 33.0027 19.8619 30.3913C20.698 27.7798 21.8443 24.7309 23.4018 21.4599C24.9593 18.189 26.9281 14.6959 29.4092 11.1962C29.3575 11.5285 29.2857 11.8209 29.2704 12.1396C29.1998 12.7071 29.1508 13.2917 29.1316 13.8974C29.0879 15.2709 29.2416 16.7236 29.6411 18.2166C30.0405 19.7097 30.6858 21.2429 31.6255 22.7775C32.5651 24.3121 33.799 25.848 35.3757 27.3462C36.8649 28.7612 38.0117 29.7278 40.4892 31.5078C40.6119 31.596 40.5984 31.9714 40.7269 32.0484C42.2658 32.634 43.933 30.68 42.2532 30.6518C40.0162 29.3121 37.7077 27.9628 36.1985 26.5433C34.6892 25.1237 33.5175 23.6797 32.6305 22.2418C31.7434 20.804 31.1412 19.3722 30.7708 17.9773C30.4005 16.5824 30.2623 15.2243 30.3033 13.9339C30.364 12.023 30.7286 10.2925 31.1606 8.87016C31.8382 8.01834 32.5558 7.16861 33.3161 6.32615C33.4059 6.2483 33.4954 6.16057 33.5856 6.06813C34.3913 6.00445 35.1479 5.88679 35.5859 3.93942C35.6642 3.6257 36.4318 3.54623 36.3493 3.0323C36.2488 2.40597 36.6035 1.67135 36.5412 1.08911C36.4772 0.490339 36.054 0.0537301 35.288 0.0654463Z" fill="#404D2A"/>
<path d="M35.3637 0.262145C35.2839 0.263245 35.1974 0.271966 35.1075 0.285168C34.6705 0.559772 33.6639 0.636247 33.6144 1.19329C33.6119 1.22251 33.6096 1.25129 33.6054 1.28026C33.6053 1.28109 33.6056 1.28192 33.6054 1.28274C33.9439 2.12504 34.5498 2.68717 35.2416 2.68717C35.3915 2.68717 35.5366 2.65774 35.6767 2.60787C35.8506 2.48636 36.1859 2.40087 36.1386 2.14486C36.0652 1.74745 36.3241 1.28133 36.2787 0.911854C36.2319 0.531938 35.9229 0.254714 35.3637 0.262145Z" fill="#596C36"/>
<path d="M16.0214 38.9412C15.9589 38.9924 15.8213 39.1866 15.8431 39.2368C15.8206 39.3702 16.7242 39.9458 17.17 39.966C17.8415 39.9964 18.4944 39.7433 18.6151 39.539C18.6596 39.4638 18.5645 39.4063 18.4682 39.3576C18.1278 39.4094 17.7456 39.4544 17.3332 39.4544C16.7971 39.4544 16.4079 39.1496 16.0214 38.9412Z" fill="#2A3415"/>
<path d="M42.9068 30.896C42.8287 30.7465 42.5339 30.4866 42.4137 30.764C42.0421 31.6219 41.0234 31.8153 40.6165 31.8192C40.6421 31.9205 40.6695 32.014 40.7269 32.0484C41.2078 32.2314 41.7027 32.1693 42.1025 31.9926L42.1107 31.9885C42.2811 31.883 42.4519 31.7725 42.6169 31.6579L42.6251 31.6499C42.9013 31.3952 43.0312 31.134 42.9068 30.896Z" fill="#273114"/>
<defs>
<radialGradient id="paint0_radial_262_171" cx="0" cy="0" r="1" gradientUnits="userSpaceOnUse" gradientTransform="translate(27.988 30.506) rotate(27.3914) scale(57.0667 52.4126)">
<stop stop-color="#F9F9F9"/>
<stop offset="1" stop-color="#F9F9F9" stop-opacity="0"/>
</radialGradient>
<radialGradient id="paint1_radial_262_171" cx="0" cy="0" r="1" gradientUnits="userSpaceOnUse" gradientTransform="translate(26.571 27.0873) scale(48.0182 46.331)">
<stop stop-color="#F9F9F9"/>
<stop offset="1" stop-color="#F9F9F9" stop-opacity="0"/>
</radialGradient>
<linearGradient id="paint2_linear_262_171" x1="301.458" y1="249.532" x2="-394.881" y2="269.933" gradientUnits="userSpaceOnUse">
<stop stop-color="#1A1F11"/>
<stop offset="1" stop-color="#AFD56A"/>
</linearGradient>
<radialGradient id="paint3_radial_262_171" cx="0" cy="0" r="1" gradientUnits="userSpaceOnUse" gradientTransform="translate(27.5668 32.6104) rotate(34.957) scale(58.5013 17.8884)">
<stop stop-color="#F9F9F9"/>
<stop offset="1" stop-color="#F9F9F9" stop-opacity="0"/>
</radialGradient>
</defs>
</svg>
