<svg width="48" height="56" viewBox="0 0 48 56" fill="none" xmlns="http://www.w3.org/2000/svg">
<path d="M0.328781 29.1024C-1.84065 41.5391 6.9677 53.3106 19.6181 55.5015C32.2685 57.6924 45.5087 50.8643 47.6781 38.4277C49.8476 25.9909 40.7974 13.0528 28.147 10.8618C13.7411 8.36686 2.49821 16.6657 0.328781 29.1024Z" fill="#E89205"/>
<path d="M1.43931 25.41C0.00855575 33.6121 3.28342 41.6774 14.5492 45.4099C29.6075 50.399 41.2343 34.5298 42.6651 26.3279C44.0957 18.1258 36.8346 12.3665 27.1367 10.6986C13.2124 8.30395 2.87006 17.208 1.43931 25.41Z" fill="#FAA519"/>
<path d="M39.8078 5.33982C40.0108 5.35898 40.1784 5.49922 40.3354 5.63473C40.7338 5.97844 41.1323 6.32226 41.5308 6.66597C39.0654 7.93487 37.0443 10.241 35.3918 12.7095C34.5051 14.0339 33.852 15.6427 33.2623 17.1471C32.7231 17.1219 32.0407 17.2205 31.7297 16.7464C31.5889 16.5318 32.0907 15.6116 32.1876 15.3959C34.0659 11.2089 38.4735 6.42265 38.8856 5.93808C39.1427 5.63586 39.4569 5.30667 39.8078 5.33982Z" fill="#8CA101"/>
<path d="M36.538 17.4786C36.538 17.4786 34.2067 17.8275 31.8037 16.3141C30.1965 15.3019 29.1926 12.7733 29.1926 12.7733C29.1926 12.7733 28.5153 15.2792 31.9415 17.0601C34.6788 18.4828 36.538 17.4786 36.538 17.4786Z" fill="#E89205"/>
<path d="M35.3757 6.90943C36.556 7.66503 36.8777 7.78771 36.7232 8.65415C36.4098 10.1835 36.0045 11.0406 36.5018 9.44727C36.14 8.5282 34.6556 8.14803 34.6556 8.14803C32.3455 9.71123 30.0561 10.0349 27.9425 9.66131C22.0285 8.62251 17.4498 2.1581 17.4498 2.1581C17.4498 2.1581 20.6507 1.1223 27.5707 0.17447C34.4876 -0.772969 35.3757 6.85761 35.3757 6.85761" fill="#8CA101"/>
<path d="M33.4335 6.29847C33.1056 5.86201 32.6969 5.51456 32.2634 5.21626C31.8319 4.9149 31.3646 4.67344 30.886 4.46422C30.4029 4.26535 29.9105 4.08836 29.4015 3.96056C28.8957 3.82504 28.3806 3.71603 27.8581 3.64229C26.8152 3.48262 25.753 3.40657 24.6819 3.38006C23.6096 3.3529 22.5305 3.37543 21.4328 3.3731C22.4819 3.05257 23.5661 2.85751 24.6641 2.76844C25.7618 2.68092 26.8768 2.69513 27.9795 2.86826C28.5289 2.96156 29.0771 3.08017 29.6119 3.25101C30.1432 3.42989 30.6699 3.63646 31.1584 3.91939C31.6504 4.19273 32.1093 4.52942 32.51 4.92253C32.9003 5.32294 33.2563 5.77441 33.4335 6.29847Z" fill="#616E01"/>
</svg>
