<svg width="62" height="56" viewBox="0 0 62 56" fill="none" xmlns="http://www.w3.org/2000/svg">
<path fill-rule="evenodd" clip-rule="evenodd" d="M0.92429 28.9614C-0.557294 14.7756 9.13999 2.1473 22.5791 0.761351C36.0187 -0.624598 48.1198 9.75589 49.6016 23.9415C51.0831 38.1282 41.3852 50.7563 27.9454 52.1423C14.5064 53.5282 2.40621 43.1484 0.92429 28.9614Z" fill="#6FAE10"/>
<path fill-rule="evenodd" clip-rule="evenodd" d="M7.85251 8.07767C8.51184 7.38292 9.20846 6.72673 9.94218 6.11521C9.25033 7.44026 8.6499 8.88779 7.67035 11.2923C6.64194 13.8167 6.32036 16.4076 5.9838 19.1905C5.64741 21.9737 5.98789 25.0518 6.3396 28.4212C6.62798 31.1811 7.04149 33.8088 8.23554 36.2236C9.50774 38.7976 11.7833 40.6819 13.0385 43.2699C14.5434 46.3732 17.3685 47.6426 19.3977 49.2255C20.8827 50.3842 22.3231 51.3767 23.6171 52.187C22.9149 52.1283 22.184 52.1675 21.5334 51.917C16.0774 49.8174 6.53946 43.7576 4.16242 34.0106C3.53135 31.423 2.89704 28.9999 2.77123 26.5582C2.61359 23.5121 3.43755 20.2597 4.10488 17.3765C4.83639 14.2161 6.07624 11.1321 7.85251 8.07767Z" fill="#385702"/>
<path fill-rule="evenodd" clip-rule="evenodd" d="M8.21458 7.8665C8.87392 7.17158 9.0319 7.28712 9.54517 6.48427C7.27333 10.0384 3.64607 18.5894 4.76692 29.3227C5.92998 40.4547 16.7427 49.3966 23.6171 52.187C22.9647 51.9222 22.2206 52.0374 21.5334 51.917C16.8542 49.6436 7.08403 43.5771 4.70682 33.8302C2.4258 24.4756 3.39769 16.0611 8.09354 7.98677L8.21458 7.8665Z" fill="#215A2D"/>
<path fill-rule="evenodd" clip-rule="evenodd" d="M13.8614 3.45324C14.416 3.15297 14.9846 2.87571 15.5645 2.61892C15.2456 3.81237 15.2117 5.55525 14.7468 8.10707C14.3658 10.2003 12.9928 12.9752 13.333 15.5347C13.5904 17.4719 13.1037 19.5213 13.1648 21.5738C13.2393 24.088 14.2026 26.3178 14.0878 29.0367C13.9828 31.53 15.9426 34.0292 16.8033 36.2344C18.0991 39.5535 19.5874 42.4606 21.158 45.009C23.257 48.4151 24.9308 50.8739 26.5894 52.2423C26.2365 52.2571 25.8865 52.2653 25.537 52.2656C24.1445 51.2576 18.3075 47.8542 15.0088 41.11C13.4767 37.9773 11.7647 35.539 10.6801 32.1735C9.75576 29.306 8.69704 26.3458 8.6378 22.9521C8.57498 19.3386 10.2117 14.5928 10.9364 10.2707C11.371 7.67942 12.6445 6.18775 13.8614 3.45324Z" fill="#385702"/>
<path fill-rule="evenodd" clip-rule="evenodd" d="M14.3841 3.23884C14.9384 2.93858 14.651 3.07475 15.231 2.81813C14.2149 6.62243 9.48481 17.4226 12.6298 29.2026C15.5388 40.0977 22.8658 49.1699 26.5894 52.2423C26.2365 52.2571 25.8865 52.2653 25.537 52.2656C22.5641 50.1142 3.99923 34.4608 11.8438 10.6312C12.814 7.6824 13.4195 5.40598 14.3841 3.23884Z" fill="#215A2D"/>
<path fill-rule="evenodd" clip-rule="evenodd" d="M20.7631 1.02074C21.1565 0.949017 21.554 0.886426 21.9547 0.834662C21.8812 2.10271 22.3321 4.20202 22.2467 6.96512C22.1709 9.4288 21.5518 12.4573 21.5846 15.3192C21.6188 18.2472 22.1616 21.4185 22.4282 23.9739C22.6321 25.9252 22.9127 29.1237 23.2751 31.3663C23.7512 34.3106 24.6171 35.9345 25.392 38.8788C26.0358 41.3242 26.8229 44.0058 27.6902 46.0911C28.6665 48.4382 29.0838 50.3135 30.3652 51.7646C29.7069 51.9021 29.0373 52.0123 28.3582 52.0938C27.6786 51.1529 25.4509 48.8371 23.3355 44.5886C21.617 41.137 20.5952 36.0499 18.8067 31.2728C17.4686 27.7001 16.9347 25.0811 17.2972 21.7499C17.6502 18.5044 16.6804 15.5868 17.4082 11.3525C17.7769 9.20923 18.7457 7.02635 19.4909 4.84043C19.973 3.42725 20.3923 2.16259 20.7631 1.02074Z" fill="#385702"/>
<path fill-rule="evenodd" clip-rule="evenodd" d="M21.2186 0.894813C21.612 0.823088 21.5541 0.886257 21.9547 0.834662C21.7486 4.38995 20.0356 16.361 20.8554 24.2142C21.7991 33.2504 25.5299 46.29 30.3652 51.7646C29.7069 51.9021 29.0373 52.0123 28.3582 52.0938C26.2612 49.19 14.3232 28.0004 20.1297 4.74123C20.4915 3.29303 20.6663 2.21699 21.0371 1.07514L21.2186 0.894813Z" fill="#215A2D"/>
<path fill-rule="evenodd" clip-rule="evenodd" d="M23.6976 0.674157C24.5436 0.627976 24.6808 0.730826 25.5127 0.774639C26.1564 1.66274 27.0149 2.87632 27.9429 4.40876C28.871 5.9412 30.4726 7.50596 30.7935 9.95459C31.0897 12.2151 32.5155 14.444 33.1392 17.1222C33.7201 19.6166 33.3757 22.5313 34.2488 25.3464C35.1758 28.3358 34.1021 31.3466 34.6065 33.8363C35.2509 37.0157 34.8796 39.7725 35.0158 42.0669C35.2439 45.904 35.4832 48.5008 35.7949 49.9377C35.0244 50.3594 35.1787 50.205 34.3588 50.5401C33.5279 48.9584 31.7431 46.4408 31.269 42.9435C30.7748 39.2996 29.2629 34.912 28.4291 31.0585C27.8053 28.1754 28.3889 25.0353 27.8113 22.0205C27.2064 18.8651 27.1998 15.5126 27.1746 12.6702C27.146 9.42917 25.4526 6.78465 25.1842 4.30997C24.9984 2.59297 24.1013 1.43048 23.6976 0.674157Z" fill="#385702"/>
<path fill-rule="evenodd" clip-rule="evenodd" d="M24.6356 0.834709C25.4819 0.788528 24.3481 0.790727 25.1802 0.834709C27.6744 4.27497 32.0909 12.5533 32.6196 25.356C33.1831 39.0098 35.1496 46.9601 35.7949 49.9377C35.0244 50.3594 35.5263 50.083 34.7062 50.4181C32.4792 46.1776 28.4765 31.7867 28.8092 20.578C29.1197 10.1175 25.7471 3.42814 24.3636 0.834709H24.6356Z" fill="#215A2D"/>
<path fill-rule="evenodd" clip-rule="evenodd" d="M28.6602 0.930186C29.5985 1.08057 30.5219 1.28796 31.4265 1.54763C32.2345 2.37433 33.5439 3.49063 34.7063 5.52244C35.741 7.3313 36.6118 9.909 37.6356 12.9861C38.3717 15.198 39.1787 16.6479 39.7871 19.6465C39.9628 20.5128 40.0219 22.5427 40.1815 23.4809C40.5981 25.9275 40.8848 28.3675 41.0663 30.7647C41.3094 33.9747 42.0342 37.3177 41.6621 40.5618C41.4061 42.7912 41.1039 44.4737 40.9263 46.4955C40.2147 47.1123 39.4679 47.6877 38.6889 48.2174L38.7757 47.9816C38.7757 47.9816 38.2873 45.8146 38.154 41.7036C38.0818 39.481 37.5159 37.1482 37.3071 34.3112C37.1511 32.1902 37.5732 29.4818 37.3071 27.2192C37.035 24.9039 36.3554 22.1444 36.279 19.8268C36.158 16.1604 34.706 13.3985 33.6177 10.511C32.9112 8.63605 32.2871 7.44582 31.6037 5.20273C31.3174 4.26184 30.5447 3.6554 30.0883 2.99245C29.549 2.20956 29.0755 1.52615 28.6602 0.930186Z" fill="#385702"/>
<path fill-rule="evenodd" clip-rule="evenodd" d="M28.6602 0.930186C29.5985 1.08057 30.5219 1.28796 31.4265 1.54763C33.62 3.79174 37.08 9.51045 39.4242 23.2825C40.8193 31.4789 40.6773 40.473 40.0894 47.1728C39.3775 47.7896 39.4679 47.6877 38.6889 48.2174L38.7757 47.9816C38.7757 47.9816 40.0064 16.101 32.3475 4.89146C31.1356 3.1183 30.17 1.73625 28.6602 0.930186Z" fill="#215A2D"/>
<path d="M46.4979 39.5786C46.9075 37.4184 46.9482 35.3084 47.1736 33.2893C47.6498 29.0223 46.7603 25.68 45.8672 22.2993C44.9975 19.006 43.9398 15.8471 42.6902 13.0953C40.4521 8.16711 37.7579 5.72609 35.7125 3.24482C35.3613 3.06517 35.0058 2.89431 34.6465 2.73192C35.5664 4.06373 36.4716 5.51329 37.333 7.03693C38.4811 9.06841 38.9402 11.3526 40.4761 13.4218C42.608 16.2942 43.1134 19.7666 43.4161 23.1321C43.584 25.0007 43.3555 26.9186 43.862 29.0827C44.5359 31.9607 43.7103 35.0849 43.5108 37.8548C43.3312 40.3501 43.1378 42.6199 43.0736 44.3933C44.3895 42.9385 45.5397 41.3221 46.4979 39.5786Z" fill="#385702"/>
<path d="M45.5935 41.2829C49.404 23.1322 41.1283 9.8134 35.7125 3.24482C35.3613 3.06517 35.0058 2.89431 34.6465 2.73192C38.6358 8.5073 43.0686 15.829 44.0813 22.4712C45.8957 34.3712 44.8674 39.2394 43.0736 44.3933C44.3897 42.9385 44.6353 43.0265 45.5935 41.2829Z" fill="#215A2D"/>
<path d="M49.6016 23.9415C48.9775 17.9677 45.6616 11.7759 41.9644 7.74644C44.0561 11.5132 47.1659 16.1604 47.4183 20.0216C47.696 24.2653 48.5113 29.868 48.5378 34.7888C49.5948 31.407 49.9972 27.7299 49.6016 23.9415Z" fill="#385702"/>
<path d="M49.6016 23.9415C48.9775 17.9677 46.4699 12.6687 42.773 8.63928C44.8644 12.4062 47.4595 16.2587 48.3153 19.8866C49.292 24.0273 48.5113 29.868 48.5378 34.7888C49.5948 31.407 49.9972 27.7299 49.6016 23.9415Z" fill="#215A2D"/>
<path fill-rule="evenodd" clip-rule="evenodd" d="M60.9672 33.119L13.1233 32.7502C8.57568 41.4132 16.8702 60.6827 44.871 54.5339C57.9514 51.6602 62.4037 39.2611 60.9672 33.119Z" fill="#6FAE10"/>
<path fill-rule="evenodd" clip-rule="evenodd" d="M60.9672 33.119L59.0178 33.1039C59.0852 35.8256 57.2868 48.2243 44.5605 52.0604C35.8501 54.6855 28.6672 54.1696 22.3897 51.2808C20.2523 50.2973 13.1229 44.9264 11.9086 37.3002C11.3744 40.2444 13.7424 45.0943 14.2238 45.848C18.6606 52.7939 28.0024 58.2384 44.871 54.5339C57.9514 51.6602 62.4037 39.2611 60.9672 33.119Z" fill="#6FAE10"/>
<path fill-rule="evenodd" clip-rule="evenodd" d="M26.1375 52.6837C26.0137 53.3768 25.7158 53.9536 25.5277 54.4139C24.0335 53.9438 22.6738 53.3614 21.4403 52.6895C21.8781 52.2109 22.1808 51.7198 22.3906 51.28C23.6049 51.8381 24.8524 52.3082 26.1375 52.6837ZM35.3876 53.7268C35.3952 54.3759 35.2606 55.0689 35.0694 55.7202C33.6663 55.7336 32.3327 55.6715 31.0678 55.5392C31.3318 54.9143 31.4292 54.2598 31.4432 53.6659C32.7193 53.7731 34.0337 53.7955 35.3876 53.7268ZM47.6217 50.8825C48.2865 51.6021 48.7486 52.4481 49.0598 53.1797C47.7748 53.7415 46.3808 54.2017 44.871 54.5339C43.6671 54.7968 42.5023 55.0133 41.3703 55.1865C41.2145 54.4856 40.9583 53.7363 40.6823 53.0435C41.9407 52.7864 43.2321 52.4605 44.5605 52.0604C45.6614 51.728 46.6798 51.3304 47.6217 50.8825ZM55.0111 44.7331C56.2327 44.8205 57.2629 45.1233 58.0911 45.4855C57.1687 46.9234 56.0329 48.3041 54.6674 49.5503C53.9568 48.8857 53.0438 48.3525 52.1181 47.9313C53.2532 46.9312 54.2095 45.8472 55.0111 44.7331ZM57.8134 39.329C58.7873 39.3992 59.7247 39.6936 60.5515 40.0645C60.3597 40.7358 60.1266 41.4148 59.8503 42.0967C58.9094 41.6569 57.8967 41.4385 56.9922 41.3383C57.311 40.6556 57.5821 39.9815 57.8134 39.329Z" fill="#385702"/>
<path fill-rule="evenodd" clip-rule="evenodd" d="M57.6801 33.0936L14.4239 32.7612C10.6455 46.1226 26.4474 55.1764 40.8293 51.7991C50.9361 49.4271 58.3698 41.4911 57.6801 33.0936Z" fill="#D22A27"/>
<path fill-rule="evenodd" clip-rule="evenodd" d="M53.9505 33.0647L16.0756 32.7734C15.5614 37.8362 17.8411 43.0124 23.1185 45.749C35.9569 52.407 53.105 45.8002 53.9505 33.0647Z" fill="#E84C30"/>
<path fill-rule="evenodd" clip-rule="evenodd" d="M50.9311 33.1517L21.2817 32.9239C20.8791 36.887 22.6635 40.9389 26.7949 43.0811C36.8449 48.2935 50.2691 43.1215 50.9311 33.1517Z" fill="#E9624A"/>
<path fill-rule="evenodd" clip-rule="evenodd" d="M21.8789 34.8273C21.8789 34.8273 21.4788 35.5013 20.7208 35.8432C20.1037 36.1202 19.6299 35.4896 20.0213 35.0383C20.3932 34.6089 21.1188 34.7328 21.8789 34.8273Z" fill="#704B34"/>
<path fill-rule="evenodd" clip-rule="evenodd" d="M20.6134 35.8826C20.0515 36.0469 19.6535 35.4632 20.0213 35.0383C20.376 34.6301 21.0496 34.7226 21.7702 34.8135C21.4716 34.8011 20.5416 34.8148 20.2702 35.2401C20.0538 35.5805 20.1907 35.9059 20.6134 35.8826Z" fill="#4C3424"/>
<path fill-rule="evenodd" clip-rule="evenodd" d="M26.3669 43.2547C26.3669 43.2547 26.3174 44.0354 25.798 44.6814C25.3744 45.2067 24.6642 44.8582 24.8072 44.2792C24.9432 43.729 25.6465 43.5127 26.3669 43.2547Z" fill="#704B34"/>
<path fill-rule="evenodd" clip-rule="evenodd" d="M25.7202 44.7651C25.2943 45.1647 24.6732 44.8239 24.8072 44.2792C24.9371 43.7554 25.58 43.5348 26.2635 43.291C25.9919 43.4148 25.1693 43.8459 25.121 44.3469C25.0839 44.7477 25.3542 44.9764 25.7202 44.7651Z" fill="#4C3424"/>
<path fill-rule="evenodd" clip-rule="evenodd" d="M21.6342 39.9488C21.6342 39.9488 21.585 40.7298 21.0653 41.3756C20.6417 41.9011 19.9315 41.5524 20.0745 40.9735C20.2105 40.4233 20.9141 40.2067 21.6342 39.9488Z" fill="#704B34"/>
<path fill-rule="evenodd" clip-rule="evenodd" d="M20.9875 41.4593C20.5619 41.8587 19.9408 41.5179 20.0745 40.9735C20.2044 40.4498 20.8475 40.229 21.531 39.9852C21.2592 40.1089 20.4369 40.5403 20.3886 41.0413C20.3511 41.4421 20.6218 41.6704 20.9875 41.4593Z" fill="#4C3424"/>
<path fill-rule="evenodd" clip-rule="evenodd" d="M32.3722 45.1062C32.3722 45.1062 32.7309 45.8025 32.6163 46.6216C32.5221 47.2882 31.7321 47.3488 31.5576 46.7787C31.3916 46.2366 31.8854 45.6935 32.3722 45.1062Z" fill="#704B34"/>
<path fill-rule="evenodd" clip-rule="evenodd" d="M32.5926 46.7333C32.4317 47.2927 31.7225 47.3145 31.5576 46.7787C31.4003 46.2624 31.8395 45.7462 32.3024 45.1898C32.1321 45.4341 31.6463 46.2222 31.8625 46.6776C32.0363 47.0411 32.3865 47.1002 32.5926 46.7333Z" fill="#4C3424"/>
<path fill-rule="evenodd" clip-rule="evenodd" d="M38.8283 44.6211C38.8283 44.6211 39.5378 44.9602 39.9449 45.6817C40.2753 46.2692 39.6829 46.7919 39.197 46.4424C38.7352 46.1104 38.798 45.3813 38.8283 44.6211Z" fill="#704B34"/>
<path fill-rule="evenodd" clip-rule="evenodd" d="M39.9937 45.7845C40.2061 46.327 39.6546 46.7706 39.197 46.4424C38.7578 46.1259 38.7937 45.4506 38.8236 44.73C38.8369 45.0267 38.9293 45.9461 39.3786 46.179C39.7383 46.3642 40.0532 46.2008 39.9937 45.7845Z" fill="#4C3424"/>
<path fill-rule="evenodd" clip-rule="evenodd" d="M43.3688 40.9089C43.3688 40.9089 44.1858 41.3653 44.6136 42.2527C44.9612 42.9759 44.2176 43.5519 43.6671 43.1002C43.1441 42.6706 43.2743 41.8095 43.3688 40.9089Z" fill="#704B34"/>
<path fill-rule="evenodd" clip-rule="evenodd" d="M44.6639 42.379C44.8743 43.0391 44.1856 43.5243 43.6671 43.1002C43.1696 42.6909 43.264 41.8918 43.3549 41.0376C43.3476 41.3911 43.3871 42.4903 43.9028 42.8007C44.3158 43.0481 44.7025 42.8779 44.6639 42.379Z" fill="#4C3424"/>
<path fill-rule="evenodd" clip-rule="evenodd" d="M48.5538 39.0539C48.5538 39.0539 49.4862 38.9581 50.351 39.4377C51.0544 39.8285 50.7819 40.7256 50.0699 40.6723C49.3934 40.6213 48.9996 39.8434 48.5538 39.0539Z" fill="#704B34"/>
<path fill-rule="evenodd" clip-rule="evenodd" d="M50.4653 39.5116C51.0206 39.9303 50.7398 40.7213 50.0699 40.6723C49.4257 40.6232 49.0389 39.9164 48.617 39.1669C48.8164 39.4595 49.4871 40.3346 50.0886 40.2926C50.5693 40.2576 50.7862 39.8971 50.4653 39.5116Z" fill="#4C3424"/>
<path fill-rule="evenodd" clip-rule="evenodd" d="M50.8673 35.0576C50.8673 35.0576 51.5968 34.7639 52.4078 34.9498C53.0678 35.1019 53.0584 35.889 52.4713 36.0115C51.9134 36.1273 51.4126 35.5909 50.8673 35.0576Z" fill="#704B34"/>
<path fill-rule="evenodd" clip-rule="evenodd" d="M52.5171 34.9833C53.0641 35.192 53.0237 35.8958 52.4713 36.0115C51.94 36.1216 51.4615 35.6411 50.9448 35.134C51.1745 35.3243 51.9216 35.8743 52.3971 35.7007C52.7767 35.5608 52.8673 35.2194 52.5171 34.9833Z" fill="#4C3424"/>
<path fill-rule="evenodd" clip-rule="evenodd" d="M35.8956 39.3486C35.8956 39.3486 36.3188 40.0082 36.2817 40.8344C36.2507 41.507 35.47 41.6408 35.2426 41.0893C35.0266 40.5647 35.4666 39.9784 35.8956 39.3486Z" fill="#704B34"/>
<path fill-rule="evenodd" clip-rule="evenodd" d="M36.2687 40.9477C36.1609 41.5197 35.4573 41.6076 35.2426 41.0893C35.0371 40.5899 35.4262 40.0349 35.8341 39.4381C35.6878 39.6971 35.2786 40.527 35.5365 40.9602C35.7437 41.306 36.0981 41.3324 36.2687 40.9477Z" fill="#4C3424"/>
<path fill-rule="evenodd" clip-rule="evenodd" d="M27.14 38.8126C27.14 38.8126 27.1672 39.7218 26.6346 40.5252C26.2006 41.1785 25.3406 40.8501 25.4439 40.1645C25.5423 39.5127 26.3337 39.1878 27.14 38.8126Z" fill="#704B34"/>
<path fill-rule="evenodd" clip-rule="evenodd" d="M26.5538 40.6304C26.1033 41.1382 25.3474 40.8095 25.4439 40.1645C25.5382 39.5442 26.2593 39.2202 27.025 38.8657C26.723 39.0376 25.817 39.6244 25.815 40.21C25.8146 40.6779 26.1525 40.9139 26.5538 40.6304Z" fill="#4C3424"/>
<path d="M42.7052 33.6316C45.4925 33.5672 46.3968 33.4386 47.1739 34.2753C46.9814 35.6292 44.3633 38.5639 41.5394 38.5549C36.8672 38.54 33.8628 35.4696 34.0589 34.1144C36.0991 33.4386 39.9202 33.6962 42.7052 33.6316Z" fill="#F47D66"/>
</svg>
