<svg width="56" height="70" viewBox="0 0 56 70" fill="none" xmlns="http://www.w3.org/2000/svg">
<path fill-rule="evenodd" clip-rule="evenodd" d="M40.3239 19.1753C27.7476 22.5658 18.7275 19.8201 11.3989 24.3058C8.15849 26.2891 5.11068 30.7457 4.29575 34.2128C3.34052 38.2774 4.47069 44.2535 6.67716 47.8962C9.2176 52.0902 15.7807 55.4213 19.8692 58.4467C24.7306 62.0441 30.4171 68.7429 36.5683 69.8662C39.2139 70.3494 43.274 69.4882 45.2874 67.8586C49.4029 64.5276 50.394 57.1023 51.7997 52.2652C53.715 45.6748 57.1354 36.4901 55.6259 29.8124C54.805 26.1814 51.9682 21.1618 48.4151 19.3294C46.3046 18.241 42.6513 18.5478 40.3239 19.1753Z" fill="#D2230E"/>
<path d="M33.2073 30.1136C33.2746 30.3703 33.314 30.6305 33.3231 30.8792C33.3323 31.128 33.311 31.3604 33.2606 31.5631C33.2102 31.7659 33.1316 31.935 33.0294 32.0608C32.9271 32.1867 32.8032 32.2668 32.6647 32.2965C32.5262 32.3263 32.3758 32.3051 32.2222 32.2342C32.0686 32.1633 31.9147 32.0442 31.7693 31.8835C31.624 31.7228 31.4901 31.5236 31.3752 31.2976C31.2603 31.0716 31.1668 30.8231 31.0999 30.5662C31.0326 30.3094 30.9933 30.0493 30.9841 29.8006C30.975 29.5519 30.9962 29.3195 31.0466 29.1168C31.097 28.914 31.1756 28.7449 31.2778 28.619C31.3801 28.4932 31.504 28.4131 31.6425 28.3833C31.781 28.3536 31.9314 28.3747 32.0851 28.4456C32.2387 28.5165 32.3926 28.6357 32.5379 28.7964C32.6833 28.9571 32.8172 29.1561 32.9321 29.3822C33.0469 29.6082 33.1405 29.8567 33.2073 30.1136Z" fill="#D2230E"/>
<path d="M33.2073 30.1136C33.2661 30.3382 33.3004 30.5658 33.3083 30.7833C33.3162 31.0008 33.2976 31.204 33.2535 31.3813C33.2094 31.5586 33.1406 31.7065 33.0512 31.8165C32.9617 31.9266 32.8533 31.9966 32.7322 32.0226C32.611 32.0486 32.4795 32.0301 32.3451 31.9682C32.2107 31.9062 32.0761 31.802 31.949 31.6615C31.8219 31.521 31.7047 31.3469 31.6042 31.1493C31.5037 30.9516 31.4218 30.7343 31.3633 30.5096C31.3045 30.285 31.2701 30.0575 31.2622 29.8399C31.2543 29.6224 31.2729 29.4192 31.317 29.2419C31.3611 29.0646 31.4299 28.9167 31.5193 28.8067C31.6088 28.6966 31.7172 28.6266 31.8383 28.6006C31.9595 28.5746 32.091 28.5931 32.2254 28.655C32.3598 28.717 32.4944 28.8212 32.6215 28.9617C32.7486 29.1023 32.8658 29.2763 32.9663 29.474C33.0668 29.6716 33.1488 29.8889 33.2073 30.1136Z" fill="#E2973A"/>
<path d="M32.4885 28.883C32.5466 28.9425 32.5941 29.0082 32.6285 29.0761C32.6628 29.1441 32.6833 29.213 32.6887 29.2791C32.6941 29.3451 32.6844 29.4068 32.6601 29.4609C32.6358 29.5149 32.5973 29.5601 32.547 29.5939C32.4966 29.6276 32.4353 29.6493 32.3665 29.6578C32.2978 29.6662 32.2229 29.6611 32.1463 29.6429C32.0696 29.6246 31.9927 29.5936 31.9198 29.5514C31.8469 29.5093 31.7796 29.457 31.7215 29.3974C31.6635 29.3378 31.6159 29.2722 31.5816 29.2042C31.5472 29.1363 31.5268 29.0673 31.5213 29.0013C31.5159 28.9353 31.5256 28.8735 31.55 28.8195C31.5743 28.7655 31.6127 28.7203 31.6631 28.6865C31.7135 28.6527 31.7748 28.631 31.8435 28.6226C31.9123 28.6142 31.9871 28.6193 32.0638 28.6375C32.1404 28.6558 32.2174 28.6868 32.2903 28.7289C32.3631 28.7711 32.4305 28.8234 32.4885 28.883Z" fill="white"/>
<path d="M17.3065 22.0313C15.2338 22.4576 13.2956 23.1256 11.4635 24.247C10.0627 25.1045 8.69609 26.4213 7.53205 27.9233C8.69466 27.9159 10.0787 27.6968 11.8482 27.1173C16.6218 25.554 19.4226 24.6297 21.1807 23.993L21.1601 24.0484C19.9721 27.1706 21.3616 26.381 23.3792 28.5674C26.1021 27.0766 28.0025 28.5547 28.7865 25.6243C29.2147 24.025 29.4687 22.9466 29.5857 22.1817C30.4065 22.5723 32.1036 23.1208 33.3046 24.8386C35.1679 27.5035 35.4065 26.0918 38.5807 26.0411C39.0489 23.611 41.0907 23.0343 40.1263 21.3182C41.6725 21.0518 43.482 20.7239 45.7142 20.3027C46.9498 20.0695 47.9987 19.8015 48.9023 19.5034C48.7635 19.4208 48.6243 19.3417 48.4831 19.2689C46.3726 18.1806 42.7138 18.4902 40.3866 19.1177C30.9544 21.6606 23.5255 20.7519 17.3065 22.0313Z" fill="#2E3436"/>
<path fill-rule="evenodd" clip-rule="evenodd" d="M23.5208 2.0311L26.2731 0L30.9096 16.428L38.1871 17.1691C38.1871 17.1691 39.8876 18.388 38.9984 18.2909C38.1092 18.1939 20.4612 21.408 20.4612 21.408L27.1321 16.5193C27.1321 16.5193 27.0788 5.73087 23.5208 2.0311Z" fill="#96C622"/>
<path d="M26.649 20.6806C26.3722 17.8074 28.6773 16.9097 26.1211 14.9807C19.7933 10.2043 22.0956 12.849 19.0422 13.5286C19.319 16.4019 15.7578 15.5329 21.201 20.4972C23.7691 22.8395 23.5956 21.3601 26.649 20.6806Z" fill="#55860D"/>
<path d="M55.0191 11.2848C50.5874 10.7984 52.8365 12.8865 46.2774 14.3272C42.3132 15.198 39.3296 14.7399 37.455 15.6674C33.3686 17.6895 32.0399 18.7478 29.268 20.5923C33.6996 21.0787 31.2258 22.1172 46.3895 19.2556C53.5438 17.9055 52.4796 14.6033 55.0191 11.2848Z" fill="#55860D"/>
<path d="M0 24.8602C3.49284 22.3395 3.85168 24.3033 10.2701 22.4126C26.1607 17.7311 22.4261 19.5421 26.96 19.8772C23.4672 22.3979 22.8795 20.4574 12.7374 25.9216C6.45525 29.3064 4.53392 25.1955 0 24.8602Z" fill="#55860D"/>
<path d="M24.0508 27.5169C26.7737 26.0262 28.6778 27.5071 29.4618 24.5767C31.404 17.3216 29.7994 20.3609 27.7817 18.1744C25.0588 19.6651 24.3507 16.3834 21.8328 23.0009C20.6448 26.1231 22.0331 25.3304 24.0508 27.5169Z" fill="#55860D"/>
<path d="M39.254 24.9932C39.7785 22.2705 42.2812 21.8747 40.3151 19.5961C35.4488 13.954 33.5351 17.8926 30.3608 17.9433C30.1541 19.4558 30.2371 19.6956 29.7985 20.6233C29.4889 21.2782 32.249 21.3155 33.9767 23.7868C35.84 26.4517 36.0799 25.0439 39.254 24.9932Z" fill="#55860D"/>
<path d="M45.4626 27.2017C45.5214 27.4263 45.5557 27.6539 45.5636 27.8714C45.5716 28.0889 45.5529 28.2921 45.5088 28.4694C45.4647 28.6467 45.396 28.7946 45.3065 28.9047C45.217 29.0147 45.1086 29.0847 44.9875 29.1107C44.8664 29.1368 44.7348 29.1183 44.6004 29.0563C44.4661 28.9943 44.3315 28.8901 44.2043 28.7496C44.0772 28.6091 43.96 28.435 43.8595 28.2374C43.759 28.0397 43.6771 27.8224 43.6186 27.5977C43.5598 27.3731 43.5255 27.1456 43.5175 26.9281C43.5096 26.7105 43.5282 26.5073 43.5723 26.33C43.6165 26.1527 43.6852 26.0048 43.7747 25.8948C43.8641 25.7847 43.9725 25.7147 44.0937 25.6887C44.2148 25.6627 44.3463 25.6812 44.4807 25.7432C44.6151 25.8051 44.7497 25.9094 44.8768 26.0499C45.004 26.1904 45.1211 26.3644 45.2216 26.5621C45.3221 26.7597 45.404 26.9771 45.4626 27.2017Z" fill="#E2973A"/>
<path d="M44.7438 25.971C44.8018 26.0306 44.8494 26.0962 44.8837 26.1642C44.9181 26.2321 44.9386 26.3011 44.944 26.3671C44.9494 26.4331 44.9397 26.4949 44.9154 26.5489C44.891 26.6029 44.8526 26.6481 44.8022 26.6819C44.7518 26.7157 44.6905 26.7374 44.6218 26.7458C44.553 26.7542 44.4782 26.7491 44.4016 26.7309C44.3249 26.7126 44.2479 26.6816 44.1751 26.6395C44.1022 26.5973 44.0348 26.545 43.9768 26.4854C43.9188 26.4259 43.8712 26.3602 43.8369 26.2923C43.8025 26.2243 43.782 26.1554 43.7766 26.0894C43.7712 26.0233 43.7809 25.9616 43.8052 25.9076C43.8296 25.8535 43.868 25.8083 43.9184 25.7746C43.9687 25.7408 44.03 25.7191 44.0988 25.7106C44.1675 25.7022 44.2424 25.7073 44.319 25.7256C44.3957 25.7438 44.4726 25.7749 44.5455 25.817C44.6184 25.8591 44.6858 25.9114 44.7438 25.971Z" fill="white"/>
<path d="M49.0529 34.6327C49.1116 34.8573 49.146 35.0849 49.1539 35.3024C49.1618 35.5199 49.1432 35.7232 49.0991 35.9004C49.055 36.0777 48.9862 36.2256 48.8968 36.3357C48.8073 36.4457 48.6989 36.5157 48.5778 36.5417C48.4566 36.5678 48.3251 36.5493 48.1907 36.4873C48.0563 36.4253 47.9217 36.3211 47.7946 36.1806C47.6675 36.0401 47.5503 35.866 47.4498 35.6684C47.3493 35.4707 47.2674 35.2534 47.2089 35.0287C47.1501 34.8041 47.1157 34.5766 47.1078 34.3591C47.0999 34.1415 47.1185 33.9383 47.1626 33.761C47.2067 33.5837 47.2755 33.4358 47.3649 33.3258C47.4544 33.2158 47.5628 33.1457 47.6839 33.1197C47.8051 33.0937 47.9366 33.1122 48.071 33.1742C48.2054 33.2361 48.34 33.3404 48.4671 33.4809C48.5942 33.6214 48.7114 33.7954 48.8119 33.9931C48.9124 34.1907 48.9943 34.4081 49.0529 34.6327Z" fill="#E2973A"/>
<path d="M48.3341 33.402C48.3921 33.4616 48.4397 33.5272 48.474 33.5952C48.5084 33.6631 48.5289 33.7321 48.5343 33.7981C48.5397 33.8641 48.53 33.9259 48.5057 33.9799C48.4813 34.0339 48.4429 34.0791 48.3925 34.1129C48.3421 34.1467 48.2808 34.1684 48.2121 34.1768C48.1433 34.1852 48.0685 34.1801 47.9919 34.1619C47.9152 34.1436 47.8382 34.1126 47.7654 34.0705C47.6925 34.0283 47.6251 33.976 47.5671 33.9164C47.5091 33.8569 47.4615 33.7912 47.4272 33.7233C47.3928 33.6553 47.3723 33.5864 47.3669 33.5204C47.3615 33.4543 47.3712 33.3926 47.3955 33.3386C47.4198 33.2845 47.4583 33.2393 47.5087 33.2056C47.559 33.1718 47.6203 33.1501 47.6891 33.1417C47.7578 33.1332 47.8327 33.1383 47.9093 33.1566C47.986 33.1748 48.0629 33.2059 48.1358 33.248C48.2087 33.2901 48.2761 33.3424 48.3341 33.402Z" fill="white"/>
<path d="M54.3015 31.8411C54.305 32.0719 54.2841 32.301 54.24 32.5152C54.1959 32.7294 54.1295 32.9246 54.0445 33.0895C53.9595 33.2544 53.8576 33.3858 53.7447 33.4763C53.6317 33.5668 53.5099 33.6145 53.3862 33.6168C53.2625 33.619 53.1394 33.5758 53.0238 33.4895C52.9083 33.4032 52.8025 33.2755 52.7127 33.1138C52.6229 32.9521 52.5507 32.7595 52.5003 32.547C52.4499 32.3345 52.4222 32.1064 52.4189 31.8755C52.4154 31.6447 52.4363 31.4156 52.4804 31.2014C52.5245 30.9872 52.5909 30.792 52.6759 30.6271C52.7609 30.4622 52.8628 30.3308 52.9757 30.2403C53.0887 30.1498 53.2105 30.1021 53.3342 30.0998C53.4579 30.0976 53.581 30.1408 53.6966 30.2271C53.8121 30.3134 53.9179 30.4411 54.0077 30.6028C54.0975 30.7645 54.1697 30.9571 54.2201 31.1696C54.2705 31.3821 54.2982 31.6102 54.3015 31.8411Z" fill="#E2973A"/>
<path d="M53.8921 30.5009C53.9343 30.5702 53.9649 30.6435 53.9821 30.7166C53.9993 30.7896 54.0027 30.861 53.9922 30.9266C53.9817 30.9922 53.9575 31.0507 53.9209 31.0989C53.8844 31.1471 53.8362 31.1839 53.7791 31.2073C53.7221 31.2307 53.6572 31.2402 53.5884 31.2352C53.5195 31.2303 53.4479 31.211 53.3777 31.1785C53.3075 31.146 53.2401 31.1009 53.1793 31.0457C53.1185 30.9906 53.0655 30.9265 53.0233 30.8571C52.981 30.7878 52.9505 30.7145 52.9333 30.6414C52.9161 30.5684 52.9127 30.497 52.9232 30.4314C52.9337 30.3658 52.9579 30.3073 52.9945 30.2591C53.031 30.2109 53.0792 30.1741 53.1363 30.1507C53.1933 30.1273 53.2581 30.1178 53.327 30.1228C53.3959 30.1277 53.4675 30.147 53.5377 30.1795C53.6078 30.212 53.6753 30.2571 53.7361 30.3123C53.7969 30.3674 53.8499 30.4315 53.8921 30.5009Z" fill="white"/>
<path d="M41.0331 38.7826C41.0349 39.0134 41.0123 39.2424 40.9666 39.4563C40.9209 39.6703 40.853 39.865 40.7668 40.0294C40.6805 40.1938 40.5777 40.3246 40.4641 40.4144C40.3504 40.5042 40.2283 40.5512 40.1046 40.5527C39.9809 40.5542 39.8581 40.5102 39.7432 40.4232C39.6283 40.3362 39.5235 40.2079 39.4349 40.0456C39.3463 39.8833 39.2756 39.6903 39.2267 39.4775C39.1779 39.2647 39.152 39.0363 39.1504 38.8055C39.1486 38.5746 39.1712 38.3456 39.2169 38.1317C39.2626 37.9177 39.3305 37.723 39.4168 37.5586C39.503 37.3942 39.6059 37.2634 39.7195 37.1736C39.8331 37.0838 39.9552 37.0368 40.0789 37.0353C40.2026 37.0338 40.3254 37.0778 40.4403 37.1648C40.5553 37.2519 40.66 37.3802 40.7486 37.5424C40.8372 37.7047 40.908 37.8977 40.9568 38.1105C41.0056 38.3233 41.0315 38.5517 41.0331 38.7826Z" fill="#E2973A"/>
<path d="M40.6337 37.4399C40.6754 37.5095 40.7054 37.583 40.7221 37.6561C40.7387 37.7293 40.7416 37.8007 40.7306 37.8662C40.7196 37.9317 40.695 37.9901 40.658 38.0381C40.6211 38.086 40.5727 38.1226 40.5154 38.1456C40.4582 38.1687 40.3933 38.1778 40.3245 38.1724C40.2556 38.1671 40.1842 38.1474 40.1143 38.1144C40.0443 38.0815 39.9772 38.0359 39.9168 37.9804C39.8564 37.9249 39.8039 37.8605 39.7622 37.7908C39.7205 37.7212 39.6905 37.6477 39.6739 37.5746C39.6573 37.5014 39.6544 37.4301 39.6654 37.3645C39.6763 37.299 39.701 37.2406 39.7379 37.1926C39.7749 37.1447 39.8233 37.1081 39.8806 37.0851C39.9378 37.062 40.0027 37.0529 40.0715 37.0583C40.1403 37.0636 40.2118 37.0834 40.2817 37.1163C40.3516 37.1493 40.4187 37.1948 40.4791 37.2503C40.5395 37.3058 40.5921 37.3702 40.6337 37.4399Z" fill="white"/>
<path d="M27.6086 38.7118C27.6104 38.9427 27.5878 39.1716 27.5421 39.3856C27.4964 39.5995 27.4285 39.7943 27.3422 39.9586C27.256 40.123 27.1531 40.2539 27.0395 40.3437C26.9259 40.4335 26.8038 40.4804 26.6801 40.4819C26.5564 40.4834 26.4336 40.4394 26.3186 40.3524C26.2037 40.2654 26.099 40.1371 26.0104 39.9748C25.9217 39.8126 25.851 39.6195 25.8022 39.4067C25.7534 39.1939 25.7274 38.9656 25.7259 38.7347C25.7241 38.5038 25.7467 38.2749 25.7924 38.0609C25.8381 37.847 25.906 37.6523 25.9922 37.4879C26.0784 37.3235 26.1813 37.1926 26.2949 37.1028C26.4086 37.0131 26.5307 36.9661 26.6544 36.9646C26.7781 36.9631 26.9009 37.0071 27.0158 37.0941C27.1307 37.1811 27.2355 37.3094 27.3241 37.4717C27.4127 37.6339 27.4834 37.827 27.5322 38.0398C27.5811 38.2526 27.607 38.4809 27.6086 38.7118Z" fill="#E2973A"/>
<path d="M27.2092 37.3691C27.2509 37.4387 27.2809 37.5122 27.2975 37.5854C27.3142 37.6585 27.3171 37.7299 27.3061 37.7954C27.2951 37.861 27.2704 37.9194 27.2335 37.9673C27.1966 38.0153 27.1481 38.0518 27.0909 38.0749C27.0337 38.0979 26.9688 38.107 26.8999 38.1017C26.8311 38.0963 26.7597 38.0766 26.6898 38.0437C26.6198 38.0107 26.5527 37.9652 26.4923 37.9096C26.4319 37.8541 26.3794 37.7897 26.3377 37.7201C26.296 37.6505 26.266 37.577 26.2494 37.5038C26.2328 37.4307 26.2299 37.3593 26.2408 37.2938C26.2518 37.2282 26.2765 37.1698 26.3134 37.1219C26.3503 37.0739 26.3988 37.0374 26.456 37.0143C26.5133 36.9913 26.5781 36.9822 26.647 36.9875C26.7158 36.9929 26.7872 37.0126 26.8572 37.0456C26.9271 37.0785 26.9942 37.124 27.0546 37.1796C27.115 37.2351 27.1675 37.2995 27.2092 37.3691Z" fill="white"/>
<path d="M21.4867 31.3129C21.416 31.5351 21.3225 31.7491 21.2116 31.9427C21.1007 32.1363 20.9744 32.3057 20.8401 32.4412C20.7058 32.5768 20.566 32.6757 20.4288 32.7325C20.2915 32.7893 20.1596 32.8027 20.0403 32.7721C19.9211 32.7415 19.817 32.6674 19.7339 32.554C19.6509 32.4407 19.5906 32.2903 19.5563 32.1115C19.5221 31.9326 19.5147 31.7289 19.5346 31.5119C19.5544 31.2949 19.6011 31.0688 19.672 30.8467C19.7426 30.6245 19.8361 30.4105 19.947 30.2169C20.058 30.0233 20.1842 29.8538 20.3185 29.7183C20.4528 29.5828 20.5926 29.4838 20.7299 29.427C20.8671 29.3703 20.9991 29.3568 21.1183 29.3875C21.2375 29.4181 21.3416 29.4922 21.4247 29.6055C21.5077 29.7189 21.5681 29.8693 21.6023 30.0481C21.6365 30.2269 21.6439 30.4307 21.6241 30.6477C21.6042 30.8647 21.5575 31.0907 21.4867 31.3129Z" fill="#E2973A"/>
<path d="M21.5261 29.9221C21.5442 29.9998 21.5499 30.0782 21.5429 30.1528C21.5359 30.2274 21.5163 30.2967 21.4852 30.3569C21.4541 30.417 21.4121 30.4668 21.3617 30.5033C21.3112 30.5398 21.2533 30.5624 21.1912 30.5698C21.129 30.5771 21.064 30.5691 20.9997 30.5461C20.9353 30.5231 20.8731 30.4857 20.8163 30.436C20.7596 30.3862 20.7096 30.3251 20.6691 30.2561C20.6286 30.1871 20.5984 30.1116 20.5803 30.0339C20.5622 29.9562 20.5565 29.8778 20.5635 29.8032C20.5705 29.7286 20.5901 29.6593 20.6212 29.5991C20.6523 29.539 20.6943 29.4892 20.7448 29.4527C20.7952 29.4162 20.8532 29.3936 20.9153 29.3862C20.9774 29.3789 21.0425 29.3869 21.1068 29.4099C21.1711 29.4329 21.2334 29.4703 21.2901 29.5201C21.3468 29.5698 21.3969 29.6309 21.4374 29.6999C21.4778 29.7689 21.508 29.8444 21.5261 29.9221Z" fill="white"/>
<path d="M14.3109 29.4332C14.1903 29.6367 14.0493 29.8277 13.896 29.9953C13.7426 30.1629 13.5799 30.3039 13.4171 30.4101C13.2543 30.5163 13.0946 30.5858 12.9472 30.6144C12.7997 30.6431 12.6675 30.6303 12.5579 30.577C12.4483 30.5237 12.3636 30.4309 12.3086 30.3037C12.2535 30.1766 12.2293 30.0177 12.2372 29.8361C12.2451 29.6546 12.285 29.4539 12.3546 29.2455C12.4243 29.0371 12.5223 28.8252 12.643 28.6219C12.7636 28.4184 12.9046 28.2274 13.0579 28.0598C13.2113 27.8921 13.374 27.7512 13.5368 27.645C13.6996 27.5387 13.8593 27.4693 14.0067 27.4407C14.1541 27.412 14.2864 27.4247 14.396 27.478C14.5056 27.5313 14.5903 27.6242 14.6453 27.7513C14.7003 27.8785 14.7246 28.0374 14.7167 28.2189C14.7088 28.4005 14.6689 28.6012 14.5992 28.8096C14.5296 29.0179 14.4316 29.2298 14.3109 29.4332Z" fill="#E2973A"/>
<path d="M14.6742 28.0806C14.6739 28.16 14.6614 28.2378 14.6373 28.3093C14.6132 28.3809 14.578 28.4448 14.5337 28.4975C14.4894 28.5502 14.4368 28.5906 14.3791 28.6165C14.3213 28.6423 14.2595 28.653 14.1971 28.6481C14.1347 28.6431 14.073 28.6225 14.0154 28.5875C13.9579 28.5525 13.9056 28.5037 13.8617 28.444C13.8178 28.3843 13.783 28.3147 13.7594 28.2394C13.7358 28.164 13.7238 28.0844 13.724 28.0049C13.7243 27.9254 13.7368 27.8477 13.7609 27.7761C13.785 27.7046 13.8202 27.6406 13.8645 27.5879C13.9088 27.5352 13.9614 27.4948 14.0191 27.469C14.0769 27.4432 14.1387 27.4324 14.2011 27.4374C14.2635 27.4424 14.3252 27.4629 14.3828 27.498C14.4403 27.533 14.4926 27.5817 14.5365 27.6415C14.5804 27.7012 14.6152 27.7707 14.6388 27.8461C14.6624 27.9214 14.6744 28.0011 14.6742 28.0806Z" fill="white"/>
<path d="M9.48224 35.4291C9.42897 35.6552 9.35232 35.8747 9.25667 36.0749C9.16103 36.2751 9.04826 36.4522 8.92482 36.596C8.80137 36.7399 8.66967 36.8476 8.53725 36.9131C8.40482 36.9786 8.27427 37.0005 8.15305 36.9777C8.03183 36.9549 7.9223 36.8877 7.83075 36.78C7.7392 36.6724 7.66742 36.5263 7.6195 36.3502C7.57158 36.1741 7.54847 35.9715 7.55149 35.7538C7.5545 35.5361 7.58358 35.3077 7.63707 35.0816C7.69034 34.8555 7.76699 34.636 7.86263 34.4358C7.95828 34.2356 8.07105 34.0585 8.19449 33.9146C8.31793 33.7708 8.44963 33.6631 8.58206 33.5976C8.71449 33.5321 8.84503 33.5102 8.96626 33.533C9.08748 33.5558 9.19701 33.623 9.28856 33.7307C9.3801 33.8383 9.45189 33.9844 9.49981 34.1605C9.54772 34.3366 9.57084 34.5392 9.56782 34.7569C9.56481 34.9746 9.53573 35.203 9.48224 35.4291Z" fill="#E2973A"/>
<path d="M9.41313 34.0395C9.43722 34.1158 9.44898 34.1936 9.44775 34.2684C9.44652 34.3433 9.43231 34.4137 9.40594 34.4756C9.37957 34.5376 9.34155 34.5899 9.29406 34.6296C9.24656 34.6693 9.19052 34.6956 9.12913 34.7069C9.06775 34.7182 9.00223 34.7144 8.93631 34.6957C8.87039 34.677 8.80536 34.6437 8.74494 34.5977C8.68452 34.5518 8.62989 34.494 8.58417 34.4279C8.53845 34.3617 8.50253 34.2884 8.47848 34.2121C8.45439 34.1358 8.44263 34.058 8.44386 33.9831C8.44509 33.9083 8.4593 33.8379 8.48567 33.7759C8.51204 33.7139 8.55006 33.6616 8.59755 33.6219C8.64505 33.5822 8.7011 33.556 8.76248 33.5446C8.82386 33.5333 8.88938 33.5371 8.9553 33.5558C9.02123 33.5746 9.08625 33.6079 9.14667 33.6538C9.20709 33.6998 9.26173 33.7575 9.30744 33.8237C9.35316 33.8898 9.38908 33.9632 9.41313 34.0395Z" fill="white"/>
<path d="M15.7436 38.2744C15.728 38.505 15.6882 38.7321 15.6265 38.9429C15.5648 39.1536 15.4824 39.3439 15.384 39.5027C15.2856 39.6614 15.1731 39.7857 15.053 39.8683C14.9329 39.951 14.8075 39.9903 14.684 39.9842C14.5605 39.9781 14.4413 39.9266 14.3332 39.8327C14.2251 39.7387 14.1303 39.6042 14.0541 39.4367C13.978 39.2693 13.9219 39.0722 13.8893 38.8568C13.8566 38.6413 13.8479 38.4118 13.8638 38.1812C13.8794 37.9506 13.9192 37.7235 13.9809 37.5127C14.0426 37.302 14.125 37.1117 14.2234 36.9529C14.3218 36.7942 14.4343 36.6699 14.5544 36.5873C14.6745 36.5046 14.7999 36.4653 14.9234 36.4714C15.0469 36.4775 15.1661 36.529 15.2741 36.6229C15.3822 36.7169 15.477 36.8514 15.5532 37.0189C15.6294 37.1863 15.6854 37.3834 15.7181 37.5988C15.7507 37.8143 15.7594 38.0438 15.7436 38.2744Z" fill="#E2973A"/>
<path d="M15.4464 36.91C15.4827 36.9821 15.5071 37.0573 15.5182 37.1314C15.5292 37.2054 15.5267 37.2769 15.5108 37.3417C15.4949 37.4064 15.4659 37.4632 15.4254 37.5088C15.385 37.5544 15.3339 37.588 15.2751 37.6075C15.2162 37.6269 15.1508 37.632 15.0826 37.6225C15.0143 37.6129 14.9446 37.5888 14.8773 37.5516C14.81 37.5144 14.7466 37.4648 14.6905 37.4056C14.6344 37.3465 14.5869 37.279 14.5506 37.2069C14.5143 37.1348 14.4899 37.0595 14.4788 36.9855C14.4678 36.9114 14.4703 36.84 14.4862 36.7752C14.5021 36.7104 14.5311 36.6536 14.5716 36.608C14.612 36.5624 14.6631 36.5289 14.7219 36.5094C14.7808 36.4899 14.8462 36.4848 14.9144 36.4944C14.9827 36.504 15.0524 36.5281 15.1197 36.5653C15.187 36.6025 15.2504 36.6521 15.3065 36.7112C15.3626 36.7704 15.4101 36.8379 15.4464 36.91Z" fill="white"/>
<path d="M10.5589 45.2772C10.6304 45.4988 10.6777 45.7245 10.6981 45.9414C10.7185 46.1582 10.7117 46.362 10.678 46.5411C10.6443 46.7202 10.5844 46.8711 10.5017 46.9851C10.4189 47.0991 10.3151 47.174 10.1959 47.2055C10.0768 47.2371 9.94483 47.2246 9.80747 47.1689C9.67012 47.1132 9.5301 47.0153 9.39544 46.8808C9.26077 46.7463 9.1341 46.5779 9.02265 46.3851C8.9112 46.1924 8.81716 45.9791 8.74591 45.7574C8.67445 45.5358 8.62715 45.3102 8.60672 45.0933C8.58628 44.8764 8.59312 44.6726 8.62682 44.4935C8.66053 44.3145 8.72046 44.1636 8.80317 44.0496C8.88589 43.9356 8.98977 43.8607 9.10888 43.8291C9.22799 43.7976 9.36 43.81 9.49735 43.8657C9.63471 43.9214 9.77472 44.0193 9.90939 44.1538C10.0441 44.2883 10.1707 44.4568 10.2822 44.6495C10.3936 44.8423 10.4877 45.0556 10.5589 45.2772Z" fill="#E2973A"/>
<path d="M9.77461 44.0813C9.83591 44.1381 9.88711 44.2015 9.92528 44.2678C9.96345 44.334 9.98784 44.402 9.99706 44.4676C10.0063 44.5333 10.0002 44.5954 9.97902 44.6505C9.95789 44.7055 9.92217 44.7524 9.8739 44.7885C9.82563 44.8246 9.76576 44.8491 9.69771 44.8606C9.62966 44.8722 9.55476 44.8705 9.47729 44.8558C9.39982 44.8411 9.3213 44.8137 9.24621 44.775C9.17112 44.7362 9.10093 44.6871 9.03966 44.6303C8.97835 44.5734 8.92715 44.5101 8.88898 44.4438C8.85081 44.3775 8.82642 44.3096 8.8172 44.2439C8.80798 44.1783 8.81411 44.1161 8.83525 44.0611C8.85638 44.006 8.8921 43.9591 8.94037 43.9231C8.98864 43.887 9.04851 43.8625 9.11656 43.851C9.18461 43.8394 9.25951 43.841 9.33698 43.8557C9.41445 43.8704 9.49297 43.8979 9.56806 43.9366C9.64315 43.9753 9.71334 44.0245 9.77461 44.0813Z" fill="white"/>
<path d="M20.8183 45.4352C20.8201 45.666 20.7975 45.895 20.7518 46.1089C20.7061 46.3229 20.6382 46.5176 20.5519 46.682C20.4657 46.8464 20.3628 46.9772 20.2492 47.067C20.1356 47.1568 20.0134 47.2038 19.8898 47.2053C19.7661 47.2068 19.6432 47.1628 19.5283 47.0758C19.4134 46.9888 19.3087 46.8605 19.2201 46.6982C19.1314 46.5359 19.0607 46.3429 19.0119 46.1301C18.9631 45.9173 18.9371 45.6889 18.9356 45.4581C18.9338 45.2272 18.9564 44.9982 19.0021 44.7843C19.0478 44.5704 19.1157 44.3756 19.2019 44.2112C19.2881 44.0468 19.391 43.916 19.5046 43.8262C19.6182 43.7364 19.7404 43.6894 19.8641 43.6879C19.9878 43.6864 20.1106 43.7304 20.2255 43.8175C20.3404 43.9045 20.4452 44.0328 20.5338 44.195C20.6224 44.3573 20.6931 44.5504 20.7419 44.7631C20.7908 44.9759 20.8167 45.2043 20.8183 45.4352Z" fill="#E2973A"/>
<path d="M20.4189 44.0925C20.4606 44.1621 20.4906 44.2356 20.5073 44.3088C20.5239 44.3819 20.5268 44.4533 20.5158 44.5188C20.5048 44.5844 20.4802 44.6428 20.4432 44.6907C20.4063 44.7386 20.3578 44.7752 20.3006 44.7983C20.2434 44.8213 20.1785 44.8304 20.1097 44.825C20.0408 44.8197 19.9694 44.8 19.8995 44.767C19.8295 44.7341 19.7624 44.6885 19.702 44.633C19.6416 44.5775 19.5891 44.5131 19.5474 44.4435C19.5057 44.3738 19.4757 44.3003 19.4591 44.2272C19.4425 44.154 19.4396 44.0827 19.4506 44.0171C19.4615 43.9516 19.4862 43.8932 19.5231 43.8452C19.5601 43.7973 19.6085 43.7607 19.6658 43.7377C19.723 43.7146 19.7879 43.7055 19.8567 43.7109C19.9255 43.7163 19.9969 43.736 20.0669 43.7689C20.1368 43.8019 20.2039 43.8474 20.2643 43.9029C20.3247 43.9584 20.3773 44.0228 20.4189 44.0925Z" fill="white"/>
<path d="M33.8525 45.2227C33.8543 45.4536 33.8317 45.6825 33.786 45.8965C33.7403 46.1104 33.6724 46.3052 33.5862 46.4696C33.4999 46.6339 33.3971 46.7648 33.2834 46.8546C33.1698 46.9444 33.0477 46.9913 32.924 46.9928C32.8003 46.9943 32.6775 46.9503 32.5626 46.8633C32.4477 46.7763 32.3429 46.648 32.2543 46.4857C32.1657 46.3235 32.0949 46.1304 32.0461 45.9176C31.9973 45.7048 31.9714 45.4765 31.9698 45.2456C31.968 45.0147 31.9906 44.7858 32.0363 44.5718C32.082 44.3579 32.1499 44.1632 32.2361 43.9988C32.3224 43.8344 32.4252 43.7035 32.5389 43.6138C32.6525 43.524 32.7746 43.477 32.8983 43.4755C33.022 43.474 33.1448 43.518 33.2597 43.605C33.3746 43.692 33.4794 43.8203 33.568 43.9826C33.6566 44.1448 33.7274 44.3379 33.7762 44.5507C33.825 44.7635 33.8509 44.9918 33.8525 45.2227Z" fill="#E2973A"/>
<path d="M33.4531 43.88C33.4948 43.9496 33.5248 44.0231 33.5415 44.0963C33.5581 44.1694 33.561 44.2408 33.55 44.3064C33.539 44.3719 33.5144 44.4303 33.4774 44.4782C33.4405 44.5262 33.3921 44.5628 33.3348 44.5858C33.2776 44.6088 33.2127 44.6179 33.1439 44.6126C33.075 44.6072 33.0036 44.5875 32.9337 44.5546C32.8637 44.5216 32.7967 44.4761 32.7363 44.4206C32.6758 44.365 32.6233 44.3006 32.5817 44.231C32.54 44.1614 32.5099 44.0879 32.4933 44.0147C32.4767 43.9416 32.4738 43.8702 32.4848 43.8047C32.4958 43.7391 32.5204 43.6807 32.5573 43.6328C32.5943 43.5848 32.6427 43.5483 32.7 43.5252C32.7572 43.5022 32.8221 43.4931 32.8909 43.4984C32.9597 43.5038 33.0312 43.5235 33.1011 43.5565C33.171 43.5894 33.2381 43.6349 33.2985 43.6905C33.3589 43.746 33.4115 43.8104 33.4531 43.88Z" fill="white"/>
<path d="M16.6545 51.4524C16.8053 51.6391 16.9351 51.8372 17.0363 52.0352C17.1375 52.2331 17.2083 52.4272 17.2445 52.6063C17.2807 52.7853 17.2817 52.9459 17.2474 53.0787C17.213 53.2116 17.1441 53.3141 17.0445 53.3805C16.9449 53.4468 16.8165 53.4758 16.6668 53.4656C16.5171 53.4554 16.3489 53.4062 16.1718 53.321C15.9948 53.2358 15.8124 53.1161 15.635 52.9689C15.4577 52.8216 15.2889 52.6496 15.1382 52.4628C14.9874 52.276 14.8577 52.078 14.7565 51.88C14.6553 51.682 14.5845 51.488 14.5483 51.3089C14.5121 51.1298 14.5111 50.9693 14.5454 50.8365C14.5797 50.7036 14.6487 50.6011 14.7483 50.5347C14.8479 50.4683 14.9763 50.4394 15.126 50.4496C15.2757 50.4598 15.4439 50.5089 15.621 50.5942C15.798 50.6794 15.9804 50.7991 16.1577 50.9463C16.3351 51.0936 16.5039 51.2656 16.6545 51.4524Z" fill="#E2973A"/>
<path d="M15.4692 50.5697C15.5482 50.6044 15.6202 50.6484 15.6812 50.6992C15.7421 50.7499 15.7908 50.8064 15.8243 50.8655C15.8579 50.9246 15.8757 50.985 15.8768 51.0435C15.8779 51.1019 15.8622 51.1571 15.8306 51.2059C15.7991 51.2548 15.7523 51.2963 15.6928 51.3281C15.6334 51.36 15.5626 51.3815 15.4844 51.3915C15.4062 51.4014 15.3222 51.3997 15.2371 51.3863C15.152 51.3729 15.0676 51.3481 14.9886 51.3134C14.9095 51.2787 14.8375 51.2347 14.7765 51.184C14.7156 51.1332 14.667 51.0767 14.6334 51.0177C14.5998 50.9586 14.582 50.8981 14.5809 50.8397C14.5798 50.7813 14.5955 50.7261 14.6271 50.6772C14.6586 50.6284 14.7055 50.5869 14.7649 50.555C14.8243 50.5232 14.8951 50.5017 14.9733 50.4917C15.0515 50.4817 15.1356 50.4835 15.2206 50.4969C15.3057 50.5103 15.3902 50.535 15.4692 50.5697Z" fill="white"/>
<path d="M24.7264 55.5937C24.824 55.8071 24.8981 56.027 24.9446 56.2407C24.9911 56.4544 25.009 56.6578 24.9973 56.8392C24.9856 57.0206 24.9445 57.1765 24.8763 57.2979C24.8082 57.4194 24.7144 57.504 24.6002 57.547C24.486 57.5899 24.3537 57.5904 24.2109 57.5484C24.0681 57.5064 23.9176 57.4226 23.7679 57.302C23.6182 57.1813 23.4723 57.0261 23.3386 56.8453C23.2049 56.6644 23.0859 56.4614 22.9885 56.2479C22.8909 56.0345 22.8167 55.8146 22.7702 55.6009C22.7237 55.3872 22.7058 55.1838 22.7175 55.0024C22.7292 54.821 22.7704 54.6651 22.8385 54.5437C22.9066 54.4222 23.0005 54.3376 23.1147 54.2946C23.2288 54.2516 23.3611 54.2511 23.5039 54.2932C23.6467 54.3352 23.7973 54.419 23.9469 54.5396C24.0966 54.6602 24.2425 54.8154 24.3762 54.9963C24.51 55.1772 24.629 55.3802 24.7264 55.5937Z" fill="#E2973A"/>
<path d="M23.8069 54.4812C23.8746 54.5317 23.9331 54.5897 23.979 54.652C24.0249 54.7142 24.0574 54.7794 24.0745 54.8438C24.0916 54.9082 24.0931 54.9706 24.0788 55.0275C24.0645 55.0843 24.0348 55.1344 23.9913 55.175C23.9478 55.2155 23.8914 55.2457 23.8253 55.2639C23.7592 55.282 23.6847 55.2877 23.6061 55.2806C23.5274 55.2735 23.4462 55.2538 23.367 55.2226C23.2878 55.1914 23.2122 55.1493 23.1446 55.0988C23.0768 55.0482 23.0184 54.9902 22.9724 54.928C22.9265 54.8657 22.8941 54.8006 22.877 54.7361C22.8598 54.6717 22.8584 54.6093 22.8727 54.5525C22.8869 54.4956 22.9167 54.4455 22.9602 54.4049C23.0037 54.3644 23.0601 54.3342 23.1262 54.3161C23.1923 54.2979 23.2668 54.2923 23.3454 54.2993C23.424 54.3064 23.5053 54.3261 23.5845 54.3573C23.6636 54.3885 23.7392 54.4306 23.8069 54.4812Z" fill="white"/>
<path d="M30.4566 52.4834C30.5319 52.704 30.583 52.9291 30.6072 53.1456C30.6314 53.3622 30.6281 53.5661 30.5975 53.7456C30.5669 53.9251 30.5096 54.0768 30.4289 54.1919C30.3483 54.3071 30.2458 54.3834 30.1273 54.4166C30.0088 54.4498 29.8767 54.4392 29.7385 54.3854C29.6003 54.3316 29.4587 54.2356 29.3219 54.103C29.185 53.9704 29.0555 53.8037 28.9408 53.6125C28.8261 53.4213 28.7285 53.2094 28.6535 52.9887C28.5782 52.7681 28.5271 52.5431 28.5029 52.3266C28.4787 52.11 28.482 51.9061 28.5126 51.7266C28.5432 51.547 28.6005 51.3954 28.6811 51.2802C28.7618 51.1651 28.8643 51.0888 28.9828 51.0556C29.1012 51.0224 29.2333 51.033 29.3716 51.0868C29.5098 51.1406 29.6513 51.2365 29.7882 51.3691C29.9251 51.5018 30.0546 51.6684 30.1693 51.8596C30.284 52.0508 30.3816 52.2628 30.4566 52.4834Z" fill="#E2973A"/>
<path d="M29.6528 51.2986C29.715 51.3545 29.7673 51.4172 29.8066 51.4829C29.8459 51.5487 29.8714 51.6162 29.8818 51.6818C29.8922 51.7473 29.8871 51.8095 29.8669 51.8649C29.8468 51.9202 29.8119 51.9676 29.7643 52.0043C29.7166 52.041 29.6572 52.0664 29.5894 52.0789C29.5216 52.0914 29.4467 52.0908 29.369 52.0772C29.2913 52.0635 29.2124 52.0371 29.1367 51.9995C29.0609 51.9618 28.99 51.9136 28.9277 51.8576C28.8655 51.8017 28.8132 51.739 28.7739 51.6733C28.7346 51.6075 28.709 51.54 28.6987 51.4744C28.6883 51.4089 28.6934 51.3467 28.7136 51.2913C28.7337 51.236 28.7686 51.1886 28.8162 51.1519C28.8638 51.1152 28.9233 51.0898 28.9911 51.0773C29.0589 51.0648 29.1338 51.0654 29.2115 51.079C29.2891 51.0927 29.3681 51.1191 29.4438 51.1567C29.5195 51.1944 29.5905 51.2426 29.6528 51.2986Z" fill="white"/>
<path d="M42.5941 46.9213C42.5959 47.1522 42.5733 47.3811 42.5276 47.5951C42.4819 47.809 42.414 48.0037 42.3277 48.1681C42.2415 48.3325 42.1387 48.4634 42.025 48.5532C41.9114 48.6429 41.7893 48.6899 41.6656 48.6914C41.5419 48.6929 41.4191 48.6489 41.3042 48.5619C41.1893 48.4749 41.0845 48.3466 40.9959 48.1843C40.9073 48.0221 40.8365 47.829 40.7877 47.6162C40.7389 47.4034 40.713 47.1751 40.7114 46.9442C40.7096 46.7133 40.7322 46.4844 40.7779 46.2704C40.8236 46.0565 40.8915 45.8617 40.9777 45.6974C41.064 45.533 41.1668 45.4021 41.2805 45.3123C41.3941 45.2225 41.5162 45.1756 41.6399 45.1741C41.7636 45.1726 41.8864 45.2166 42.0013 45.3036C42.1162 45.3906 42.221 45.5189 42.3096 45.6812C42.3982 45.8434 42.4689 46.0365 42.5178 46.2493C42.5666 46.4621 42.5925 46.6904 42.5941 46.9213Z" fill="#E2973A"/>
<path d="M42.1948 45.5786C42.2365 45.6482 42.2665 45.7217 42.2831 45.7949C42.2997 45.868 42.3026 45.9394 42.2916 46.0049C42.2807 46.0705 42.256 46.1289 42.2191 46.1768C42.1821 46.2248 42.1337 46.2613 42.0765 46.2844C42.0192 46.3074 41.9543 46.3165 41.8855 46.3112C41.8167 46.3058 41.7453 46.2861 41.6753 46.2531C41.6054 46.2202 41.5383 46.1747 41.4779 46.1191C41.4175 46.0636 41.3649 45.9992 41.3233 45.9296C41.2816 45.86 41.2516 45.7865 41.2349 45.7133C41.2183 45.6402 41.2154 45.5688 41.2264 45.5033C41.2374 45.4377 41.262 45.3793 41.299 45.3314C41.3359 45.2834 41.3844 45.2469 41.4416 45.2238C41.4988 45.2008 41.5637 45.1917 41.6325 45.197C41.7014 45.2024 41.7728 45.2221 41.8427 45.255C41.9127 45.288 41.9798 45.3335 42.0402 45.389C42.1006 45.4446 42.1531 45.509 42.1948 45.5786Z" fill="white"/>
<path d="M50.3637 46.3208C50.2918 46.5426 50.1972 46.7562 50.0852 46.9493C49.9732 47.1424 49.846 47.3113 49.7109 47.4462C49.5759 47.5811 49.4356 47.6794 49.298 47.7356C49.1605 47.7917 49.0284 47.8045 48.9093 47.7734C48.7903 47.7422 48.6866 47.6676 48.6041 47.5539C48.5217 47.4401 48.4622 47.2895 48.429 47.1105C48.3957 46.9315 48.3895 46.7277 48.4105 46.5108C48.4315 46.2939 48.4794 46.0681 48.5515 45.8462C48.6234 45.6244 48.718 45.4108 48.83 45.2177C48.942 45.0246 49.0692 44.8557 49.2043 44.7208C49.3394 44.5859 49.4797 44.4876 49.6172 44.4314C49.7548 44.3753 49.8868 44.3625 50.0059 44.3936C50.125 44.4248 50.2287 44.4994 50.3111 44.6131C50.3935 44.7269 50.453 44.8775 50.4863 45.0565C50.5195 45.2355 50.5258 45.4393 50.5047 45.6562C50.4837 45.8731 50.4358 46.0989 50.3637 46.3208Z" fill="#E2973A"/>
<path d="M50.4108 44.9302C50.4285 45.0079 50.4338 45.0864 50.4264 45.1609C50.419 45.2355 50.399 45.3048 50.3675 45.3648C50.3361 45.4248 50.2939 45.4743 50.2432 45.5106C50.1926 45.5469 50.1345 45.5692 50.0723 45.5763C50.0102 45.5834 49.9452 45.575 49.881 45.5518C49.8168 45.5285 49.7547 45.4908 49.6982 45.4408C49.6418 45.3907 49.5921 45.3294 49.552 45.2602C49.5119 45.1911 49.4821 45.1154 49.4645 45.0376C49.4468 44.9599 49.4415 44.8814 49.4489 44.8069C49.4563 44.7323 49.4763 44.663 49.5077 44.603C49.5392 44.543 49.5814 44.4935 49.6321 44.4572C49.6827 44.4209 49.7408 44.3986 49.8029 44.3915C49.8651 44.3845 49.9301 44.3928 49.9943 44.416C50.0585 44.4393 50.1206 44.477 50.177 44.527C50.2335 44.5771 50.2832 44.6384 50.3233 44.7076C50.3634 44.7768 50.3932 44.8524 50.4108 44.9302Z" fill="white"/>
<path d="M37.4428 53.0784C37.4446 53.3093 37.422 53.5383 37.3763 53.7522C37.3306 53.9661 37.2627 54.1609 37.1764 54.3253C37.0902 54.4897 36.9873 54.6205 36.8737 54.7103C36.7601 54.8001 36.638 54.8471 36.5143 54.8486C36.3906 54.8501 36.2678 54.8061 36.1529 54.7191C36.0379 54.632 35.9332 54.5037 35.8446 54.3415C35.756 54.1792 35.6852 53.9861 35.6364 53.7734C35.5876 53.5606 35.5617 53.3322 35.5601 53.1013C35.5583 52.8705 35.5809 52.6415 35.6266 52.4276C35.6723 52.2136 35.7402 52.0189 35.8264 51.8545C35.9127 51.6901 36.0155 51.5593 36.1291 51.4695C36.2428 51.3797 36.3649 51.3327 36.4886 51.3312C36.6123 51.3297 36.7351 51.3737 36.85 51.4607C36.9649 51.5477 37.0697 51.676 37.1583 51.8383C37.2469 52.0006 37.3176 52.1936 37.3665 52.4064C37.4153 52.6192 37.4412 52.8476 37.4428 53.0784Z" fill="#E2973A"/>
<path d="M37.0434 51.7357C37.0851 51.8054 37.1151 51.8789 37.1318 51.952C37.1484 52.0252 37.1513 52.0965 37.1403 52.1621C37.1293 52.2276 37.1047 52.286 37.0677 52.334C37.0308 52.3819 36.9824 52.4185 36.9251 52.4415C36.8679 52.4646 36.803 52.4737 36.7342 52.4683C36.6653 52.463 36.5939 52.4432 36.524 52.4103C36.454 52.3773 36.3869 52.3318 36.3265 52.2763C36.2661 52.2208 36.2136 52.1564 36.1719 52.0867C36.1302 52.0171 36.1002 51.9436 36.0836 51.8705C36.067 51.7973 36.0641 51.7259 36.0751 51.6604C36.0861 51.5949 36.1107 51.5364 36.1476 51.4885C36.1846 51.4406 36.233 51.404 36.2903 51.3809C36.3475 51.3579 36.4124 51.3488 36.4812 51.3542C36.55 51.3595 36.6215 51.3792 36.6914 51.4122C36.7613 51.4451 36.8284 51.4907 36.8888 51.5462C36.9492 51.6017 37.0018 51.6661 37.0434 51.7357Z" fill="white"/>
<path d="M43.2185 57.6078C43.2203 57.8387 43.1977 58.0677 43.152 58.2816C43.1063 58.4956 43.0384 58.6903 42.9521 58.8547C42.8659 59.0191 42.7631 59.1499 42.6494 59.2397C42.5358 59.3295 42.4137 59.3765 42.29 59.378C42.1663 59.3795 42.0435 59.3355 41.9286 59.2485C41.8137 59.1615 41.7089 59.0331 41.6203 58.8709C41.5317 58.7086 41.4609 58.5156 41.4121 58.3028C41.3633 58.09 41.3374 57.8616 41.3358 57.6307C41.334 57.3999 41.3566 57.1709 41.4023 56.957C41.448 56.743 41.5159 56.5483 41.6021 56.3839C41.6884 56.2195 41.7912 56.0887 41.9049 55.9989C42.0185 55.9091 42.1406 55.8621 42.2643 55.8606C42.388 55.8591 42.5108 55.9031 42.6257 55.9901C42.7406 56.0771 42.8454 56.2055 42.934 56.3677C43.0226 56.53 43.0933 56.723 43.1422 56.9358C43.191 57.1486 43.2169 57.377 43.2185 57.6078Z" fill="#E2973A"/>
<path d="M42.8191 56.2652C42.8608 56.3348 42.8908 56.4083 42.9075 56.4814C42.9241 56.5546 42.927 56.6259 42.916 56.6915C42.905 56.757 42.8804 56.8154 42.8434 56.8634C42.8065 56.9113 42.7581 56.9479 42.7008 56.9709C42.6436 56.994 42.5787 57.0031 42.5099 56.9977C42.441 56.9924 42.3696 56.9726 42.2997 56.9397C42.2297 56.9067 42.1627 56.8612 42.1022 56.8057C42.0418 56.7502 41.9893 56.6858 41.9477 56.6161C41.906 56.5465 41.8759 56.473 41.8593 56.3999C41.8427 56.3267 41.8398 56.2553 41.8508 56.1898C41.8618 56.1243 41.8864 56.0659 41.9233 56.0179C41.9603 55.97 42.0087 55.9334 42.066 55.9104C42.1232 55.8873 42.1881 55.8782 42.2569 55.8836C42.3257 55.8889 42.3972 55.9087 42.4671 55.9416C42.537 55.9745 42.6041 56.0201 42.6645 56.0756C42.7249 56.1311 42.7775 56.1955 42.8191 56.2652Z" fill="white"/>
<path d="M35.4135 59.4479C35.4153 59.6788 35.3927 59.9078 35.347 60.1217C35.3013 60.3357 35.2334 60.5304 35.1472 60.6948C35.061 60.8592 34.9581 60.99 34.8445 61.0798C34.7309 61.1696 34.6087 61.2166 34.485 61.2181C34.3613 61.2196 34.2385 61.1756 34.1236 61.0886C34.0087 61.0015 33.9039 60.8732 33.8153 60.711C33.7267 60.5487 33.656 60.3557 33.6072 60.1429C33.5583 59.9301 33.5324 59.7017 33.5308 59.4708C33.529 59.24 33.5516 59.011 33.5973 58.7971C33.643 58.5831 33.7109 58.3884 33.7972 58.224C33.8834 58.0596 33.9863 57.9288 34.0999 57.839C34.2135 57.7492 34.3356 57.7022 34.4593 57.7007C34.583 57.6992 34.7058 57.7432 34.8208 57.8302C34.9357 57.9172 35.0404 58.0455 35.129 58.2078C35.2177 58.3701 35.2884 58.5631 35.3372 58.7759C35.386 58.9887 35.412 59.2171 35.4135 59.4479Z" fill="#E2973A"/>
<path d="M35.0142 58.1053C35.0559 58.1749 35.0859 58.2484 35.1025 58.3215C35.1191 58.3947 35.122 58.466 35.111 58.5316C35.1001 58.5971 35.0754 58.6555 35.0385 58.7035C35.0016 58.7514 34.9531 58.788 34.8959 58.811C34.8386 58.8341 34.7737 58.8432 34.7049 58.8378C34.6361 58.8325 34.5647 58.8127 34.4947 58.7798C34.4248 58.7468 34.3577 58.7013 34.2973 58.6458C34.2369 58.5903 34.1843 58.5259 34.1427 58.4562C34.101 58.3866 34.071 58.3131 34.0543 58.24C34.0377 58.1668 34.0348 58.0954 34.0458 58.0299C34.0568 57.9644 34.0814 57.9059 34.1184 57.858C34.1553 57.8101 34.2038 57.7735 34.261 57.7505C34.3182 57.7274 34.3831 57.7183 34.4519 57.7237C34.5208 57.729 34.5922 57.7487 34.6621 57.7817C34.7321 57.8146 34.7992 57.8602 34.8596 57.9157C34.92 57.9712 34.9725 58.0356 35.0142 58.1053Z" fill="white"/>
<path d="M39.7843 63.5526C39.7861 63.7835 39.7635 64.0125 39.7178 64.2264C39.6721 64.4404 39.6042 64.6351 39.518 64.7995C39.4317 64.9639 39.3289 65.0947 39.2153 65.1845C39.1016 65.2743 38.9795 65.3213 38.8558 65.3228C38.7321 65.3243 38.6093 65.2803 38.4944 65.1933C38.3795 65.1062 38.2747 64.9779 38.1861 64.8157C38.0975 64.6534 38.0268 64.4604 37.9779 64.2476C37.9291 64.0348 37.9032 63.8064 37.9016 63.5755C37.8998 63.3447 37.9224 63.1157 37.9681 62.9018C38.0138 62.6878 38.0817 62.4931 38.168 62.3287C38.2542 62.1643 38.3571 62.0335 38.4707 61.9437C38.5843 61.8539 38.7064 61.8069 38.8301 61.8054C38.9538 61.8039 39.0766 61.8479 39.1915 61.9349C39.3065 62.0219 39.4112 62.1502 39.4998 62.3125C39.5884 62.4748 39.6592 62.6678 39.708 62.8806C39.7568 63.0934 39.7827 63.3218 39.7843 63.5526Z" fill="#E2973A"/>
<path d="M39.3849 62.2099C39.4266 62.2796 39.4566 62.3531 39.4733 62.4262C39.4899 62.4994 39.4928 62.5707 39.4818 62.6363C39.4708 62.7018 39.4462 62.7602 39.4092 62.8082C39.3723 62.8561 39.3238 62.8927 39.2666 62.9157C39.2094 62.9388 39.1445 62.9479 39.0757 62.9425C39.0068 62.9372 38.9354 62.9174 38.8655 62.8845C38.7955 62.8515 38.7284 62.806 38.668 62.7505C38.6076 62.695 38.5551 62.6306 38.5134 62.5609C38.4717 62.4913 38.4417 62.4178 38.4251 62.3447C38.4085 62.2715 38.4056 62.2001 38.4166 62.1346C38.4276 62.0691 38.4522 62.0106 38.4891 61.9627C38.5261 61.9148 38.5745 61.8782 38.6318 61.8551C38.689 61.8321 38.7539 61.823 38.8227 61.8284C38.8915 61.8337 38.963 61.8534 39.0329 61.8864C39.1028 61.9193 39.1699 61.9649 39.2303 62.0204C39.2907 62.0759 39.3433 62.1403 39.3849 62.2099Z" fill="white"/>
<path d="M29.9229 61.7851C30.0737 61.9718 30.2035 62.1699 30.3047 62.3679C30.4059 62.5658 30.4767 62.7599 30.5129 62.939C30.5491 63.118 30.5501 63.2786 30.5157 63.4114C30.4814 63.5443 30.4125 63.6468 30.3129 63.7132C30.2132 63.7795 30.0849 63.8085 29.9352 63.7983C29.7854 63.7881 29.6172 63.7389 29.4402 63.6537C29.2632 63.5685 29.0808 63.4488 28.9034 63.3016C28.7261 63.1543 28.5573 62.9823 28.4066 62.7955C28.2558 62.6087 28.1261 62.4107 28.0249 62.2127C27.9236 62.0147 27.8529 61.8207 27.8167 61.6416C27.7805 61.4625 27.7795 61.302 27.8138 61.1692C27.8481 61.0363 27.9171 60.9338 28.0167 60.8674C28.1163 60.801 28.2446 60.7721 28.3944 60.7823C28.5441 60.7925 28.7123 60.8416 28.8893 60.9268C29.0664 61.0121 29.2488 61.1317 29.4261 61.279C29.6035 61.4263 29.7723 61.5982 29.9229 61.7851Z" fill="#E2973A"/>
<path d="M28.7376 60.9024C28.8166 60.9371 28.8886 60.9811 28.9496 61.0319C29.0105 61.0826 29.0591 61.1391 29.0927 61.1982C29.1263 61.2573 29.1441 61.3177 29.1452 61.3761C29.1463 61.4346 29.1306 61.4898 29.099 61.5386C29.0675 61.5875 29.0206 61.629 28.9612 61.6608C28.9018 61.6926 28.831 61.7142 28.7528 61.7241C28.6746 61.7341 28.5905 61.7324 28.5055 61.719C28.4204 61.7056 28.3359 61.6808 28.2569 61.6461C28.1779 61.6114 28.1059 61.5674 28.0449 61.5167C27.984 61.4659 27.9353 61.4094 27.9018 61.3503C27.8682 61.2913 27.8504 61.2308 27.8493 61.1724C27.8482 61.114 27.8639 61.0588 27.8955 61.0099C27.927 60.9611 27.9738 60.9196 28.0333 60.8877C28.0927 60.8559 28.1635 60.8344 28.2417 60.8244C28.3199 60.8144 28.4039 60.8162 28.489 60.8296C28.5741 60.8429 28.6585 60.8677 28.7376 60.9024Z" fill="white"/>
<path d="M48.5259 55.5554C48.5277 55.7863 48.5051 56.0152 48.4594 56.2292C48.4137 56.4431 48.3457 56.6379 48.2595 56.8022C48.1733 56.9666 48.0704 57.0975 47.9568 57.1873C47.8432 57.2771 47.721 57.324 47.5973 57.3255C47.4737 57.327 47.3508 57.283 47.2359 57.196C47.121 57.109 47.0163 56.9807 46.9276 56.8184C46.839 56.6562 46.7683 56.4631 46.7195 56.2503C46.6707 56.0375 46.6447 55.8092 46.6432 55.5783C46.6414 55.3474 46.664 55.1185 46.7097 54.9045C46.7554 54.6906 46.8233 54.4959 46.9095 54.3315C46.9957 54.1671 47.0986 54.0362 47.2122 53.9464C47.3258 53.8567 47.448 53.8097 47.5717 53.8082C47.6954 53.8067 47.8182 53.8507 47.9331 53.9377C48.048 54.0247 48.1527 54.153 48.2414 54.3153C48.33 54.4775 48.4007 54.6706 48.4495 54.8834C48.4983 55.0962 48.5243 55.3245 48.5259 55.5554Z" fill="#E2973A"/>
<path d="M48.1264 54.2127C48.1681 54.2823 48.1982 54.3558 48.2148 54.429C48.2314 54.5021 48.2343 54.5735 48.2233 54.639C48.2123 54.7046 48.1877 54.763 48.1508 54.8109C48.1138 54.8589 48.0654 54.8954 48.0081 54.9185C47.9509 54.9415 47.886 54.9506 47.8172 54.9453C47.7484 54.9399 47.6769 54.9202 47.607 54.8873C47.5371 54.8543 47.47 54.8088 47.4096 54.7533C47.3492 54.6977 47.2966 54.6333 47.255 54.5637C47.2133 54.4941 47.1833 54.4206 47.1666 54.3474C47.15 54.2743 47.1471 54.2029 47.1581 54.1374C47.1691 54.0718 47.1937 54.0134 47.2307 53.9655C47.2676 53.9175 47.316 53.881 47.3733 53.8579C47.4305 53.8349 47.4954 53.8258 47.5642 53.8311C47.6331 53.8365 47.7045 53.8562 47.7744 53.8892C47.8444 53.9221 47.9114 53.9676 47.9719 54.0232C48.0323 54.0787 48.0848 54.1431 48.1264 54.2127Z" fill="white"/>
</svg>
