<svg width="44" height="58" viewBox="0 0 44 58" fill="none" xmlns="http://www.w3.org/2000/svg">
<path d="M31.1511 15.6367C31.1511 15.6367 32.1517 12.3059 33.5191 9.67851C43.1844 13.2765 43.2881 22.1304 43.1072 29.4029C45.4579 39.8569 43.6402 53.6534 31.905 56.4513C23.0733 58.5569 9.05621 56.1161 2.94197 47.1675C-3.16131 38.2349 0.634328 26.2264 10.61 20.9657C13.7942 17.2782 17.4119 13.1688 21.3332 10.7518C23.6463 11.1383 26.1517 10.8035 28.6799 9.18421C28.6799 9.18421 30.5322 9.44376 30.9282 10.3958C31.4461 11.8219 30.5068 13.8752 29.8323 15.1969C30.1936 15.4538 30.6663 15.6053 31.1507 15.6399L31.1511 15.6367Z" fill="#9AC64C"/>
<path d="M29.4688 7.90082C30.7605 8.68349 31.1125 8.81057 30.9435 9.70808C30.6005 11.2923 30.1569 12.18 30.7011 10.5296C30.3052 9.57761 28.6807 9.18377 28.6807 9.18377C26.1526 10.803 23.6472 11.1383 21.334 10.7514C14.8618 9.67529 9.851 2.97909 9.851 2.97909C9.851 2.97909 13.354 1.9062 20.9271 0.924372C28.4969 -0.0570535 29.4688 7.84706 29.4688 7.84706" fill="#8CA101"/>
<path d="M27.3433 7.26791C26.9845 6.81577 26.5371 6.45589 26.0627 6.1469C25.5905 5.83474 25.079 5.58462 24.5554 5.3679C24.0266 5.16191 23.4878 4.97858 22.9308 4.84616C22.3772 4.70579 21.8134 4.59285 21.2417 4.5165C20.1003 4.35108 18.9378 4.27234 17.7657 4.2449C16.5922 4.21668 15.4112 4.24011 14.2099 4.23774C15.3581 3.90569 16.5446 3.70368 17.7463 3.61142C18.9475 3.52076 20.1677 3.53548 21.3745 3.71482C21.9757 3.81145 22.5758 3.93434 23.161 4.1113C23.7424 4.29661 24.3188 4.51054 24.8535 4.80361C25.3919 5.08675 25.8941 5.43549 26.3326 5.84269C26.7597 6.25745 27.1493 6.7251 27.3433 7.26791Z" fill="#616E01"/>
<path d="M30.8025 14.2885C30.8025 14.2885 29.9406 12.9782 28.8797 13.5222C27.7809 14.0857 29.4895 15.4584 30.5166 15.6613C31.5437 15.8641 33.3095 15.777 33.0722 14.9077C32.8972 14.2683 32.5228 14.0217 30.8025 14.2885Z" fill="#68AA44"/>
<path d="M33.5191 9.67851C32.1517 12.3059 31.1511 15.6367 31.1511 15.6367L31.1516 15.6395C30.6671 15.6045 30.194 15.4533 29.8331 15.1965C29.8331 15.1965 30.0511 13.2149 30.5588 10.8548C30.5588 10.8548 30.5588 10.8548 30.5588 10.852C30.5643 10.8278 30.6014 10.687 30.6414 10.4734C30.6414 10.4706 30.6414 10.4679 30.6414 10.4679C31.0685 8.56708 31.6761 6.48849 32.4987 5.02828C32.4987 5.02828 32.5675 1.81679 36.5292 4.1606C39.1548 5.71505 36.3483 6.0773 35.1935 7.20984C34.6057 7.78605 34.0348 8.68317 33.5191 9.67851Z" fill="#795E36"/>
<path d="M30.8554 21.384C30.8554 22.2004 30.2546 22.8631 29.5114 22.8631C28.7693 22.8631 28.1675 22.2013 28.1675 21.384C28.1675 20.5684 28.7693 19.9067 29.5114 19.9067C30.2546 19.9067 30.8554 20.5684 30.8554 21.384Z" fill="#7CBC45"/>
<path d="M39.8252 25.0372C39.8252 25.8537 39.2244 26.5163 38.4813 26.5163C37.7391 26.5163 37.1373 25.8546 37.1373 25.0372C37.1373 24.2217 37.7391 23.56 38.4813 23.56C39.2244 23.5596 39.8252 24.2217 39.8252 25.0372Z" fill="#7CBC45"/>
<path d="M42.2405 35.7533C42.2405 36.5698 41.6396 37.2324 40.8965 37.2324C40.1544 37.2324 39.5525 36.5707 39.5525 35.7533C39.5525 34.9369 40.1544 34.2742 40.8965 34.2742C41.6387 34.2742 42.2405 34.936 42.2405 35.7533Z" fill="#7CBC45"/>
<path d="M36.8924 20.031C36.8924 20.8474 36.2916 21.51 35.5484 21.51C34.8063 21.51 34.2045 20.8483 34.2045 20.031C34.2045 19.2145 34.8063 18.5518 35.5484 18.5518C36.2916 18.5522 36.8924 19.2145 36.8924 20.031Z" fill="#7CBC45"/>
<path d="M38.1169 31.7514C38.1169 32.5679 37.5161 33.2306 36.7729 33.2306C36.0308 33.2306 35.4289 32.5688 35.4289 31.7514C35.4289 30.935 36.0308 30.2724 36.7729 30.2724C37.5151 30.2724 38.1169 30.9341 38.1169 31.7514Z" fill="#7CBC45"/>
<path d="M34.2593 27.5837C34.2593 28.4002 33.6585 29.0628 32.9154 29.0628C32.1732 29.0628 31.5714 28.4011 31.5714 27.5837C31.5714 26.7673 32.1732 26.1046 32.9154 26.1046C33.6585 26.105 34.2593 26.7673 34.2593 27.5837Z" fill="#7CBC45"/>
<path d="M11.8525 24.3713C14.9411 22.3543 15.2619 21.9101 17.3166 20.0225C18.9205 18.5495 20.2812 19.1444 19.5437 23.6388C18.8484 27.8723 18.3939 33.1878 12.7671 31.3375C7.47042 29.5953 9.66969 25.7969 11.8525 24.3713Z" fill="#B3D37C"/>
</svg>
