<svg width="61" height="60" viewBox="0 0 61 60" fill="none" xmlns="http://www.w3.org/2000/svg">
<path d="M0.103516 6C0.103516 2.68629 2.79209 0 6.10862 0H54.1494C57.466 0 60.1545 2.68629 60.1545 6V54C60.1545 57.3137 57.466 60 54.1494 60H6.10862C2.79209 60 0.103516 57.3137 0.103516 54V6Z" fill="#B3E596"/>
<path d="M30.129 9C21.8291 9 15.1163 15.573 15.1163 23.7C15.1163 34.725 30.129 51 30.129 51C30.129 51 45.1418 34.725 45.1418 23.7C45.1418 15.573 38.4289 9 30.129 9ZM30.129 28.95C27.1694 28.95 24.7673 26.598 24.7673 23.7C24.7673 20.802 27.1694 18.45 30.129 18.45C33.0887 18.45 35.4907 20.802 35.4907 23.7C35.4907 26.598 33.0887 28.95 30.129 28.95Z" fill="#296308"/>
</svg>
