<svg width="98" height="228" viewBox="0 0 98 228" fill="none" xmlns="http://www.w3.org/2000/svg">
<g opacity="0.25">
<path d="M48.2496 89.9331C52.3219 87.0577 47.1697 80.818 46.1444 85.521C51.8132 83.6687 43.6313 90.8872 48.2496 89.9331ZM47.5106 92.7326C43.5954 90.1509 51.4319 90.1537 47.5106 92.7326V92.7326Z" fill="#296308"/>
<path d="M60.1217 28.0522C59.0202 19.6257 72.567 13.2822 64.9151 4.91134C61.7034 1.21719 47.5359 0.724501 50.7378 7.68351C51.3949 10.9812 62.2097 4.81688 59.8547 13.1633C58.1316 16.8998 49.5365 26.9876 56.5582 28.0513H60.1219L60.1217 28.0522ZM57.0048 39.8586C67.7921 38.1449 54.3834 24.3944 52.8489 35.561C52.7251 37.8408 54.6565 40.0049 57.0048 39.8586Z" fill="#76BD4D"/>
<path d="M5.89556 33.4995C7.95088 28.2548 14.0054 17.2181 2.97755 18.333C-2.41628 18.2472 0.391924 24.6771 4.50585 21.7558C8.99853 24.6119 -3.32332 34.7499 5.77677 33.4996L5.89556 33.4995ZM4.04317 40.5161C12.3046 36.4564 -2.87509 33.0188 3.00604 40.3143L4.04317 40.5161Z" fill="#76BD4D"/>
<path d="M91.7443 44.6C93.7996 39.3554 99.8541 28.3186 88.8263 29.4336C83.4323 29.348 86.2409 35.7771 90.3546 32.8564C94.8478 35.7119 82.5261 45.8498 91.6241 44.6001L91.7443 44.6ZM89.8919 51.6166C98.1533 47.5569 82.9737 44.1193 88.8548 51.4149L89.8919 51.6166Z" fill="#76BD4D"/>
<path d="M19.051 209.059C21.1064 203.815 27.1609 192.778 16.133 193.893C10.7391 193.807 13.5476 200.236 17.6613 197.316C22.1546 200.171 9.83286 210.309 18.9308 209.059L19.051 209.059ZM17.1987 216.076C25.46 212.016 10.2804 208.579 16.1615 215.874L17.1987 216.076Z" fill="#76BD4D"/>
<path d="M39.2169 147.713C44.0858 143.924 39.915 134.649 35.7909 140.186C41.2878 141.717 38.4208 146.865 37.5506 147.713H39.2169ZM38.1019 151.937C32.0031 148.369 44.1884 147.648 38.1019 151.937V151.937Z" fill="#76BD4D"/>
<path d="M54.0057 106.79C58.0779 103.914 52.9257 97.6747 51.9005 102.378C57.5693 100.525 49.3873 107.744 54.0057 106.79ZM53.2666 109.589C49.3514 107.008 57.1879 107.01 53.2666 109.589V109.589Z" fill="#76BD4D"/>
<path d="M36.7331 223.106C39.9856 219.252 40.4337 210.592 32.8065 214.105C32.523 217.586 39.4962 214.39 35.5677 219.251C33.9575 221.384 33.5547 223.893 36.7331 223.106ZM35.5497 227.588C29.1989 223.857 42.1444 222.935 35.5497 227.588V227.588Z" fill="#76BD4D"/>
<path d="M32.548 144.888C31.8744 136.954 45.3432 129.208 35.8361 122.006C31.7797 119.498 19.7388 119.807 24.005 126.774C27.6847 124.416 36.4097 127.684 30.8088 133.7C27.0612 137.188 23.6875 147.189 31.7972 144.889H32.5483L32.548 144.888ZM29.6019 156.047C39.7978 154.428 27.1242 141.431 25.6739 151.985C25.5568 154.14 27.3824 156.186 29.6019 156.047Z" fill="#296308"/>
<path d="M52.8537 126.022C55.4247 121.071 59.4097 110.645 49.1651 112.901C42.9908 117.461 56.7413 113.621 51.8906 119.826C49.8426 122.366 47.4949 127.275 52.8537 126.022ZM51.2225 132.2C58.4971 128.625 45.1306 125.598 50.3093 132.022L51.2225 132.2Z" fill="#296308"/>
<path d="M69.7716 32.2733C72.1756 27.6448 75.9017 17.8959 66.3228 20.0056C60.4227 24.3722 74.7446 20.8622 68.2696 27.305C66.3186 29.972 65.5469 33.2849 69.7716 32.2733ZM68.2465 38.0503C75.0484 34.7078 62.5504 31.8775 67.3926 37.8842L68.2465 38.0503Z" fill="#296308"/>
<path d="M86.5001 67.5398C91.3698 63.7509 87.1971 54.4752 83.0741 60.0131C88.5693 61.5408 85.7078 66.6972 84.8339 67.5398H86.5001ZM85.3851 71.7633C79.2863 68.1959 91.4716 67.4752 85.3851 71.7633V71.7633Z" fill="#296308"/>
<path d="M35.9119 27.974C37.7935 23.8636 41.8676 15.2115 32.8416 17.0527C27.6137 20.8227 40.3304 17.8507 34.5748 23.551C32.8772 25.9068 32.0936 28.8807 35.9119 27.974ZM34.5542 33.117C27.5581 26.7998 42.0604 29.8744 34.5542 33.117V33.117Z" fill="#296308"/>
<path d="M14.5339 14.8159C16.4155 10.7055 20.4896 2.05346 11.4636 3.89467C6.23569 7.66467 18.9524 4.69267 13.1968 10.3929C11.4992 12.7487 10.7156 15.7227 14.5339 14.8159ZM13.1762 19.9589C6.18009 13.6417 20.6824 16.7164 13.1762 19.9589V19.9589Z" fill="#296308"/>
<path d="M40.4221 204.779C42.2989 200.679 46.3624 192.049 37.3597 193.886C32.1447 197.649 44.8292 194.68 39.0884 200.367C37.3962 202.717 36.6123 205.683 40.4221 204.779ZM39.0679 209.909C32.0898 203.608 46.5548 206.674 39.0679 209.909V209.909Z" fill="#296308"/>
<path d="M28.9198 218.928C30.9751 213.683 37.0296 202.647 26.0018 203.762C20.608 203.676 23.4162 210.106 27.5301 207.184C32.0228 210.04 19.7009 220.178 28.801 218.928L28.9198 218.928ZM27.0674 225.945C35.3288 221.885 20.1491 218.447 26.0303 225.743L27.0674 225.945Z" fill="#296308"/>
<path d="M56.2312 212.438C58.3735 208.737 61.6085 200.201 53.3234 202.095C48.3902 205.704 60.3207 202.871 54.9648 208.249C53.2802 210.796 52.647 213.163 56.2312 212.438ZM54.9453 217.308C48.3196 211.326 62.0542 214.238 54.9453 217.308V217.308Z" fill="#296308"/>
<path d="M70.4785 83.0615C68.9435 74.2327 76.4513 68.5953 80.2683 61.7197C84.6676 54.2035 81.0592 42.8054 71.894 41.2357C66.7206 40.2832 52.4205 39.4295 54.1856 46.6935C54.5704 53.1973 57.545 51.6016 62.6551 49.9654C74.4432 48.9857 70.0402 63.4033 64.1687 67.971C61.4626 71.6313 56.2103 84.5708 64.4496 83.0609H70.4785L70.4785 83.0615ZM65.3203 102.6C77.1569 102.783 71.5787 82.5572 61.439 89.3763C56.0503 93.0124 58.2889 102.964 65.3203 102.6Z" fill="#0F2700"/>
<path d="M48.9959 207.385C48.3223 199.45 61.7911 191.705 52.284 184.503C48.2238 181.993 36.1845 182.306 40.4541 189.275C44.1419 186.902 52.8531 190.189 47.2564 196.196C43.505 199.688 40.1375 209.688 48.2505 207.385H48.9959L48.9959 207.385ZM46.0499 218.544C56.2458 216.924 43.5722 203.927 42.1218 214.482C42.0048 216.637 43.8303 218.682 46.0499 218.544Z" fill="#0F2700"/>
<path d="M54.6673 90.8868C57.3178 85.7838 61.4258 75.0353 50.8649 77.3614C44.5124 82.0106 58.6705 78.1224 53.6745 84.5002C51.5532 87.116 49.1595 92.1798 54.6673 90.8868ZM52.9858 97.2561C60.4851 93.5709 46.7057 90.4504 52.0443 97.073L52.9858 97.2561Z" fill="#0F2700"/>
<path d="M32.2094 195.081C34.2647 189.836 40.3192 178.799 29.2914 179.914C23.898 179.828 26.705 186.26 30.8197 183.337C35.3107 186.195 22.9898 196.335 32.0946 195.081L32.2094 195.081ZM30.357 202.097C38.6184 198.038 23.4387 194.6 29.3199 201.896L30.357 202.097Z" fill="#0F2700"/>
<path d="M50.3007 149.855C52.356 144.611 58.4105 133.574 47.3827 134.689C41.9893 134.602 44.7963 141.035 48.911 138.112C53.402 140.969 41.0811 151.109 50.1859 149.855L50.3007 149.855ZM48.4483 156.872C56.7097 152.812 41.53 149.375 47.4112 156.67L48.4483 156.872Z" fill="#0F2700"/>
<path d="M44.5446 15.245C46.5999 10.0004 52.6545 -1.03639 41.6266 0.0785508C36.2333 -0.00816076 39.0402 6.42468 43.1549 3.50134C47.6459 6.35893 35.3251 16.499 44.4298 15.2451L44.5446 15.245ZM42.6922 22.2616C50.9536 18.2019 35.774 14.7643 41.6551 22.0598L42.6922 22.2616Z" fill="#0F2700"/>
<path d="M60.1862 63.4271C65.0576 59.6378 60.8803 50.3613 56.7606 55.9012C62.2516 57.4214 59.4044 62.5976 58.5206 63.4271H60.1862ZM59.0712 67.6506C52.9725 64.0831 65.1577 63.3624 59.0712 67.6506V67.6506Z" fill="#0F2700"/>
<path d="M16.4402 31.3601C21.3116 27.5708 17.1343 18.2943 13.0145 23.8342C18.5055 25.3544 15.6584 30.5306 14.7745 31.3601H16.4402ZM15.3252 35.5836C9.22642 32.0161 21.4117 31.2954 15.3252 35.5836V35.5836Z" fill="#0F2700"/>
<path d="M26.6433 23.7249C26.4637 16.626 38.9818 7.70239 28.1896 2.45369C23.4061 -0.671921 14.2533 4.93876 19.9864 7.3771C29.3026 3.92147 26.1229 14.704 22.0258 18.5448C19.9009 24.2979 22.1143 23.9407 26.6433 23.7249ZM23.9903 33.774C34.2727 31.1335 19.0987 20.6356 20.6949 31.5355C21.1419 32.904 22.5611 33.8368 23.9903 33.774Z" fill="#0F2700"/>
<path d="M80.1022 29.7305C80.6003 23.6747 91.0346 13.8566 79.9608 11.0541C74.996 7.88138 69.6159 16.0578 75.2525 15.3289C87.7355 13.818 69.8837 28.626 77.6592 29.7309H80.1022L80.1022 29.7305ZM77.8179 38.3829C86.6712 36.1095 73.6062 27.0706 74.9805 36.4556C75.3654 37.6339 76.5874 38.437 77.8179 38.3829Z" fill="#0F2700"/>
<path d="M44.4852 113.917C44.8232 107.552 55.7306 97.8188 44.3409 94.8594C39.2748 91.6557 33.7823 99.9205 39.5366 99.2213C52.252 97.6897 34.1229 112.721 41.9518 113.917H44.4851L44.4852 113.917ZM42.1543 122.745C51.1881 120.426 37.8567 111.203 39.259 120.779C39.6517 121.981 40.8987 122.801 42.1543 122.745Z" fill="#0F2700"/>
<path d="M33.0522 115.232C37.9236 111.442 33.7463 102.166 29.6265 107.706C35.1175 109.226 32.2703 114.402 31.3865 115.232H33.0522ZM31.9372 119.455C25.8384 115.888 38.0237 115.167 31.9372 119.455V119.455Z" fill="#0F2700"/>
<path d="M81.6174 87.6103C83.6968 82.3042 89.8223 71.1379 78.6651 72.266C73.2041 72.1869 76.0561 78.6662 80.2113 75.7289C84.7721 78.6045 72.3017 88.8449 81.4601 87.6104L81.6174 87.6103ZM79.7432 94.7092C87.0069 92.844 76.2877 85.428 77.4153 93.1279C77.731 94.0947 78.7336 94.7536 79.7432 94.7092Z" fill="#0F2700"/>
<path d="M94.8508 66.398C97.2548 61.7696 100.981 52.0207 91.4019 54.1304C85.5012 58.4988 99.8237 54.9863 93.3488 61.4298C91.3981 64.0966 90.6255 67.4097 94.8508 66.398ZM93.3256 72.1751C100.128 68.8326 87.6296 66.0023 92.4717 72.009L93.3256 72.1751Z" fill="#0F2700"/>
<path d="M62.6261 115.148C64.5029 111.049 68.5664 102.419 59.5637 104.255C54.3487 108.019 67.0332 105.05 61.2924 110.737C59.6002 113.086 58.8163 116.053 62.6261 115.148ZM61.2719 120.278C54.2938 113.977 68.7588 117.044 61.2719 120.278V120.278Z" fill="#0F2700"/>
<path d="M50.7136 22.6266C52.5952 18.5162 56.6693 9.86415 47.6433 11.7054C42.4154 15.4754 55.1321 12.5034 49.3765 18.2036C47.6789 20.5594 46.8953 23.5334 50.7136 22.6266ZM49.3559 27.7696C42.3598 21.4524 56.8621 24.5271 49.3559 27.7696V27.7696Z" fill="#0F2700"/>
<path d="M43.7282 32.784C47.8005 29.9086 42.6484 23.669 41.623 28.372C47.2918 26.5196 39.1098 33.7381 43.7282 32.784ZM42.9892 35.5836C39.074 33.0018 46.9105 33.0047 42.9892 35.5836V35.5836Z" fill="#0F2700"/>
<path d="M7.36126 13.6127C10.3268 10.8227 8.5811 4.43359 4.81898 7.94839C11.7694 8.31926 1.97622 13.4347 7.36126 13.6127ZM6.55382 16.6712C2.27653 13.8507 10.8378 13.8537 6.55382 16.6712V16.6712Z" fill="#0F2700"/>
<path d="M84.8409 44.2962C88.9131 41.4207 83.7611 35.1811 82.7357 39.8841C88.4045 38.0318 80.2225 45.2502 84.8409 44.2962ZM84.1018 47.0957C80.1867 44.514 88.0231 44.5168 84.1018 47.0957V47.0957Z" fill="#0F2700"/>
<path d="M24.4023 138.036C28.4745 135.161 23.3225 128.921 22.297 133.624C27.9658 131.772 19.7839 138.991 24.4023 138.036ZM23.6632 140.836C19.748 138.254 27.5845 138.257 23.6632 140.836V140.836Z" fill="#0F2700"/>
<path d="M23.9907 191.076C28.0629 188.2 22.9109 181.961 21.8855 186.664C27.5543 184.811 19.3723 192.03 23.9907 191.076ZM23.2516 193.875C19.3365 191.293 27.173 191.296 23.2516 193.875V193.875Z" fill="#0F2700"/>
<path d="M43.7282 225.2C47.8005 222.325 42.6484 216.085 41.623 220.788C47.2918 218.936 39.1098 226.155 43.7282 225.2ZM42.9892 228C39.074 225.418 46.9105 225.421 42.9892 228V228Z" fill="#0F2700"/>
</g>
</svg>
