<svg width="44" height="60" viewBox="0 0 44 60" fill="none" xmlns="http://www.w3.org/2000/svg">
<path d="M31.1511 15.7635C31.1511 15.7635 32.1517 12.215 33.5191 9.41603C43.1844 13.2492 43.2881 22.6816 43.1073 30.4292C45.4579 41.5663 43.6402 56.2642 31.905 59.245C23.0733 61.4882 9.05621 58.8879 2.94197 49.3546C-3.16131 39.8383 0.634328 27.0451 10.61 21.4407C13.7942 17.5123 17.4119 13.1344 21.3332 10.5594C23.6463 10.9712 26.1517 10.6145 28.6799 8.88943C28.6799 8.88943 30.5323 9.16594 30.9282 10.1801C31.4461 11.6995 30.5068 13.8869 29.8323 15.295C30.1936 15.5687 30.6663 15.7301 31.1507 15.7669L31.1511 15.7635Z" fill="#9AC64C"/>
<path d="M29.4688 7.52218C30.7605 8.35599 31.1125 8.49137 30.9435 9.44753C30.6005 11.1352 30.1569 12.081 30.7011 10.3227C30.3052 9.30854 28.6799 8.88943 28.6799 8.88943C26.1517 10.6145 23.6463 10.9712 21.3332 10.5594C14.861 9.41307 9.851 2.27887 9.851 2.27887C9.851 2.27887 13.354 1.13587 20.9271 0.0898892C28.4969 -0.955664 29.4688 7.46491 29.4688 7.46491" fill="#588802"/>
<path d="M27.3433 6.84792C26.9845 6.36623 26.5371 5.98284 26.0627 5.65367C25.5905 5.32111 25.079 5.05464 24.5554 4.82376C24.0266 4.60431 23.4878 4.409 22.9308 4.26793C22.3772 4.11839 21.8134 3.99807 21.2417 3.91673C20.1003 3.7405 18.9378 3.65661 17.7657 3.62738C16.5922 3.59732 15.4112 3.62228 14.2099 3.61975C15.3581 3.26601 16.5446 3.0508 17.7463 2.95251C18.9475 2.85592 20.1677 2.87161 21.3745 3.06267C21.9758 3.16561 22.5758 3.29653 23.161 3.48505C23.7424 3.68247 24.3188 3.91038 24.8535 4.2226C25.3919 4.52424 25.8941 4.89576 26.3326 5.32958C26.7597 5.77143 27.1493 6.26964 27.3433 6.84792Z" fill="#588802"/>
<path d="M30.8025 14.3273C30.8025 14.3273 29.9406 12.9314 28.8798 13.5109C27.781 14.1112 29.4895 15.5736 30.5166 15.7897C31.5437 16.0057 33.3095 15.913 33.0722 14.9869C32.8972 14.3057 32.5228 14.043 30.8025 14.3273Z" fill="#588802"/>
<path d="M33.5191 9.41603C32.1517 12.215 31.1511 15.7635 31.1511 15.7635L31.1507 15.7669C30.6663 15.7301 30.1936 15.5687 29.8323 15.295C29.8323 15.295 30.0511 13.1835 30.5588 10.6692C30.5588 10.6692 30.5588 10.6692 30.5588 10.6662C30.5643 10.6404 30.6014 10.4904 30.6414 10.2629C30.6414 10.2599 30.6414 10.257 30.6414 10.257C31.0685 8.23198 31.6761 6.01757 32.4987 4.46195C32.4987 4.46195 32.5675 1.04062 36.5292 3.53757C39.1548 5.1936 36.3483 5.57952 35.1935 6.78605C34.6057 7.39991 34.0348 8.35565 33.5191 9.41603Z" fill="#795E36"/>
<path d="M30.8554 21.8863C30.8554 22.7561 30.2546 23.4621 29.5114 23.4621C28.7693 23.4621 28.1675 22.7571 28.1675 21.8863C28.1675 21.0175 28.7693 20.3126 29.5114 20.3126C30.2546 20.3126 30.8554 21.0175 30.8554 21.8863Z" fill="#588802"/>
<path d="M39.8252 25.7783C39.8252 26.6481 39.2244 27.354 38.4813 27.354C37.7391 27.354 37.1373 26.6491 37.1373 25.7783C37.1373 24.9095 37.7391 24.2045 38.4813 24.2045C39.2244 24.2041 39.8252 24.9095 39.8252 25.7783Z" fill="#588802"/>
<path d="M42.2405 37.1946C42.2405 38.0644 41.6397 38.7703 40.8965 38.7703C40.1544 38.7703 39.5525 38.0654 39.5525 37.1946C39.5525 36.3248 40.1544 35.6189 40.8965 35.6189C41.6387 35.6189 42.2405 36.3238 42.2405 37.1946Z" fill="#588802"/>
<path d="M36.8924 20.4449C36.8924 21.3147 36.2916 22.0206 35.5485 22.0206C34.8063 22.0206 34.2045 21.3157 34.2045 20.4449C34.2045 19.5751 34.8063 18.8692 35.5485 18.8692C36.2916 18.8696 36.8924 19.5751 36.8924 20.4449Z" fill="#588802"/>
<path d="M38.1169 32.9312C38.1169 33.801 37.5161 34.507 36.7729 34.507C36.0308 34.507 35.429 33.802 35.429 32.9312C35.429 32.0615 36.0308 31.3555 36.7729 31.3555C37.5151 31.3555 38.1169 32.0605 38.1169 32.9312Z" fill="#588802"/>
<path d="M34.2593 28.4912C34.2593 29.361 33.6585 30.0669 32.9154 30.0669C32.1732 30.0669 31.5714 29.362 31.5714 28.4912C31.5714 27.6214 32.1732 26.9154 32.9154 26.9154C33.6585 26.9159 34.2593 27.6214 34.2593 28.4912Z" fill="#588802"/>
<path d="M11.8525 25.0688C14.9411 22.9201 15.262 22.4469 17.3166 20.4359C18.9205 18.8667 20.2812 19.5005 19.5437 24.2885C18.8484 28.7986 18.3939 34.4614 12.7671 32.4902C7.47042 30.6342 9.6697 26.5876 11.8525 25.0688Z" fill="#588802"/>
</svg>
