<svg width="61" height="90" viewBox="0 0 61 90" fill="none" xmlns="http://www.w3.org/2000/svg">
<path fill-rule="evenodd" clip-rule="evenodd" d="M0.865747 66.9444C1.66681 68.1567 2.94245 68.8114 4.05242 69.7451C4.98757 70.5317 5.89298 71.4087 6.86811 72.2031C7.82433 72.9824 8.7871 73.7418 9.70688 74.5868C11.3246 76.0739 12.9086 77.2845 15.0794 78.5463C17.0413 79.6864 19.8961 81.0087 22.5609 81.8702C23.6572 82.2244 24.7102 82.2121 25.736 82.4108C27.0906 82.6735 28.2921 83.2967 29.6988 83.4884C30.8443 83.6444 32.1565 83.5726 33.4027 83.6091C34.5684 83.6433 35.7777 83.5721 36.8829 83.4272C37.9784 83.2832 39.0659 82.9151 40.1351 82.6996C42.2504 82.2735 44.1616 81.976 45.2531 79.8198C44.3448 79.404 43.4682 79.0656 42.6884 79.3643C42.2982 79.5138 41.8408 80.0052 41.4368 80.3136C40.2454 81.2222 38.7068 81.7822 37.4778 82.5413C36.9682 82.4874 36.7277 82.9391 36.1414 82.7421C36.4576 82.4303 36.9373 82.4896 37.304 82.3328C37.6061 82.2038 37.8874 81.9092 38.1962 81.7693C38.5133 81.6257 38.8721 81.6082 39.1658 81.4687C40.4572 80.8575 41.5856 79.9476 42.7077 79.0471C41.9424 78.8633 41.1165 78.8144 40.3632 78.6514C40.0191 78.5769 39.6751 78.3688 39.3357 78.372C38.98 78.3754 38.6741 78.6883 38.3933 78.8412C38.0402 79.0329 37.7458 79.1505 37.451 79.31C36.8516 80.2907 35.7378 80.7459 34.7547 81.3174C34.2336 81.6203 33.2914 82.2385 32.6265 82.2699C31.8287 82.307 30.871 82.3049 30.0464 82.3739C29.3064 82.4359 28.8054 82.5267 28.1537 82.8266C29.6191 81.6849 32.3616 82.4039 34.0516 81.5291C34.4268 81.3347 34.7822 80.9954 35.1603 80.7829C35.5248 80.5775 35.97 80.4358 36.2958 80.205C36.6942 79.9228 36.9852 79.4861 37.4236 79.1417C37.8028 78.8438 38.3739 78.682 38.7252 78.2868C37.2563 77.8239 36.2612 77.7237 34.7893 77.3778C32.9753 78.3953 31.243 79.842 29.2158 80.6978C28.5661 80.9718 27.7822 81.2893 27.1069 81.3332C26.6063 81.3656 26.0788 81.1995 25.5466 81.2311C25.3322 81.244 25.0864 81.356 24.8667 81.3688C24.1027 81.4131 23.4937 81.4364 22.777 81.6871C23.7359 80.8418 25.5294 81.2214 26.9564 81.0504C28.6983 80.8416 29.9255 80.0107 31.3865 79.3535C32.3302 78.5336 33.4184 77.9853 34.3722 77.1838C32.6885 76.5761 31.1096 76.1621 29.6253 75.8124C28.636 76.288 27.5623 76.6625 26.6782 77.3483C24.7215 78.8667 22.3494 79.6623 19.7336 80.2148C19.8275 79.943 20.3418 79.7358 20.6258 79.6518C21.481 79.3972 22.2733 79.362 23.0283 79.0961C25.1427 78.3502 27.0455 76.7665 29.1115 75.673C27.8495 75.4276 26.4509 74.8923 25.1989 74.6898C23.5933 74.43 22.3638 75.764 20.9579 76.0347C19.5525 77.3627 17.9921 78.3993 16.0064 78.6372C16.5025 78.2732 17.1267 78.1493 17.7753 78.0706C18.09 77.6977 18.6353 77.4748 19.0769 77.2157C19.5043 76.9648 20.0088 76.7771 20.2088 76.3951C19.0838 76.6788 17.6722 76.8052 16.296 76.9431C15.4483 77.028 14.7315 77.0909 14.0404 77.5386C14.0712 77.1686 14.8607 76.831 15.2454 76.738C16.2853 76.4875 17.6187 76.6955 18.7487 76.4817C19.0084 76.4327 19.3239 76.307 19.6216 76.2356C21.0615 75.8908 22.6833 75.0821 23.8549 74.405C22.8583 74.1137 21.9234 73.7702 20.8925 73.4383C20.2311 73.2253 19.4508 72.879 19.0075 72.8451C18.2391 72.7866 17.6845 73.3758 16.9681 73.2576C14.9576 74.3132 12.6285 74.771 9.94991 74.5733C10.5927 74.1056 11.4351 74.2956 12.1131 74.2747C14.3141 74.2067 16.2397 73.2498 18.2504 72.72C18.1274 72.4698 17.949 72.4265 17.7328 72.3374C16.7872 71.9472 15.2872 71.6731 14.3069 71.3253C14.0724 71.2422 13.8704 71.1003 13.6697 71.0715C13.1793 71.0009 12.6917 71.2929 12.1169 71.4551C10.6533 71.8691 8.82282 71.8422 7.3543 72.1752C7.97468 71.5458 9.11294 71.6569 10.0968 71.5506C11.0523 71.4475 12.0322 71.3541 12.7658 70.9063C11.9805 70.2497 11.0195 70.2109 10.0465 69.9251C9.68829 69.8197 9.3706 69.575 9.04237 69.5714C8.65563 69.5671 8.38056 69.9201 7.92995 70.075C6.98742 70.3988 5.88136 70.2765 4.96358 70.3967C5.66876 69.9309 6.75986 70.1252 7.58618 69.9009C7.9241 69.8092 8.41818 69.6701 8.47836 69.3375C5.89741 68.6386 3.85619 68.2729 1.33287 67.2334C1.72711 66.9777 1.99696 67.3248 2.31 67.4185C3.84354 67.8773 5.33033 68.279 7.12644 68.567C6.66432 67.9082 5.55772 67.6123 5.07944 66.9626C3.75571 67.1072 2.18823 66.7959 0.865747 66.9444Z" fill="#76BD4D"/>
<path fill-rule="evenodd" clip-rule="evenodd" d="M5.32319 66.9476C7.05311 68.3459 8.75918 69.309 11.5299 69.7635C10.8848 68.7178 9.75448 67.9452 8.59053 67.1912C10.5386 67.4862 11.0714 69.4268 12.7543 70.177C13.6351 70.5697 14.6334 70.7293 15.7902 71.1637C15.7181 70.7356 15.4262 70.428 15.1644 70.107C14.8919 69.7727 14.5695 69.5858 14.2262 69.2877C13.7087 68.839 13.3529 68.1226 12.8123 67.6944C12.5532 67.4892 12.1013 67.4765 11.951 67.1378C12.9921 67.1333 13.4094 68.1491 13.9982 68.7422C14.3674 69.114 14.8419 69.3484 15.2071 69.7156C15.7724 70.2843 15.9974 71.1212 16.7211 71.4973C17.8472 72.083 19.1902 72.0513 20.6375 72.7235C20.8359 72.4912 20.5192 72.2843 20.4329 72.1037C19.8505 70.8875 19.2165 69.892 18.0188 68.8684C17.6744 68.574 17.4332 68.301 17.0301 67.9548C16.7552 67.7188 16.325 67.4866 15.9216 67.1699C15.7705 67.0512 15.4415 66.8354 15.4734 66.5644C14.5281 66.7131 13.5245 66.692 12.4569 66.7918C12.157 66.8198 11.8295 66.9435 11.5337 66.9437C10.9919 66.9441 10.448 66.7766 9.92309 66.7475C8.38314 66.6626 6.84673 66.75 5.32319 66.9476Z" fill="#76BD4D"/>
<path fill-rule="evenodd" clip-rule="evenodd" d="M9.69928 69.5075C10.9933 69.9694 13.3554 70.6475 15.037 71.2813C14.8472 70.834 13.9887 70.7982 13.1985 70.5395C12.1579 70.1988 10.9419 69.658 9.69928 69.5075Z" fill="#76BD4D"/>
<path fill-rule="evenodd" clip-rule="evenodd" d="M15.6437 66.5301C15.6104 66.5896 15.6502 66.608 15.6938 66.6243C17.0811 67.6555 18.7113 68.8199 19.6953 70.1302C20.3554 71.0091 20.5824 72.1637 21.5184 72.963C23.4666 73.4206 24.8633 73.9546 26.7518 74.3055C26.7063 72.2357 24.7787 71.0755 23.3646 69.5966C23.1641 69.3869 23.0605 69.1215 22.8665 68.897C22.6014 68.5908 22.2221 68.2262 21.9006 67.909C21.3301 67.3461 20.6735 66.9882 20.124 66.4589C21.4111 66.7553 22.2093 67.8527 22.9861 68.7683C24.2471 70.2545 25.8611 71.3875 26.829 73.037C26.9059 73.5451 27.0307 74.026 27.2654 74.4451C28.783 74.725 30.9673 75.3871 32.7927 75.8674C32.5797 74.9226 31.8978 74.2365 31.294 73.5257C29.811 71.7804 28.5399 69.9414 26.5355 68.3634C25.8174 67.7981 25.1441 67.2358 24.1949 66.6794C25.426 66.9299 26.3199 67.8617 27.196 68.543C28.9626 69.9168 30.0525 71.7463 31.414 73.3971C32.0914 74.2188 32.8674 74.9837 33.233 75.9871C34.6988 76.4196 36.2219 76.7446 37.4894 77.1445C36.1448 75.6554 35.558 73.5191 34.4574 71.807C34.0179 71.1228 33.4553 70.4667 32.9164 69.8567C32.3691 69.2372 31.6638 68.7524 31.0855 68.0694C34.8227 70.3152 35.3124 74.3882 38.0262 77.2099C38.8934 77.5027 39.6055 77.5044 40.421 77.6999C40.5171 77.3269 40.1923 77.1013 40.0655 76.7973C39.9459 76.5106 39.9261 76.1467 39.8068 75.8404C39.7709 75.7487 39.6633 75.7505 39.633 75.632C39.5123 75.1629 39.2874 74.6069 39.073 74.1097C38.4162 72.5876 37.6889 71.1534 36.377 69.9918C36.797 70.1484 37.1826 70.5323 37.4623 70.8511C39.1399 72.7626 39.6228 75.6253 40.9578 77.7654C41.8041 77.9009 42.6924 78.1158 43.5224 78.2209C43.3066 76.6479 42.5854 75.3592 41.5837 74.2283C41.949 74.135 42.0394 74.5968 42.2014 74.7992C42.7699 75.5092 43.2518 76.3848 43.6767 77.2152C43.6749 77.5838 43.7037 77.9352 43.9355 78.1721C44.2755 78.3671 44.9677 78.4457 45.3763 78.4027C45.2037 77.1115 44.2523 76.2584 43.6692 75.1983C43.1455 74.8618 42.7502 74.3324 42.3327 73.8678C41.9023 73.3888 41.4873 72.996 40.9965 72.5374C39.853 71.4694 38.8413 70.12 37.3657 69.3742C35.3687 68.3649 32.8885 68.0983 30.7338 67.4097C29.6532 67.0643 27.8695 66.4576 26.211 66.3411C25.6997 66.3052 25.0439 66.4029 24.3842 66.3279C22.7821 66.1459 21.386 65.9858 19.9232 66.082C18.4365 66.1797 17.0624 66.3358 15.6437 66.5301Z" fill="#76BD4D"/>
<path fill-rule="evenodd" clip-rule="evenodd" d="M15.1568 71.1527C15.1178 71.2358 15.1319 71.2893 15.1839 71.3213C18.2026 72.3783 21.3024 73.2506 24.388 74.2269C26.087 74.7642 27.8616 75.0102 29.5715 75.4751C32.7014 76.3262 35.8881 77.3467 39.2584 78.1091C42.686 78.8846 45.9164 79.4232 49.3083 80.6C49.6716 80.7261 50.1407 81.0329 50.529 80.7708C50.6853 80.254 50.1132 80.1472 49.8569 79.8626C48.4086 79.8582 47.1122 79.1057 45.724 78.8194C45.224 78.7163 44.6983 78.7483 44.1868 78.6433C42.4784 78.292 40.7925 78.128 39.1309 77.752C36.7963 77.224 34.5086 76.5688 32.0858 75.8364C29.5432 75.0678 26.7573 74.6139 24.0172 73.8843C21.1066 73.1093 18.2172 72.194 15.377 71.2125L15.1568 71.1527Z" fill="#76BD4D"/>
<path fill-rule="evenodd" clip-rule="evenodd" d="M0.0354874 66.7993C0.0770179 67.0493 0.370033 67.1355 0.529977 67.256C0.867863 67.5111 1.16099 67.8461 1.51864 68.1697C2.00084 68.6052 2.49596 69.0367 3.02499 69.4657C3.36434 69.7409 3.78466 69.9627 4.13355 70.2505C4.7951 70.7974 5.38354 71.4759 6.03765 72.0578C6.12774 72.1381 6.27812 72.1396 6.3815 72.232C6.83034 72.6327 7.59934 73.242 8.13495 73.7564C9.39131 74.9635 10.6696 76.2587 12.1362 77.2623C12.4712 77.4912 12.8757 77.5949 13.241 77.8043C14.0632 78.2766 15.0183 79.0104 16.0451 79.5342C16.7469 79.8922 17.5192 80.226 18.2777 80.544C19.02 80.8551 19.6934 81.2563 20.4367 81.5339C21.8486 82.062 23.2691 82.4002 24.643 82.5971C26.1074 82.8071 27.3874 83.3193 28.9225 83.6801C30.1411 83.9671 31.6831 83.8598 33.067 83.9206C35.8924 84.0446 37.898 83.482 40.5293 82.9678C41.92 82.696 43.3801 82.3378 44.3298 81.5029C44.7505 81.1329 45.2299 80.5232 45.5695 79.8252C46.9571 80.0645 48.0289 80.5036 49.3626 80.9371C49.5688 81.0041 49.7796 81.0896 50.0229 81.1166C50.1806 81.1341 50.5259 81.2683 50.6796 81.0534C51.3439 80.3362 50.5472 80.1132 50.3166 79.6652C48.9403 79.3616 47.1698 79.3182 46.1335 78.5278C45.5933 78.1159 45.4916 77.3003 45.1796 76.7372C44.7402 75.9447 44.0552 75.1913 43.4142 74.4842C41.8755 72.7861 40.2281 70.909 38.0496 69.4794C37.6108 69.1915 37.1585 68.7945 36.7209 68.6346C36.3782 68.5095 35.9369 68.5065 35.597 68.4095C33.9908 67.9512 32.3775 67.482 30.7766 67.0183C29.2411 66.5735 27.6971 66.0413 26.1805 65.9298C23.2088 65.7111 20.5416 65.4961 17.6057 65.8548C14.7732 66.2007 12.0276 66.4849 9.30938 66.4195C8.60449 66.4026 7.8963 66.3853 7.16552 66.4007C5.85774 66.4283 4.45588 66.6074 2.97858 66.5518C1.99316 66.5147 0.631103 66.2402 0.0354874 66.7993ZM5.07978 66.9619C5.55818 67.6116 6.66466 67.9075 7.12678 68.5663C5.33068 68.2783 3.84388 67.8766 2.31034 67.4178C1.99731 67.3241 1.72746 66.977 1.33322 67.2327C3.85654 68.2723 5.89775 68.6379 8.47871 69.3368C8.41849 69.6696 7.92445 69.8085 7.58653 69.9003C6.76016 70.1246 5.66907 69.9303 4.96392 70.396C5.88182 70.2759 6.9878 70.398 7.93029 70.0743C8.38079 69.9194 8.65598 69.5664 9.04271 69.5707C9.3709 69.5745 9.68859 69.8192 10.0468 69.9244C11.0198 70.2102 11.9807 70.2489 12.7661 70.9056C12.0325 71.3534 11.0527 71.4467 10.0971 71.5499C9.11321 71.6561 7.97503 71.5451 7.35465 72.1745C8.82317 71.8415 10.6536 71.8684 12.1173 71.4544C12.6921 71.2921 13.1796 71.0002 13.67 71.0708C13.8707 71.0996 14.0728 71.2415 14.3072 71.3246C15.2876 71.6724 16.7875 71.9466 17.7332 72.3367C17.9494 72.4257 18.1278 72.4691 18.2508 72.7193C16.2398 73.2492 14.3143 74.2059 12.1134 74.2741C11.4354 74.2949 10.593 74.1049 9.95025 74.5726C12.6288 74.7703 14.958 74.3125 16.9685 73.2569C17.6847 73.3751 18.2393 72.786 19.0078 72.8444C19.4512 72.8783 20.2315 73.2246 20.8928 73.4376C21.9238 73.7697 22.8586 74.113 23.8553 74.4043C22.6837 75.0814 21.0618 75.8901 19.622 76.2349C19.3243 76.3063 19.0086 76.4319 18.7491 76.4811C17.619 76.6948 16.2857 76.4868 15.2457 76.7373C14.8611 76.8303 14.0716 77.168 14.0407 77.5379C14.7319 77.0902 15.4487 77.0273 16.2963 76.9424C17.6725 76.8046 19.0841 76.6781 20.2092 76.3945C20.0092 76.7764 19.5048 76.9642 19.0773 77.215C18.6356 77.4741 18.0903 77.697 17.7757 78.0699C17.1272 78.1487 16.5028 78.2725 16.0067 78.6365C17.9924 78.3986 19.5529 77.3619 20.9582 76.034C22.3642 75.7633 23.5937 74.4292 25.1992 74.6891C26.4513 74.8916 27.8498 75.427 29.1119 75.6723C27.0459 76.7659 25.1431 78.3497 23.0286 79.0954C22.2736 79.3614 21.4813 79.3966 20.6261 79.6511C20.3421 79.7351 19.8278 79.9424 19.7339 80.2142C22.3498 79.6617 24.722 78.8661 26.6786 77.3477C27.5626 76.6619 28.6362 76.2873 29.6257 75.8117C31.1099 76.1614 32.6888 76.5755 34.3726 77.1831C33.4189 77.9847 32.3307 78.5329 31.3868 79.3528C29.9258 80.0101 28.6986 80.8409 26.9567 81.0497C25.5298 81.2208 23.7363 80.8411 22.7774 81.6864C23.4942 81.4359 24.103 81.4124 24.867 81.3681C25.0868 81.3554 25.3325 81.2433 25.547 81.2304C26.0792 81.1988 26.6066 81.3649 27.1073 81.3325C27.7825 81.2886 28.5664 80.9711 29.2162 80.6971C31.2434 79.8413 32.9755 78.3946 34.7896 77.3771C36.2614 77.7229 37.2566 77.823 38.7256 78.2861C38.3742 78.6813 37.8031 78.8433 37.424 79.141C36.9855 79.4854 36.6947 79.9221 36.2962 80.2043C35.9704 80.4351 35.5251 80.5768 35.1607 80.7822C34.7824 80.9947 34.427 81.334 34.052 81.5284C32.3619 82.4032 29.6194 81.6844 28.154 82.8259C28.8058 82.526 29.3068 82.4352 30.0468 82.3732C30.8714 82.3043 31.829 82.3063 32.6269 82.2692C33.2918 82.2378 34.2339 81.6195 34.755 81.3167C35.7382 80.7453 36.8519 80.2902 37.4513 79.3093C37.7462 79.1498 38.0406 79.0322 38.3936 78.8405C38.6746 78.6876 38.9803 78.3748 39.3361 78.3713C39.6755 78.3681 40.0194 78.5762 40.3635 78.6507C41.1167 78.8138 41.9426 78.8626 42.708 79.0464C41.5861 79.9469 40.4575 80.8568 39.1661 81.468C38.8724 81.6075 38.5137 81.625 38.1965 81.7686C37.8877 81.9085 37.6064 82.2031 37.3044 82.3321C36.9376 82.4889 36.458 82.4296 36.1418 82.7414C36.728 82.9384 36.9685 82.4868 37.4781 82.5406C38.7071 81.7813 40.2457 81.2215 41.4371 80.3129C41.8411 80.0046 42.2985 79.5131 42.6888 79.3636C43.4685 79.065 44.345 79.4033 45.2534 79.8191C44.162 81.9753 42.2508 82.2728 40.1355 82.6989C39.0662 82.9143 37.9787 83.2825 36.8833 83.4265C35.7781 83.5714 34.5687 83.6426 33.4031 83.6084C32.1568 83.5719 30.8447 83.6437 29.6991 83.4877C28.2925 83.296 27.0911 82.6728 25.7363 82.4102C24.7107 82.2114 23.6576 82.2238 22.5613 81.8695C19.8965 81.0081 17.0416 79.6857 15.0798 78.5456C12.909 77.2838 11.325 76.0732 9.70723 74.5861C8.78745 73.7411 7.82467 72.9817 6.86846 72.2024C5.89332 71.408 4.98788 70.5311 4.05276 69.7444C2.94276 68.8108 1.66727 68.156 0.866092 66.9437C2.18823 66.7959 3.75571 67.1072 5.07978 66.9619ZM9.92309 66.7475C10.448 66.7766 10.9919 66.9441 11.5337 66.9437C11.8295 66.9435 12.157 66.8198 12.4569 66.7918C13.5245 66.692 14.5281 66.7131 15.4734 66.5644C15.4415 66.8354 15.7705 67.0512 15.9216 67.1699C16.325 67.4866 16.7552 67.7188 17.0301 67.9548C17.4332 68.301 17.6744 68.574 18.0188 68.8684C19.2165 69.892 19.8505 70.8875 20.4329 72.1037C20.5192 72.2843 20.8359 72.4912 20.6375 72.7235C19.1902 72.0513 17.8472 72.083 16.7211 71.4973C15.9974 71.1212 15.7724 70.2843 15.2071 69.7156C14.8419 69.3484 14.3674 69.114 13.9982 68.7422C13.4094 68.1491 12.9921 67.1333 11.951 67.1378C12.1013 67.4765 12.5532 67.4892 12.8123 67.6944C13.3529 68.1226 13.7087 68.839 14.2262 69.2877C14.5695 69.5858 14.8919 69.7727 15.1644 70.107C15.4262 70.428 15.7181 70.7356 15.7902 71.1637C14.6334 70.7293 13.6351 70.5697 12.7543 70.177C11.0714 69.4268 10.5386 67.4862 8.59053 67.1912C9.75448 67.9452 10.8848 68.7178 11.5299 69.7635C8.75918 69.309 7.05311 68.3459 5.32319 66.9476C6.84673 66.75 8.38314 66.6626 9.92309 66.7475ZM13.1985 70.5395C13.9887 70.7982 14.8472 70.834 15.037 71.2813C13.3554 70.6475 10.9933 69.9694 9.69928 69.5075C10.9419 69.658 12.1579 70.1988 13.1985 70.5395ZM19.9232 66.082C21.386 65.9858 22.7821 66.1459 24.3842 66.3279C25.0439 66.4029 25.6997 66.3052 26.211 66.3411C27.8695 66.4576 29.6532 67.0643 30.7338 67.4097C32.8885 68.0983 35.3687 68.3649 37.3657 69.3742C38.8413 70.12 39.853 71.4694 40.9965 72.5374C41.4873 72.996 41.9023 73.3888 42.3327 73.8678C42.7502 74.3324 43.1455 74.8618 43.6692 75.1983C44.2523 76.2584 45.2037 77.1115 45.3763 78.4027C44.9677 78.4457 44.2755 78.3671 43.9355 78.1721C43.7037 77.9352 43.6749 77.5838 43.6767 77.2152C43.2518 76.3848 42.7699 75.5092 42.2014 74.7992C42.0394 74.5968 41.949 74.135 41.5837 74.2283C42.5854 75.3592 43.3066 76.6479 43.5224 78.2209C42.6924 78.1158 41.8041 77.9009 40.9578 77.7654C39.6228 75.6253 39.1399 72.7626 37.4623 70.8511C37.1826 70.5323 36.797 70.1484 36.377 69.9918C37.6889 71.1534 38.4162 72.5876 39.073 74.1097C39.2874 74.6069 39.5123 75.1629 39.633 75.632C39.6633 75.7505 39.7709 75.7487 39.8068 75.8404C39.9261 76.1467 39.9459 76.5106 40.0655 76.7973C40.1923 77.1013 40.5171 77.3269 40.421 77.6999C39.6055 77.5044 38.8934 77.5027 38.0262 77.2099C35.3124 74.3882 34.8227 70.3152 31.0855 68.0694C31.6638 68.7524 32.3691 69.2372 32.9164 69.8567C33.4553 70.4667 34.0179 71.1228 34.4574 71.807C35.558 73.5191 36.1448 75.6554 37.4894 77.1445C36.2219 76.7446 34.6988 76.4196 33.233 75.9871C32.8674 74.9837 32.0914 74.2188 31.414 73.3971C30.0525 71.7463 28.9626 69.9168 27.196 68.543C26.3199 67.8617 25.426 66.9299 24.1949 66.6794C25.1441 67.2358 25.8174 67.7981 26.5355 68.3634C28.5399 69.9414 29.811 71.7804 31.294 73.5257C31.8978 74.2365 32.5797 74.9226 32.7927 75.8674C30.9673 75.3871 28.783 74.725 27.2654 74.4451C27.0307 74.026 26.9059 73.5451 26.829 73.037C25.8611 71.3875 24.2471 70.2545 22.9861 68.7683C22.2093 67.8527 21.4111 66.7553 20.124 66.4589C20.6735 66.9882 21.3301 67.3461 21.9006 67.909C22.2221 68.2262 22.6014 68.5908 22.8665 68.897C23.0605 69.1215 23.1641 69.3869 23.3646 69.5966C24.7787 71.0755 26.7063 72.2357 26.7518 74.3055C24.8633 73.9546 23.4666 73.4206 21.5184 72.963C20.5824 72.1637 20.3554 71.0091 19.6953 70.1302C18.7113 68.8199 17.0811 67.6555 15.6938 66.6243C15.6502 66.608 15.6104 66.5896 15.6437 66.5301C17.0624 66.3358 18.4365 66.1797 19.9232 66.082ZM15.377 71.2125C18.2172 72.194 21.1066 73.1093 24.0172 73.8843C26.7573 74.6139 29.5432 75.0678 32.0858 75.8364C34.5086 76.5688 36.7963 77.224 39.1309 77.752C40.7925 78.128 42.4784 78.292 44.1868 78.6433C44.6983 78.7483 45.224 78.7163 45.724 78.8194C47.1122 79.1057 48.4086 79.8582 49.8569 79.8626C50.1132 80.1472 50.6853 80.254 50.529 80.7708C50.1407 81.0329 49.6716 80.7261 49.3083 80.6C45.9164 79.4232 42.686 78.8846 39.2584 78.1091C35.8881 77.3467 32.7014 76.3262 29.5715 75.4751C27.8616 75.0102 26.087 74.7642 24.388 74.2269C21.3024 73.2506 18.2026 72.3783 15.1839 71.3213C15.1319 71.2893 15.1178 71.2358 15.1568 71.1527L15.377 71.2125Z" fill="#296308"/>
<path fill-rule="evenodd" clip-rule="evenodd" d="M27.079 1.60404C26.1372 4.12958 26.4795 6.70319 26.2519 9.35571C26.0601 11.5905 25.7078 13.8851 25.545 16.1862C25.3851 18.4428 25.2604 20.6863 24.9688 22.9653C24.4545 26.9747 24.3056 30.6216 24.675 35.1688C25.0091 39.2781 25.9816 44.8755 27.4277 49.6771C28.0228 51.6523 29.1036 53.1491 29.8521 54.8466C30.8402 57.0885 31.1533 59.52 32.2964 61.7559C33.2275 63.5768 34.6557 65.3781 35.861 67.2078C36.9882 68.9191 38.3119 70.5736 39.6366 71.9949C40.9503 73.4034 42.5796 74.546 43.9701 75.8356C46.7206 78.3871 49.0794 80.7918 53.2945 79.9102C52.978 78.135 52.5818 76.4931 51.3633 75.7132C50.7535 75.323 49.5823 75.2244 48.7292 74.9949C46.2146 74.3167 43.853 72.7447 41.5162 71.8429C41.0798 71.0505 40.1847 71.2182 39.8774 70.1533C40.6468 70.253 41.0454 71.0086 41.642 71.3568C42.1331 71.6439 42.8425 71.7131 43.3561 71.9974C43.8836 72.2894 44.2711 72.7843 44.769 73.0474C46.9551 74.2066 49.4079 74.793 51.8407 75.3808C51.3337 74.0741 50.5706 72.8336 50.0455 71.5675C49.8057 70.9893 49.759 70.2595 49.4118 69.7761C49.0477 69.2695 48.2872 69.1858 47.7829 68.9564C47.1497 68.6674 46.6828 68.3785 46.1549 68.1364C44.1338 68.3897 42.3524 67.3082 40.5346 66.5462C39.5713 66.1425 37.7276 65.4922 37.0112 64.5738C36.1523 63.4711 35.1885 62.0946 34.2565 60.9897C33.42 59.9983 32.7833 59.3824 31.6922 58.7877C34.8199 59.5945 36.5501 64.3458 39.5194 65.7777C40.1787 66.0954 41.0273 66.2202 41.7159 66.5216C42.3803 66.8114 43.0345 67.2894 43.6966 67.4949C44.5062 67.7462 45.4304 67.6679 46.3703 67.9062C47.1831 68.1122 47.9933 68.7478 48.9185 68.8034C48.1041 66.1701 47.2443 64.6285 46.258 62.1239C42.9576 60.6761 39.1202 59.8326 35.8382 57.8953C34.7866 57.274 33.5369 56.5096 32.792 55.5905C32.2398 54.9089 31.9472 53.9635 31.3644 53.2357C31.1293 52.9428 30.7194 52.7173 30.4791 52.4164C29.6441 51.3704 28.9956 50.5232 27.9102 49.7793C30.0987 50.1957 31.361 53.2001 33.0483 55.0534C35.1081 57.3159 37.5466 58.1336 39.9703 59.484C42.1069 59.9074 43.9969 60.8465 46.117 61.3053C45.295 58.1995 44.2989 55.4639 43.3055 52.9373C41.6201 52.0576 39.9956 50.942 38.1129 50.452C33.9455 49.3679 30.4021 46.8672 26.9638 43.7411C27.4511 43.5672 28.2694 44.07 28.6774 44.3822C29.9083 45.3203 30.7589 46.4172 31.9049 47.1987C35.1162 49.386 39.3238 50.3185 42.9882 52.0418C42.0684 49.9523 41.4297 47.3379 40.4583 45.3115C39.2127 42.7128 36.0454 42.463 34.2353 40.7527C30.8993 40.2437 27.8273 39.1813 25.4793 36.6022C26.5058 36.9008 27.3147 37.6559 28.0831 38.4972C28.9392 38.5254 29.8114 39.0549 30.6314 39.3944C31.4251 39.7229 32.2054 40.2337 32.9587 40.0871C31.4135 38.7948 29.8062 36.9128 28.2178 35.0946C27.2396 33.9747 26.4252 33.0176 25.081 32.5342C25.6465 32.1583 26.9309 32.908 27.4535 33.3543C28.8649 34.5622 29.9104 36.7116 31.3598 38.0904C31.6928 38.4073 32.1928 38.7173 32.5964 39.0635C34.5477 40.7381 37.3525 42.1472 39.5128 43.0598C38.9273 41.299 38.4797 39.5677 37.9182 37.7116C37.5581 36.5209 37.2705 35.0082 36.872 34.3335C36.1808 33.1646 34.7702 33.0377 34.2177 31.8756C30.6641 30.189 27.652 27.3665 25.2336 23.2986C26.5578 23.6901 27.1337 25.1145 27.8482 26.0637C30.1683 29.1446 33.4936 30.8215 36.2884 33.1052C36.5254 32.6448 36.4078 32.3396 36.3183 31.9282C35.9271 30.1284 34.8089 27.665 34.3214 25.8635C34.2048 25.4327 34.2057 24.9818 34.0446 24.6611C33.6516 23.8773 32.7378 23.5091 31.9235 22.8685C29.8481 21.2383 28.0393 18.5812 26.0761 16.8521C27.6111 17.0279 28.5996 18.7873 29.7463 20.0782C30.8597 21.3323 31.9837 22.6322 33.3708 23.1765C33.5261 21.3044 32.6121 19.8815 32.0425 18.1609C31.8331 17.5273 31.8658 16.7937 31.5396 16.3186C31.1555 15.7588 30.3681 15.7649 29.6897 15.294C28.2706 14.3092 27.3307 12.5834 26.2308 11.4028C27.6151 11.886 28.436 13.6721 29.5939 14.6032C30.0674 14.984 30.767 15.5351 31.308 15.2438C29.7119 10.7471 28.1794 7.40311 27.1333 2.60238C27.9004 2.87784 27.6716 3.65902 27.8523 4.21463C28.7379 6.93583 29.6587 9.52515 31.0559 12.4293C31.5406 11.0184 30.8509 9.09466 31.3061 7.67091C29.7611 5.93568 28.6284 3.33307 27.079 1.60404Z" fill="#76BD4D"/>
<path fill-rule="evenodd" clip-rule="evenodd" d="M31.5739 8.00359C31.3011 12.0731 31.6327 15.6144 33.7733 20.1061C34.632 17.9934 34.6066 15.4944 34.5203 12.9684C36.0608 16.0986 33.7965 19.0659 34.4122 22.3323C34.7343 24.042 35.5116 25.6556 36.0521 27.8086C36.5973 27.2191 36.7469 26.4512 36.9462 25.7111C37.1538 24.9405 37.0982 24.2657 37.182 23.4347C37.3075 22.1829 37.9828 20.8592 38.0553 19.5974C38.09 18.9926 37.6523 18.3298 37.9896 17.7298C39.047 19.2185 38.0016 20.9702 37.7394 22.4884C37.5754 23.4402 37.7159 24.3871 37.5543 25.3281C37.3038 26.7847 36.3226 28.0576 36.51 29.5229C36.8011 31.8036 38.2026 33.6946 38.6929 36.5343C39.2287 36.5554 39.2077 35.8662 39.3813 35.5373C40.5495 33.3211 41.3468 31.2813 41.6159 28.4008C41.6933 27.5725 41.844 26.9165 41.9371 25.945C42.0003 25.2828 41.9013 24.4018 41.9514 23.4635C41.9701 23.112 41.9497 22.3949 42.3732 22.133C41.2041 20.9455 40.2217 19.4814 38.9999 18.0628C38.6566 17.6643 38.1476 17.3348 37.8486 16.9106C37.3011 16.1335 36.994 15.163 36.5061 14.3768C35.0743 12.0708 33.3971 9.96545 31.5739 8.00359Z" fill="#76BD4D"/>
<path fill-rule="evenodd" clip-rule="evenodd" d="M32.295 17.1887C32.9344 19.5697 34.3396 23.7289 35.122 26.8613C35.5763 26.0811 34.7612 24.8087 34.3372 23.3812C33.7787 21.5013 33.3321 19.1426 32.295 17.1887Z" fill="#76BD4D"/>
<path fill-rule="evenodd" clip-rule="evenodd" d="M42.5946 22.3386C42.4751 22.3583 42.4887 22.4363 42.5091 22.5173C42.4206 25.6784 42.3849 29.3394 41.4864 32.2387C40.8836 34.1835 39.4455 35.8198 39.2363 38.0702C40.5422 41.3851 41.181 43.9955 42.5807 47.1036C45.5233 44.6886 45.2527 40.6059 45.9606 36.8981C46.061 36.3723 46.3397 35.9223 46.4679 35.3892C46.6425 34.6611 46.7862 33.703 46.9195 32.8818C47.1564 31.4241 47.0104 30.0756 47.22 28.6864C48.0912 30.8696 47.3124 33.2607 46.7745 35.4147C45.9016 38.911 45.8948 42.5131 44.4902 45.7743C43.8341 46.4615 43.2658 47.1865 42.8975 47.999C44.0253 50.4942 45.2742 54.3801 46.4234 57.5445C47.5724 56.1664 47.8749 54.409 48.2917 52.736C49.3147 48.6269 50.6869 44.7154 50.9421 40.0481C51.0334 38.3759 51.1657 36.7715 51.011 34.7779C51.8919 36.8288 51.4489 39.1691 51.3495 41.1998C51.1492 45.294 49.6077 48.9346 48.5985 52.7621C48.0958 54.6668 47.7747 56.6487 46.695 58.3123C47.5502 60.9064 48.6184 63.4607 49.3204 65.7334C50.1132 62.1138 52.6055 58.8468 53.9666 55.3241C54.5108 53.9167 54.8902 52.3647 55.227 50.899C55.5689 49.4105 55.5571 47.8482 55.9595 46.2429C56.4893 54.1548 51.1026 59.4809 49.7678 66.5779C50.2205 68.1546 50.9367 69.1784 51.4777 70.5703C52.1134 70.2849 52.1112 69.5628 52.4221 69.0358C52.7154 68.5387 53.2208 68.0972 53.5426 67.5783C53.6388 67.4226 53.5277 67.2703 53.6682 67.0923C54.2236 66.3868 54.7994 65.4328 55.301 64.5608C56.8356 61.8906 58.1723 59.2189 58.5252 56.0179C58.723 56.7985 58.5579 57.7874 58.3801 58.5506C57.3134 63.1276 53.6676 67.0701 51.925 71.415C52.5837 72.7832 53.17 74.3017 53.8562 75.6121C55.9096 73.5167 57.0422 71.0191 57.664 68.2979C58.1675 68.7162 57.5919 69.3703 57.4632 69.8324C57.012 71.454 56.2341 73.1395 55.464 74.6918C54.93 75.1076 54.4516 75.5478 54.3435 76.1493C54.4052 76.8586 54.9904 77.941 55.465 78.4785C57.1552 76.7651 57.4266 74.4315 58.3686 72.3915C58.3257 71.2581 58.6912 70.09 58.9406 68.9635C59.1977 67.8023 59.346 66.7608 59.5127 65.536C59.9005 62.6829 60.8277 59.6994 60.415 56.7356C59.8565 52.7243 57.7378 48.863 56.557 44.9896C55.9649 43.0468 55.0404 39.7989 53.5344 37.2868C53.0703 36.5124 52.2671 35.6823 51.7096 34.6507C50.3551 32.1452 49.177 29.9602 47.5615 27.9705C45.9197 25.9481 44.3073 24.1536 42.5946 22.3386Z" fill="#76BD4D"/>
<path fill-rule="evenodd" clip-rule="evenodd" d="M35.4286 26.8872C35.2692 26.9256 35.2062 27.0065 35.2126 27.1174C36.7334 32.6487 38.6029 38.0868 40.3081 43.6224C41.2474 46.6703 42.6835 49.4958 43.7381 52.4771C45.6688 57.9343 47.4121 63.6653 49.7133 69.3667C52.0535 75.1653 54.5368 80.4118 56.2614 86.6148C56.4462 87.2791 56.4767 88.3004 57.2472 88.5601C58.1511 88.1978 57.7277 87.2557 57.8799 86.5648C56.4244 84.4817 56.2022 81.7674 55.2143 79.4504C54.8584 78.6159 54.2816 77.8981 53.9169 77.0447C52.6996 74.1948 51.2346 71.5895 50.1002 68.7784C48.5061 64.8292 47.1428 60.8028 45.7546 56.495C44.2978 51.9741 42.1409 47.4615 40.4284 42.7016C38.6095 37.6454 37.0144 32.4605 35.5644 27.271L35.4286 26.8872Z" fill="#76BD4D"/>
<path fill-rule="evenodd" clip-rule="evenodd" d="M26.4504 0.248019C26.1313 0.591421 26.3026 1.10974 26.2901 1.47601C26.2629 2.25035 26.075 3.0513 25.9689 3.93175C25.8267 5.1181 25.7035 6.31835 25.6181 7.56436C25.5633 8.3637 25.6673 9.21857 25.604 10.0458C25.4821 11.616 25.0965 13.2304 24.9164 14.8297C24.8915 15.05 25.0411 15.2675 25.0121 15.5207C24.8865 16.6196 24.783 18.4147 24.581 19.7672C24.1063 22.9401 23.5266 26.2445 23.5578 29.4883C23.5655 30.2286 23.8241 30.9268 23.8904 31.6887C24.0385 33.4046 23.9432 35.608 24.2233 37.6758C24.4148 39.0893 24.7124 40.5764 25.0188 42.0257C25.319 43.444 25.4196 44.8657 25.7689 46.2473C26.4316 48.8727 27.3773 51.2949 28.4798 53.4898C29.6548 55.8295 30.2074 58.2475 31.236 60.8598C32.0518 62.9341 33.7632 65.0248 35.0723 67.0797C37.7454 71.2745 40.5821 73.5137 43.9809 76.7056C45.7771 78.3926 47.7682 80.081 49.9323 80.4961C50.8912 80.6798 52.2554 80.6755 53.6062 80.3704C54.6614 82.6331 55.1092 84.6695 55.8296 87.0752C55.9409 87.4472 56.0303 87.8468 56.2369 88.2266C56.3708 88.4727 56.5256 89.1205 56.991 89.0971C58.6971 89.2361 58.215 87.8399 58.629 87.0004C57.6781 84.6808 55.9535 82.0911 56.0487 79.7069C56.0982 78.4643 57.1732 77.3925 57.6713 76.3056C58.3719 74.7755 58.7683 72.9375 59.1424 71.2151C60.0409 67.0796 61.0882 62.585 60.9535 57.8362C60.9262 56.8799 61.0429 55.7802 60.832 54.9709C60.6668 54.3371 60.2255 53.7004 60.0225 53.1027C59.0629 50.2776 58.1118 47.4301 57.1654 44.6067C56.2576 41.8985 55.4674 39.0789 54.0976 36.7761C51.4135 32.2639 49.0317 28.1926 45.5502 24.3872C42.1915 20.7155 39.0096 17.0984 36.3601 13.1239C35.6731 12.0932 34.9831 11.0575 34.2232 10.0264C32.8632 8.18119 31.1896 6.37292 29.7786 4.19007C28.8375 2.73401 27.8589 0.468028 26.4504 0.248019ZM31.3075 7.67062C30.8523 9.09458 31.542 11.0181 31.0573 12.429C29.6601 9.52486 28.7392 6.93554 27.8536 4.21434C27.673 3.65873 27.9017 2.87755 27.1346 2.60209C28.1807 7.40282 29.7132 10.7468 31.3094 15.2435C30.7681 15.5349 30.0688 14.9837 29.5952 14.6029C28.4372 13.6719 27.6163 11.8857 26.2321 11.4025C27.3321 12.5833 28.2722 14.3088 29.691 15.2937C30.3694 15.7643 31.1568 15.7585 31.541 16.3183C31.8669 16.7935 31.8342 17.5271 32.0439 18.1606C32.6134 19.8812 33.5276 21.3038 33.3722 23.1762C31.985 22.6319 30.8612 21.332 29.7477 20.078C28.6011 18.7867 27.6124 17.0276 26.0775 16.8518C28.0406 18.5809 29.8495 21.238 31.9248 22.8682C32.7394 23.5088 33.6529 23.877 34.046 24.6608C34.2071 24.9815 34.2061 25.4325 34.3228 25.8633C34.8102 27.6647 35.9283 30.1282 36.3197 31.9279C36.4094 32.3392 36.5268 32.6445 36.2897 33.1049C33.4947 30.821 30.1695 29.1441 27.8496 26.0634C27.135 25.1142 26.5591 23.6898 25.235 23.2983C27.6534 27.3662 30.6655 30.1887 34.219 31.8753C34.7715 33.0372 36.1818 33.1641 36.8734 34.3332C37.2718 35.0079 37.5595 36.5206 37.9196 37.7113C38.4809 39.5677 38.9287 41.2987 39.5142 43.0595C37.3539 42.1469 34.5491 40.7378 32.5977 39.0632C32.1942 38.717 31.6941 38.4068 31.3612 38.0901C29.9118 36.7113 28.8662 34.5619 27.4548 33.354C26.9322 32.9077 25.6477 32.1581 25.0824 32.5339C26.4265 33.0174 27.2409 33.9744 28.2191 35.0943C29.8073 36.9126 31.4149 38.7945 32.9601 40.0868C32.2067 40.2334 31.4265 39.7229 30.6328 39.3941C29.8128 39.0546 28.9406 38.5251 28.0845 38.4969C27.3162 37.6558 26.5071 36.9005 25.4807 36.6019C27.8287 39.181 30.9008 40.2433 34.2367 40.7524C36.0467 42.4627 39.2142 42.7124 40.4596 45.3112C41.431 47.3376 42.0698 49.952 42.9895 52.0415C39.325 50.3185 35.1174 49.3859 31.9063 47.1984C30.7601 46.417 29.9094 45.3201 28.6787 44.3819C28.2708 44.0697 27.4523 43.567 26.9652 43.7408C30.4033 46.8672 33.9467 49.3679 38.1142 50.4517C39.9967 50.9418 41.6214 52.0571 43.3068 52.937C44.3003 55.4636 45.2961 58.1993 46.1184 61.305C43.9983 60.8464 42.1083 59.9073 39.9716 59.4837C37.5478 58.1334 35.1095 57.3156 33.0497 55.0531C31.3621 53.1999 30.1001 50.1954 27.9116 49.779C28.9968 50.5232 29.6454 51.3701 30.4804 52.4161C30.7207 52.717 31.1306 52.9423 31.3657 53.2354C31.9485 53.9632 32.2412 54.9086 32.7933 55.5902C33.5383 56.5093 34.788 57.2737 35.8396 57.895C39.1215 59.8324 42.9589 60.6756 46.2593 62.1236C47.2456 64.628 48.1057 66.1697 48.9199 68.8031C47.9947 68.7475 47.1843 68.112 46.3716 67.9059C45.4318 67.6676 44.5076 67.7461 43.698 67.4946C43.0358 67.2891 42.3817 66.8111 41.7173 66.5213C41.0286 66.2197 40.1799 66.0949 39.5207 65.7775C36.5515 64.3455 34.8211 59.5943 31.6936 58.7874C32.7846 59.3821 33.4213 59.998 34.2578 60.9895C35.1898 62.0944 36.1536 63.4708 37.0125 64.5735C37.729 65.4919 39.5728 66.1419 40.536 66.5459C42.3535 67.308 44.1349 68.3895 46.1563 68.1361C46.6842 68.3782 47.1511 68.6671 47.7843 68.9561C48.2887 69.1857 49.049 69.2692 49.4131 69.7758C49.7603 70.2592 49.807 70.9889 50.0469 71.5672C50.5716 72.8332 51.335 74.0736 51.8421 75.3805C49.4094 74.7929 46.9565 74.2063 44.7703 73.0471C44.2724 72.784 43.8849 72.2892 43.3575 71.9972C42.8439 71.7128 42.1345 71.6436 41.6434 71.3566C41.0467 71.0083 40.6482 70.2527 39.8787 70.153C40.1861 71.2179 41.0809 71.0503 41.5176 71.8426C43.8545 72.7441 46.216 74.3164 48.7306 74.9946C49.5835 75.2242 50.7549 75.3227 51.3647 75.7129C52.5829 76.4929 52.9793 78.1345 53.2959 79.91C49.0807 80.7915 46.722 78.3868 43.9715 75.8353C42.5811 74.5456 40.9517 73.4031 39.638 71.9947C38.3132 70.5733 36.9896 68.9188 35.8624 67.2075C34.6571 65.3778 33.2288 63.5766 32.2978 61.7556C31.1546 59.5197 30.8416 57.0884 29.8534 54.8463C29.105 53.149 28.0241 51.652 27.429 49.6768C25.9829 44.8752 25.0104 39.2778 24.6763 35.1686C24.3069 30.6214 24.4559 26.9744 24.9701 22.965C25.2618 20.686 25.3864 18.4425 25.5463 16.1859C25.7091 13.8848 26.0612 11.5903 26.2532 9.35543C26.4807 6.70299 26.1387 4.1295 27.0804 1.60375C28.6284 3.33307 29.7611 5.93569 31.3075 7.67062ZM36.5061 14.3775C36.9942 15.1637 37.3011 16.1342 37.8487 16.9114C38.1475 17.3353 38.6566 17.665 38.9999 18.0635C40.2217 19.4821 41.2041 20.9459 42.3732 22.1337C41.9497 22.3956 41.9702 23.1128 41.9514 23.4642C41.9013 24.4025 42.0003 25.2835 41.9371 25.9458C41.844 26.9172 41.6933 27.5732 41.6159 28.4015C41.3468 31.282 40.5495 33.3218 39.3813 35.538C39.2078 35.8671 39.2287 36.5561 38.693 36.535C38.2025 33.6951 36.8011 31.8043 36.51 29.5236C36.3227 28.0583 37.3035 26.7855 37.5543 25.3288C37.7159 24.3878 37.5754 23.4409 37.7394 22.4891C38.0016 20.9709 39.047 19.2192 37.9896 17.7305C37.6525 18.3304 38.09 18.9933 38.0553 19.5981C37.9829 20.8601 37.3075 22.1837 37.182 23.4355C37.0982 24.2665 37.1538 24.9412 36.9462 25.7118C36.7471 26.4518 36.5976 27.2198 36.0521 27.8093C35.5116 25.6565 34.7343 24.0427 34.4122 22.333C33.7964 19.0669 36.0609 16.0996 34.5204 12.9691C34.6065 15.4949 34.632 17.9941 33.7733 20.1068C31.6326 15.6149 31.3011 12.0738 31.5739 8.0043C33.3971 9.96546 35.0743 12.0708 36.5061 14.3775ZM34.3372 23.3812C34.7612 24.8087 35.5763 26.0811 35.122 26.8613C34.3396 23.7289 32.9344 19.5697 32.295 17.1887C33.3321 19.1426 33.7787 21.5013 34.3372 23.3812ZM47.5615 27.9705C49.177 29.9602 50.3551 32.1452 51.7096 34.6507C52.2671 35.6823 53.0703 36.5124 53.5344 37.2868C55.0404 39.7989 55.9649 43.0468 56.557 44.9896C57.7378 48.863 59.8565 52.7243 60.415 56.7356C60.8277 59.6994 59.9005 62.6829 59.5127 65.536C59.346 66.7608 59.1977 67.8023 58.9406 68.9635C58.6912 70.09 58.3257 71.2581 58.3686 72.3915C57.4266 74.4315 57.1552 76.7651 55.465 78.4785C54.9904 77.941 54.4052 76.8586 54.3435 76.1493C54.4516 75.5478 54.93 75.1076 55.464 74.6918C56.2341 73.1395 57.012 71.454 57.4632 69.8324C57.5919 69.3703 58.1675 68.7162 57.664 68.2979C57.0422 71.0191 55.9096 73.5167 53.8562 75.6121C53.17 74.3017 52.5837 72.7832 51.925 71.415C53.6676 67.0701 57.3134 63.1276 58.3801 58.5506C58.5579 57.7874 58.723 56.7985 58.5252 56.0179C58.1723 59.2189 56.8356 61.8906 55.301 64.5608C54.7994 65.4328 54.2236 66.3868 53.6682 67.0923C53.5277 67.2703 53.6388 67.4226 53.5426 67.5783C53.2208 68.0972 52.7154 68.5387 52.4221 69.0358C52.1112 69.5628 52.1134 70.2849 51.4777 70.5703C50.9367 69.1784 50.2205 68.1546 49.7678 66.5779C51.1026 59.4809 56.4893 54.1548 55.9595 46.2429C55.5571 47.8482 55.5689 49.4105 55.227 50.899C54.8902 52.3647 54.5108 53.9167 53.9666 55.3241C52.6055 58.8468 50.1132 62.1138 49.3204 65.7334C48.6184 63.4607 47.5502 60.9064 46.695 58.3123C47.7747 56.6487 48.0958 54.6668 48.5985 52.7621C49.6077 48.9346 51.1492 45.294 51.3495 41.1998C51.4489 39.1691 51.8919 36.8288 51.011 34.7779C51.1657 36.7715 51.0334 38.3759 50.9421 40.0481C50.6869 44.7154 49.3147 48.6269 48.2917 52.736C47.8749 54.409 47.5724 56.1664 46.4234 57.5445C45.2742 54.3801 44.0253 50.4942 42.8975 47.999C43.2658 47.1865 43.8341 46.4615 44.4902 45.7743C45.8948 42.5131 45.9016 38.911 46.7745 35.4147C47.3124 33.2607 48.0912 30.8696 47.22 28.6864C47.0104 30.0756 47.1564 31.4241 46.9195 32.8818C46.7862 33.703 46.6425 34.6611 46.4679 35.3892C46.3397 35.9223 46.061 36.3723 45.9606 36.8981C45.2527 40.6059 45.5233 44.6886 42.5807 47.1036C41.181 43.9955 40.5422 41.3851 39.2363 38.0702C39.4455 35.8198 40.8836 34.1835 41.4864 32.2387C42.3849 29.3394 42.4206 25.6784 42.5091 22.5173C42.4887 22.4363 42.4751 22.3583 42.5946 22.3386C44.3073 24.1536 45.9197 25.9481 47.5615 27.9705ZM35.5644 27.271C37.0144 32.4605 38.6095 37.6454 40.4284 42.7016C42.1409 47.4615 44.2978 51.9741 45.7546 56.495C47.1428 60.8028 48.5061 64.8292 50.1002 68.7784C51.2346 71.5895 52.6996 74.1948 53.9169 77.0447C54.2816 77.8981 54.8584 78.6159 55.2143 79.4504C56.2022 81.7674 56.4244 84.4817 57.8799 86.5648C57.7277 87.2557 58.1511 88.1978 57.2472 88.5601C56.4767 88.3004 56.4462 87.2791 56.2614 86.6148C54.5368 80.4118 52.0535 75.1653 49.7133 69.3667C47.4121 63.6653 45.6688 57.9343 43.7381 52.4771C42.6835 49.4958 41.2474 46.6703 40.3081 43.6224C38.6029 38.0868 36.7334 32.6487 35.2126 27.1174C35.2062 27.0065 35.2692 26.9256 35.4286 26.8872L35.5644 27.271Z" fill="#296308"/>
</svg>
