<svg width="61" height="90" viewBox="0 0 61 90" fill="none" xmlns="http://www.w3.org/2000/svg">
<path fill-rule="evenodd" clip-rule="evenodd" d="M60.7565 66.9444C59.9554 68.1567 58.6798 68.8114 57.5698 69.7451C56.6347 70.5317 55.7292 71.4087 54.7541 72.2031C53.7979 72.9824 52.8351 73.7418 51.9153 74.5868C50.2976 76.0739 48.7136 77.2845 46.5428 78.5463C44.581 79.6864 41.7261 81.0087 39.0613 81.8702C37.965 82.2244 36.912 82.2121 35.8862 82.4108C34.5316 82.6735 33.3301 83.2967 31.9235 83.4884C30.7779 83.6444 29.4657 83.5726 28.2195 83.6091C27.0539 83.6433 25.8445 83.5721 24.7393 83.4272C23.6439 83.2832 22.5564 82.9151 21.4871 82.6996C19.3718 82.2735 17.4606 81.976 16.3692 79.8198C17.2774 79.404 18.154 79.0656 18.9338 79.3643C19.324 79.5138 19.7815 80.0052 20.1854 80.3136C21.3769 81.2222 22.9154 81.7822 24.1445 82.5413C24.654 82.4874 24.8945 82.9391 25.4808 82.7421C25.1646 82.4303 24.685 82.4896 24.3182 82.3328C24.0161 82.2038 23.7348 81.9092 23.426 81.7693C23.1089 81.6257 22.7502 81.6082 22.4564 81.4687C21.165 80.8575 20.0366 79.9476 18.9146 79.0471C19.6798 78.8633 20.5057 78.8144 21.259 78.6514C21.6031 78.5769 21.9471 78.3688 22.2865 78.372C22.6423 78.3754 22.9481 78.6883 23.2289 78.8412C23.582 79.0329 23.8764 79.1505 24.1713 79.31C24.7706 80.2907 25.8844 80.7459 26.8676 81.3174C27.3886 81.6203 28.3308 82.2385 28.9957 82.2699C29.7935 82.307 30.7512 82.3049 31.5758 82.3739C32.3158 82.4359 32.8168 82.5267 33.4686 82.8266C32.0031 81.6849 29.2607 82.4039 27.5706 81.5291C27.1955 81.3347 26.8401 80.9954 26.4619 80.7829C26.0974 80.5775 25.6522 80.4358 25.3264 80.205C24.928 79.9228 24.6371 79.4861 24.1986 79.1417C23.8194 78.8438 23.2483 78.682 22.897 78.2868C24.366 77.8239 25.3611 77.7237 26.8329 77.3778C28.6469 78.3953 30.3792 79.842 32.4064 80.6978C33.0562 80.9718 33.84 81.2893 34.5153 81.3332C35.0159 81.3656 35.5434 81.1995 36.0756 81.2311C36.29 81.244 36.5358 81.356 36.7556 81.3688C37.5195 81.4131 38.1285 81.4364 38.8452 81.6871C37.8863 80.8418 36.0928 81.2214 34.6659 81.0504C32.9239 80.8416 31.6967 80.0107 30.2357 79.3535C29.292 78.5336 28.2038 77.9853 27.25 77.1838C28.9337 76.5761 30.5126 76.1621 31.9969 75.8124C32.9862 76.288 34.06 76.6625 34.944 77.3483C36.9007 78.8667 39.2729 79.6623 41.8886 80.2148C41.7948 79.943 41.2805 79.7358 40.9964 79.6518C40.1412 79.3972 39.3489 79.362 38.5939 79.0961C36.4795 78.3502 34.5767 76.7665 32.5107 75.673C33.7728 75.4276 35.1713 74.8923 36.4233 74.6898C38.0289 74.43 39.2584 75.764 40.6644 76.0347C42.0697 77.3627 43.6302 78.3993 45.6158 78.6372C45.1197 78.2732 44.4955 78.1493 43.8469 78.0706C43.5322 77.6977 42.9869 77.4748 42.5453 77.2157C42.1179 76.9648 41.6134 76.7771 41.4134 76.3951C42.5385 76.6788 43.95 76.8052 45.3263 76.9431C46.1739 77.028 46.8907 77.0909 47.5818 77.5386C47.551 77.1686 46.7615 76.831 46.3768 76.738C45.3369 76.4875 44.0035 76.6955 42.8735 76.4817C42.6138 76.4327 42.2983 76.307 42.0006 76.2356C40.5607 75.8908 38.9389 75.0821 37.7673 74.405C38.764 74.1137 39.6988 73.7702 40.7298 73.4383C41.3911 73.2253 42.1714 72.879 42.6147 72.8451C43.3831 72.7866 43.9377 73.3758 44.6541 73.2576C46.6646 74.3132 48.9937 74.771 51.6723 74.5733C51.0295 74.1056 50.1872 74.2956 49.5092 74.2747C47.3082 74.2067 45.3826 73.2498 43.3718 72.72C43.4948 72.4698 43.6733 72.4265 43.8894 72.3374C44.835 71.9472 46.335 71.6731 47.3153 71.3253C47.5498 71.2422 47.7518 71.1003 47.9525 71.0715C48.4429 71.0009 48.9305 71.2929 49.5053 71.4551C50.9689 71.8691 52.7994 71.8422 54.2679 72.1752C53.6475 71.5458 52.5093 71.6569 51.5254 71.5506C50.5699 71.4475 49.5901 71.3541 48.8565 70.9063C49.6418 70.2497 50.6027 70.2109 51.5757 69.9251C51.9339 69.8197 52.2516 69.575 52.5799 69.5714C52.9666 69.5671 53.2417 69.9201 53.6923 70.075C54.6348 70.3988 55.7409 70.2765 56.6586 70.3967C55.9535 69.9309 54.8624 70.1252 54.036 69.9009C53.6981 69.8092 53.204 69.6701 53.1439 69.3375C55.7248 68.6386 57.766 68.2729 60.2894 67.2334C59.8951 66.9777 59.6253 67.3248 59.3122 67.4185C57.7787 67.8773 56.2919 68.279 54.4958 68.567C54.9579 67.9082 56.0645 67.6123 56.5428 66.9626C57.8665 67.1072 59.434 66.7959 60.7565 66.9444Z" fill="#76BD4D"/>
<path fill-rule="evenodd" clip-rule="evenodd" d="M56.299 66.9476C54.5691 68.3459 52.863 69.309 50.0923 69.7635C50.7374 68.7178 51.8677 67.9452 53.0317 67.1912C51.0836 67.4862 50.5509 69.4268 48.8679 70.177C47.9871 70.5697 46.9888 70.7293 45.832 71.1637C45.9041 70.7356 46.196 70.428 46.4578 70.107C46.7303 69.7727 47.0527 69.5858 47.3961 69.2877C47.9135 68.839 48.2693 68.1226 48.8099 67.6944C49.0691 67.4892 49.521 67.4765 49.6712 67.1378C48.6301 67.1333 48.2129 68.1491 47.6241 68.7422C47.2548 69.114 46.7803 69.3484 46.4151 69.7156C45.8499 70.2843 45.6248 71.1212 44.9012 71.4973C43.775 72.083 42.432 72.0513 40.9847 72.7235C40.7863 72.4912 41.103 72.2843 41.1893 72.1037C41.7717 70.8875 42.4057 69.892 43.6034 68.8684C43.9478 68.574 44.189 68.301 44.5921 67.9548C44.867 67.7188 45.2972 67.4866 45.7006 67.1699C45.8517 67.0512 46.1807 66.8354 46.1488 66.5644C47.0942 66.7131 48.0977 66.692 49.1653 66.7918C49.4653 66.8198 49.7927 66.9435 50.0885 66.9437C50.6304 66.9441 51.1742 66.7766 51.6991 66.7475C53.2391 66.6626 54.7755 66.75 56.299 66.9476Z" fill="#76BD4D"/>
<path fill-rule="evenodd" clip-rule="evenodd" d="M51.9229 69.5075C50.6289 69.9694 48.2668 70.6475 46.5852 71.2813C46.775 70.834 47.6335 70.7982 48.4237 70.5395C49.4643 70.1988 50.6803 69.658 51.9229 69.5075Z" fill="#76BD4D"/>
<path fill-rule="evenodd" clip-rule="evenodd" d="M45.9785 66.5301C46.0118 66.5896 45.972 66.608 45.9284 66.6243C44.5412 67.6555 42.911 68.8199 41.9269 70.1302C41.2668 71.0091 41.0399 72.1637 40.1039 72.963C38.1556 73.4206 36.7589 73.9546 34.8704 74.3055C34.916 72.2357 36.8435 71.0755 38.2576 69.5966C38.4581 69.3869 38.5617 69.1215 38.7557 68.897C39.0209 68.5908 39.4001 68.2262 39.7216 67.909C40.2921 67.3461 40.9487 66.9882 41.4982 66.4589C40.2112 66.7553 39.413 67.8527 38.6362 68.7683C37.3751 70.2545 35.7612 71.3875 34.7933 73.037C34.7164 73.5451 34.5915 74.026 34.3568 74.4451C32.8392 74.725 30.6549 75.3871 28.8296 75.8674C29.0426 74.9226 29.7245 74.2365 30.3282 73.5257C31.8112 71.7804 33.0823 69.9414 35.0867 68.3634C35.8048 67.7981 36.4782 67.2358 37.4273 66.6794C36.1962 66.9299 35.3023 67.8617 34.4262 68.543C32.6596 69.9168 31.5698 71.7463 30.2082 73.3971C29.5308 74.2188 28.7548 74.9837 28.3892 75.9871C26.9234 76.4196 25.4004 76.7446 24.1328 77.1445C25.4774 75.6554 26.0642 73.5191 27.1648 71.807C27.6044 71.1228 28.1669 70.4667 28.7058 69.8567C29.2532 69.2372 29.9584 68.7524 30.5368 68.0694C26.7995 70.3152 26.3098 74.3882 23.5961 77.2099C22.7288 77.5027 22.0167 77.5044 21.2013 77.6999C21.1051 77.3269 21.4299 77.1013 21.5567 76.7973C21.6763 76.5106 21.6961 76.1467 21.8154 75.8404C21.8514 75.7487 21.9589 75.7505 21.9892 75.632C22.1099 75.1629 22.3349 74.6069 22.5492 74.1097C23.206 72.5876 23.9333 71.1534 25.2453 69.9918C24.8252 70.1484 24.4397 70.5323 24.1599 70.8511C22.4824 72.7626 21.9994 75.6253 20.6644 77.7654C19.8181 77.9009 18.9298 78.1158 18.0998 78.2209C18.3156 76.6479 19.0368 75.3592 20.0386 74.2283C19.6732 74.135 19.5828 74.5968 19.4208 74.7992C18.8523 75.5092 18.3704 76.3848 17.9455 77.2152C17.9473 77.5838 17.9185 77.9352 17.6868 78.1721C17.3467 78.3671 16.6546 78.4457 16.2459 78.4027C16.4185 77.1115 17.3699 76.2584 17.953 75.1983C18.4768 74.8618 18.872 74.3324 19.2895 73.8678C19.7199 73.3888 20.135 72.996 20.6258 72.5374C21.7692 71.4694 22.7809 70.12 24.2565 69.3742C26.2536 68.3649 28.7337 68.0983 30.8884 67.4097C31.9691 67.0643 33.7527 66.4576 35.4112 66.3411C35.9225 66.3052 36.5783 66.4029 37.238 66.3279C38.8401 66.1459 40.2362 65.9858 41.699 66.082C43.1857 66.1797 44.5598 66.3358 45.9785 66.5301Z" fill="#76BD4D"/>
<path fill-rule="evenodd" clip-rule="evenodd" d="M46.4654 71.1527C46.5044 71.2358 46.4903 71.2893 46.4383 71.3213C43.4197 72.3783 40.3199 73.2506 37.2343 74.2269C35.5352 74.7642 33.7606 75.0102 32.0508 75.4751C28.9208 76.3262 25.7341 77.3467 22.3638 78.1091C18.9362 78.8846 15.7059 79.4232 12.3139 80.6C11.9506 80.7261 11.4816 81.0329 11.0932 80.7708C10.9369 80.254 11.509 80.1472 11.7654 79.8626C13.2136 79.8582 14.51 79.1057 15.8982 78.8194C16.3982 78.7163 16.9239 78.7483 17.4355 78.6433C19.1438 78.292 20.8297 78.128 22.4914 77.752C24.8259 77.224 27.1136 76.5688 29.5364 75.8364C32.0791 75.0678 34.8649 74.6139 37.605 73.8843C40.5156 73.1093 43.405 72.194 46.2453 71.2125L46.4654 71.1527Z" fill="#76BD4D"/>
<path fill-rule="evenodd" clip-rule="evenodd" d="M61.5867 66.7993C61.5452 67.0493 61.2522 67.1355 61.0922 67.256C60.7544 67.5111 60.4612 67.8461 60.1036 68.1697C59.6214 68.6052 59.1263 69.0367 58.5972 69.4657C58.2579 69.7409 57.8376 69.9627 57.4887 70.2505C56.8271 70.7974 56.2387 71.4759 55.5846 72.0578C55.4945 72.1381 55.3441 72.1396 55.2407 72.232C54.7919 72.6327 54.0229 73.242 53.4873 73.7564C52.2309 74.9635 50.9526 76.2587 49.486 77.2623C49.151 77.4912 48.7465 77.5949 48.3813 77.8043C47.559 78.2766 46.6039 79.0104 45.5772 79.5342C44.8753 79.8922 44.103 80.226 43.3446 80.544C42.6022 80.8551 41.9288 81.2563 41.1856 81.5339C39.7736 82.062 38.3531 82.4002 36.9792 82.5971C35.5148 82.8071 34.2348 83.3193 32.6997 83.6801C31.4811 83.9671 29.9391 83.8598 28.5552 83.9206C25.7298 84.0446 23.7242 83.482 21.0929 82.9678C19.7022 82.696 18.2421 82.3378 17.2924 81.5029C16.8717 81.1329 16.3924 80.5232 16.0527 79.8252C14.6651 80.0645 13.5933 80.5036 12.2597 80.9371C12.0534 81.0041 11.8426 81.0896 11.5993 81.1166C11.4416 81.1341 11.0963 81.2683 10.9426 81.0534C10.2784 80.3362 11.075 80.1132 11.3056 79.6652C12.682 79.3616 14.4525 79.3182 15.4888 78.5278C16.0289 78.1159 16.1306 77.3003 16.4426 76.7372C16.8821 75.9447 17.567 75.1913 18.208 74.4842C19.7467 72.7861 21.3942 70.909 23.5726 69.4794C24.0114 69.1915 24.4637 68.7945 24.9013 68.6346C25.244 68.5095 25.6854 68.5065 26.0252 68.4095C27.6314 67.9512 29.2448 67.482 30.8456 67.0183C32.3811 66.5735 33.9251 66.0413 35.4418 65.9298C38.4134 65.7111 41.0807 65.4961 44.0165 65.8548C46.849 66.2007 49.5946 66.4849 52.3128 66.4195C53.0177 66.4026 53.7259 66.3853 54.4567 66.4007C55.7645 66.4283 57.1663 66.6074 58.6436 66.5518C59.6291 66.5147 60.9911 66.2402 61.5867 66.7993ZM56.5424 66.9619C56.064 67.6116 54.9576 67.9075 54.4954 68.5663C56.2915 68.2783 57.7783 67.8766 59.3119 67.4178C59.6249 67.3241 59.8948 66.977 60.289 67.2327C57.7657 68.2723 55.7245 68.6379 53.1435 69.3368C53.2037 69.6696 53.6978 69.8085 54.0357 69.9003C54.8621 70.1246 55.9532 69.9303 56.6583 70.396C55.7404 70.2759 54.6344 70.398 53.6919 70.0743C53.2414 69.9194 52.9662 69.5664 52.5795 69.5707C52.2513 69.5745 51.9336 69.8192 51.5754 69.9244C50.6024 70.2102 49.6415 70.2489 48.8561 70.9056C49.5897 71.3534 50.5695 71.4467 51.5251 71.5499C52.509 71.6561 53.6472 71.5451 54.2676 72.1745C52.7991 71.8415 50.9686 71.8684 49.5049 71.4544C48.9301 71.2921 48.4426 71.0002 47.9522 71.0708C47.7515 71.0996 47.5494 71.2415 47.315 71.3246C46.3346 71.6724 44.8347 71.9466 43.8891 72.3367C43.6729 72.4257 43.4944 72.4691 43.3715 72.7193C45.3824 73.2492 47.3079 74.2059 49.5088 74.2741C50.1868 74.2949 51.0292 74.1049 51.672 74.5726C48.9934 74.7703 46.6642 74.3125 44.6538 73.2569C43.9375 73.3751 43.3829 72.786 42.6144 72.8444C42.1711 72.8783 41.3908 73.2246 40.7294 73.4376C39.6984 73.7697 38.7636 74.113 37.7669 74.4043C38.9386 75.0814 40.5604 75.8901 42.0003 76.2349C42.2979 76.3063 42.6136 76.4319 42.8731 76.4811C44.0032 76.6948 45.3366 76.4868 46.3765 76.7373C46.7611 76.8303 47.5507 77.168 47.5815 77.5379C46.8903 77.0902 46.1736 77.0273 45.3259 76.9424C43.9497 76.8046 42.5381 76.6781 41.4131 76.3945C41.6131 76.7764 42.1174 76.9642 42.5449 77.215C42.9866 77.4741 43.5319 77.697 43.8465 78.0699C44.495 78.1487 45.1194 78.2725 45.6155 78.6365C43.6298 78.3986 42.0693 77.3619 40.664 76.034C39.258 75.7633 38.0285 74.4292 36.423 74.6891C35.171 74.8916 33.7724 75.427 32.5103 75.6723C34.5763 76.7659 36.4791 78.3497 38.5936 79.0954C39.3486 79.3614 40.1409 79.3966 40.9961 79.6511C41.2801 79.7351 41.7944 79.9424 41.8883 80.2142C39.2724 79.6617 36.9002 78.8661 34.9437 77.3477C34.0596 76.6619 32.986 76.2873 31.9966 75.8117C30.5123 76.1614 28.9334 76.5755 27.2497 77.1831C28.2033 77.9847 29.2915 78.5329 30.2354 79.3528C31.6964 80.0101 32.9236 80.8409 34.6655 81.0497C36.0925 81.2208 37.886 80.8411 38.8449 81.6864C38.1281 81.4359 37.5192 81.4124 36.7552 81.3681C36.5355 81.3554 36.2898 81.2433 36.0753 81.2304C35.5431 81.1988 35.0156 81.3649 34.5149 81.3325C33.8397 81.2886 33.0558 80.9711 32.406 80.6971C30.3789 79.8413 28.6467 78.3946 26.8326 77.3771C25.3608 77.7229 24.3656 77.823 22.8966 78.2861C23.248 78.6813 23.8191 78.8433 24.1982 79.141C24.6367 79.4854 24.9275 79.9221 25.326 80.2043C25.6518 80.4351 26.0971 80.5768 26.4615 80.7822C26.8398 80.9947 27.1952 81.334 27.5702 81.5284C29.2603 82.4032 32.0028 81.6844 33.4682 82.8259C32.8164 82.526 32.3155 82.4352 31.5754 82.3732C30.7508 82.3043 29.7932 82.3063 28.9953 82.2692C28.3305 82.2378 27.3883 81.6195 26.8672 81.3167C25.8841 80.7453 24.7703 80.2902 24.1709 79.3093C23.876 79.1498 23.5817 79.0322 23.2286 78.8405C22.9477 78.6876 22.6419 78.3748 22.2861 78.3713C21.9467 78.3681 21.6029 78.5762 21.2587 78.6507C20.5055 78.8138 19.6796 78.8626 18.9142 79.0464C20.0361 79.9469 21.1647 80.8568 22.4561 81.468C22.7498 81.6075 23.1086 81.625 23.4257 81.7686C23.7345 81.9085 24.0158 82.2031 24.3178 82.3321C24.6846 82.4889 25.1643 82.4296 25.4804 82.7414C24.8942 82.9384 24.6537 82.4868 24.1441 82.5406C22.9152 81.7813 21.3765 81.2215 20.1851 80.3129C19.7812 80.0046 19.3237 79.5131 18.9335 79.3636C18.1537 79.065 17.2772 79.4033 16.3688 79.8191C17.4602 81.9753 19.3715 82.2728 21.4867 82.6989C22.556 82.9143 23.6435 83.2825 24.739 83.4265C25.8442 83.5714 27.0535 83.6426 28.2191 83.6084C29.4654 83.5719 30.7775 83.6437 31.9231 83.4877C33.3298 83.296 34.5312 82.6728 35.8859 82.4102C36.9116 82.2114 37.9647 82.2238 39.061 81.8695C41.7258 81.0081 44.5806 79.6857 46.5424 78.5456C48.7133 77.2838 50.2972 76.0732 51.915 74.5861C52.8348 73.7411 53.7976 72.9817 54.7538 72.2024C55.7289 71.408 56.6343 70.5311 57.5695 69.7444C58.6795 68.8108 59.9549 68.156 60.7561 66.9437C59.434 66.7959 57.8665 67.1072 56.5424 66.9619ZM51.6991 66.7475C51.1742 66.7766 50.6304 66.9441 50.0885 66.9437C49.7927 66.9435 49.4653 66.8198 49.1653 66.7918C48.0977 66.692 47.0942 66.7131 46.1488 66.5644C46.1807 66.8354 45.8517 67.0512 45.7006 67.1699C45.2972 67.4866 44.867 67.7188 44.5921 67.9548C44.189 68.301 43.9478 68.574 43.6034 68.8684C42.4057 69.892 41.7717 70.8875 41.1893 72.1037C41.103 72.2843 40.7863 72.4912 40.9847 72.7235C42.432 72.0513 43.775 72.083 44.9012 71.4973C45.6248 71.1212 45.8499 70.2843 46.4151 69.7156C46.7803 69.3484 47.2548 69.114 47.6241 68.7422C48.2129 68.1491 48.6301 67.1333 49.6712 67.1378C49.521 67.4765 49.0691 67.4892 48.8099 67.6944C48.2693 68.1226 47.9135 68.839 47.3961 69.2877C47.0527 69.5858 46.7303 69.7727 46.4578 70.107C46.196 70.428 45.9041 70.7356 45.832 71.1637C46.9888 70.7293 47.9871 70.5697 48.8679 70.177C50.5509 69.4268 51.0836 67.4862 53.0317 67.1912C51.8677 67.9452 50.7374 68.7178 50.0923 69.7635C52.863 69.309 54.5691 68.3459 56.299 66.9476C54.7755 66.75 53.2391 66.6626 51.6991 66.7475ZM48.4237 70.5395C47.6335 70.7982 46.775 70.834 46.5852 71.2813C48.2668 70.6475 50.6289 69.9694 51.9229 69.5075C50.6803 69.658 49.4643 70.1988 48.4237 70.5395ZM41.699 66.082C40.2362 65.9858 38.8401 66.1459 37.238 66.3279C36.5783 66.4029 35.9225 66.3052 35.4112 66.3411C33.7527 66.4576 31.9691 67.0643 30.8884 67.4097C28.7337 68.0983 26.2536 68.3649 24.2565 69.3742C22.7809 70.12 21.7692 71.4694 20.6258 72.5374C20.135 72.996 19.7199 73.3888 19.2895 73.8678C18.872 74.3324 18.4768 74.8618 17.953 75.1983C17.3699 76.2584 16.4185 77.1115 16.2459 78.4027C16.6546 78.4457 17.3467 78.3671 17.6868 78.1721C17.9185 77.9352 17.9473 77.5838 17.9455 77.2152C18.3704 76.3848 18.8523 75.5092 19.4208 74.7992C19.5828 74.5968 19.6732 74.135 20.0386 74.2283C19.0368 75.3592 18.3156 76.6479 18.0998 78.2209C18.9298 78.1158 19.8181 77.9009 20.6644 77.7654C21.9994 75.6253 22.4824 72.7626 24.1599 70.8511C24.4397 70.5323 24.8252 70.1484 25.2453 69.9918C23.9333 71.1534 23.206 72.5876 22.5492 74.1097C22.3349 74.6069 22.1099 75.1629 21.9892 75.632C21.9589 75.7505 21.8514 75.7487 21.8154 75.8404C21.6961 76.1467 21.6763 76.5106 21.5567 76.7973C21.4299 77.1013 21.1051 77.3269 21.2013 77.6999C22.0167 77.5044 22.7288 77.5027 23.5961 77.2099C26.3098 74.3882 26.7995 70.3152 30.5368 68.0694C29.9584 68.7524 29.2532 69.2372 28.7058 69.8567C28.1669 70.4667 27.6044 71.1228 27.1648 71.807C26.0642 73.5191 25.4774 75.6554 24.1328 77.1445C25.4004 76.7446 26.9234 76.4196 28.3892 75.9871C28.7548 74.9837 29.5308 74.2188 30.2082 73.3971C31.5698 71.7463 32.6596 69.9168 34.4262 68.543C35.3023 67.8617 36.1962 66.9299 37.4273 66.6794C36.4782 67.2358 35.8048 67.7981 35.0867 68.3634C33.0823 69.9414 31.8112 71.7804 30.3282 73.5257C29.7245 74.2365 29.0426 74.9226 28.8296 75.8674C30.6549 75.3871 32.8392 74.725 34.3568 74.4451C34.5915 74.026 34.7164 73.5451 34.7933 73.037C35.7612 71.3875 37.3751 70.2545 38.6362 68.7683C39.413 67.8527 40.2112 66.7553 41.4982 66.4589C40.9487 66.9882 40.2921 67.3461 39.7216 67.909C39.4001 68.2262 39.0209 68.5908 38.7557 68.897C38.5617 69.1215 38.4581 69.3869 38.2576 69.5966C36.8435 71.0755 34.916 72.2357 34.8704 74.3055C36.7589 73.9546 38.1556 73.4206 40.1039 72.963C41.0399 72.1637 41.2668 71.0091 41.9269 70.1302C42.911 68.8199 44.5412 67.6555 45.9284 66.6243C45.972 66.608 46.0118 66.5896 45.9785 66.5301C44.5598 66.3358 43.1857 66.1797 41.699 66.082ZM46.2453 71.2125C43.405 72.194 40.5156 73.1093 37.605 73.8843C34.8649 74.6139 32.0791 75.0678 29.5364 75.8364C27.1136 76.5688 24.8259 77.224 22.4914 77.752C20.8297 78.128 19.1438 78.292 17.4355 78.6433C16.9239 78.7483 16.3982 78.7163 15.8982 78.8194C14.51 79.1057 13.2136 79.8582 11.7654 79.8626C11.509 80.1472 10.9369 80.254 11.0932 80.7708C11.4816 81.0329 11.9506 80.7261 12.3139 80.6C15.7059 79.4232 18.9362 78.8846 22.3638 78.1091C25.7341 77.3467 28.9208 76.3262 32.0508 75.4751C33.7606 75.0102 35.5352 74.7642 37.2343 74.2269C40.3199 73.2506 43.4197 72.3783 46.4383 71.3213C46.4903 71.2893 46.5044 71.2358 46.4654 71.1527L46.2453 71.2125Z" fill="#296308"/>
<path fill-rule="evenodd" clip-rule="evenodd" d="M34.5432 1.60404C35.485 4.12958 35.1427 6.70319 35.3703 9.35571C35.5621 11.5905 35.9145 13.8851 36.0773 16.1862C36.2372 18.4428 36.3618 20.6863 36.6535 22.9653C37.1677 26.9747 37.3166 30.6216 36.9472 35.1688C36.6131 39.2781 35.6406 44.8755 34.1945 49.6771C33.5994 51.6523 32.5186 53.1491 31.7702 54.8466C30.782 57.0885 30.469 59.52 29.3258 61.7559C28.3947 63.5768 26.9665 65.3781 25.7612 67.2078C24.634 68.9191 23.3104 70.5736 21.9856 71.9949C20.6719 73.4034 19.0426 74.546 17.6521 75.8356C14.9016 78.3871 12.5428 80.7918 8.32771 79.9102C8.64423 78.135 9.04045 76.4931 10.2589 75.7132C10.8687 75.323 12.0399 75.2244 12.893 74.9949C15.4076 74.3167 17.7692 72.7447 20.106 71.8429C20.5424 71.0505 21.4375 71.2182 21.7449 70.1533C20.9754 70.253 20.5768 71.0086 19.9802 71.3568C19.4891 71.6439 18.7797 71.7131 18.2661 71.9974C17.7386 72.2894 17.3511 72.7843 16.8533 73.0474C14.6671 74.2066 12.2143 74.793 9.78149 75.3808C10.2885 74.0741 11.0517 72.8336 11.5767 71.5675C11.8165 70.9893 11.8632 70.2595 12.2104 69.7761C12.5745 69.2695 13.335 69.1858 13.8393 68.9564C14.4725 68.6674 14.9394 68.3785 15.4673 68.1364C17.4885 68.3897 19.2699 67.3082 21.0876 66.5462C22.0509 66.1425 23.8946 65.4922 24.611 64.5738C25.47 63.4711 26.4338 62.0946 27.3657 60.9897C28.2023 59.9983 28.839 59.3824 29.93 58.7877C26.8023 59.5945 25.0721 64.3458 22.1028 65.7777C21.4436 66.0954 20.5949 66.2202 19.9063 66.5216C19.2419 66.8114 18.5878 67.2894 17.9256 67.4949C17.116 67.7462 16.1918 67.6679 15.252 67.9062C14.4391 68.1122 13.6289 68.7478 12.7037 68.8034C13.5181 66.1701 14.3779 64.6285 15.3642 62.1239C18.6646 60.6761 22.5021 59.8326 25.784 57.8953C26.8356 57.274 28.0853 56.5096 28.8302 55.5905C29.3824 54.9089 29.675 53.9635 30.2578 53.2357C30.4929 52.9428 30.9028 52.7173 31.1431 52.4164C31.9782 51.3704 32.6266 50.5232 33.712 49.7793C31.5235 50.1957 30.2612 53.2001 28.5739 55.0534C26.5141 57.3159 24.0756 58.1336 21.6519 59.484C19.5154 59.9074 17.6253 60.8465 15.5052 61.3053C16.3273 58.1995 17.3233 55.4639 18.3167 52.9373C20.0021 52.0576 21.6267 50.942 23.5094 50.452C27.6768 49.3679 31.2201 46.8672 34.6584 43.7411C34.1711 43.5672 33.3528 44.07 32.9448 44.3822C31.7139 45.3203 30.8633 46.4172 29.7173 47.1987C26.506 49.386 22.2984 50.3185 18.634 52.0418C19.5538 49.9523 20.1926 47.3379 21.1639 45.3115C22.4096 42.7128 25.5769 42.463 27.3869 40.7527C30.723 40.2437 33.7949 39.1813 36.1429 36.6022C35.1165 36.9008 34.3075 37.6559 33.5391 38.4972C32.683 38.5254 31.8108 39.0549 30.9908 39.3944C30.1972 39.7229 29.4169 40.2337 28.6635 40.0871C30.2087 38.7948 31.8161 36.9128 33.4045 35.0946C34.3826 33.9747 35.197 33.0176 36.5412 32.5342C35.9757 32.1583 34.6913 32.908 34.1688 33.3543C32.7574 34.5622 31.7118 36.7116 30.2624 38.0904C29.9294 38.4073 29.4294 38.7173 29.0259 39.0635C27.0745 40.7381 24.2697 42.1472 22.1094 43.0598C22.6949 41.299 23.1426 39.5677 23.704 37.7116C24.0641 36.5209 24.3518 35.0082 24.7502 34.3335C25.4414 33.1646 26.852 33.0377 27.4045 31.8756C30.9581 30.189 33.9702 27.3665 36.3886 23.2986C35.0645 23.6901 34.4885 25.1145 33.774 26.0637C31.454 29.1446 28.1286 30.8215 25.3339 33.1052C25.0968 32.6448 25.2144 32.3396 25.3039 31.9282C25.6951 30.1284 26.8133 27.665 27.3008 25.8635C27.4174 25.4327 27.4165 24.9818 27.5776 24.6611C27.9706 23.8773 28.8844 23.5091 29.6988 22.8685C31.7741 21.2383 33.5829 18.5812 35.5461 16.8521C34.0112 17.0279 33.0226 18.7873 31.8759 20.0782C30.7625 21.3323 29.6386 22.6322 28.2514 23.1765C28.0962 21.3044 29.0101 19.8815 29.5797 18.1609C29.7891 17.5273 29.7565 16.7937 30.0826 16.3186C30.4667 15.7588 31.2541 15.7649 31.9326 15.294C33.3516 14.3092 34.2915 12.5834 35.3914 11.4028C34.0071 11.886 33.1862 13.6721 32.0283 14.6032C31.5548 14.984 30.8552 15.5351 30.3142 15.2438C31.9104 10.7471 33.4429 7.40311 34.489 2.60238C33.7218 2.87784 33.9506 3.65902 33.77 4.21463C32.8844 6.93583 31.9635 9.52515 30.5663 12.4293C30.0816 11.0184 30.7714 9.09466 30.3161 7.67091C31.8611 5.93568 32.9938 3.33307 34.5432 1.60404Z" fill="#76BD4D"/>
<path fill-rule="evenodd" clip-rule="evenodd" d="M30.0483 8.00359C30.3211 12.0731 29.9895 15.6144 27.849 20.1061C26.9902 17.9934 27.0157 15.4944 27.1019 12.9684C25.5614 16.0986 27.8257 19.0659 27.21 22.3323C26.8879 24.042 26.1107 25.6556 25.5701 27.8086C25.0249 27.2191 24.8753 26.4512 24.676 25.7111C24.4684 24.9405 24.524 24.2657 24.4402 23.4347C24.3147 22.1829 23.6394 20.8592 23.5669 19.5974C23.5322 18.9926 23.97 18.3298 23.6327 17.7298C22.5753 19.2185 23.6207 20.9702 23.8828 22.4884C24.0468 23.4402 23.9063 24.3871 24.0679 25.3281C24.3185 26.7847 25.2996 28.0576 25.1123 29.5229C24.8211 31.8036 23.4196 33.6946 22.9293 36.5343C22.3935 36.5554 22.4145 35.8662 22.2409 35.5373C21.0727 33.3211 20.2754 31.2813 20.0064 28.4008C19.9289 27.5725 19.7782 26.9165 19.6852 25.945C19.6219 25.2828 19.7209 24.4018 19.6708 23.4635C19.6521 23.112 19.6726 22.3949 19.249 22.133C20.4181 20.9455 21.4005 19.4814 22.6223 18.0628C22.9656 17.6643 23.4746 17.3348 23.7736 16.9106C24.3211 16.1335 24.6282 15.163 25.1161 14.3768C26.548 12.0708 28.2252 9.96545 30.0483 8.00359Z" fill="#76BD4D"/>
<path fill-rule="evenodd" clip-rule="evenodd" d="M29.3272 17.1887C28.6878 19.5697 27.2827 23.7289 26.5003 26.8613C26.0459 26.0811 26.861 24.8087 27.2851 23.3812C27.8436 21.5013 28.2901 19.1426 29.3272 17.1887Z" fill="#76BD4D"/>
<path fill-rule="evenodd" clip-rule="evenodd" d="M19.0277 22.3386C19.1471 22.3583 19.1335 22.4363 19.1131 22.5173C19.2016 25.6784 19.2374 29.3394 20.1358 32.2387C20.7386 34.1835 22.1767 35.8198 22.3859 38.0702C21.08 41.3851 20.4412 43.9955 19.0415 47.1036C16.0989 44.6886 16.3695 40.6059 15.6616 36.8981C15.5612 36.3723 15.2825 35.9223 15.1543 35.3892C14.9797 34.6611 14.8361 33.703 14.7027 32.8818C14.4658 31.4241 14.6118 30.0756 14.4022 28.6864C13.531 30.8696 14.3098 33.2607 14.8478 35.4147C15.7206 38.911 15.7274 42.5131 17.132 45.7743C17.7881 46.4615 18.3565 47.1865 18.7247 47.999C17.5969 50.4942 16.3481 54.3801 15.1989 57.5445C14.0498 56.1664 13.7473 54.409 13.3305 52.736C12.3075 48.6269 10.9353 44.7154 10.6802 40.0481C10.5888 38.3759 10.4565 36.7715 10.6113 34.7779C9.7303 36.8288 10.1733 39.1691 10.2727 41.1998C10.473 45.294 12.0145 48.9346 13.0238 52.7621C13.5264 54.6668 13.8475 56.6487 14.9272 58.3123C14.0721 60.9064 13.0038 63.4607 12.3018 65.7334C11.509 62.1138 9.01675 58.8468 7.65562 55.3241C7.11143 53.9167 6.73197 52.3647 6.39523 50.899C6.05328 49.4105 6.06512 47.8482 5.66269 46.2429C5.13296 54.1548 10.5197 59.4809 11.8544 66.5779C11.4017 68.1546 10.6855 69.1784 10.1445 70.5703C9.50882 70.2849 9.51102 69.5628 9.20009 69.0358C8.90685 68.5387 8.40138 68.0972 8.07961 67.5783C7.9834 67.4226 8.09455 67.2703 7.95403 67.0923C7.39863 66.3868 6.82285 65.4328 6.32126 64.5608C4.7866 61.8906 3.44989 59.2189 3.09703 56.0179C2.89919 56.7985 3.06432 57.7874 3.24215 58.5506C4.30885 63.1276 7.95464 67.0701 9.69724 71.415C9.0385 72.7832 8.4522 74.3017 7.76605 75.6121C5.71263 73.5167 4.57998 71.0191 3.95825 68.2979C3.45477 68.7162 4.03033 69.3703 4.15902 69.8324C4.61025 71.454 5.38812 73.1395 6.15825 74.6918C6.69219 75.1076 7.17059 75.5478 7.27873 76.1493C7.21703 76.8586 6.63183 77.941 6.15723 78.4785C4.46701 76.7651 4.19562 74.4315 3.25365 72.3915C3.29648 71.2581 2.93104 70.09 2.68165 68.9635C2.42449 67.8023 2.27625 66.7608 2.1095 65.536C1.72174 62.6829 0.79455 59.6994 1.20724 56.7356C1.76576 52.7243 3.88437 48.863 5.06521 44.9896C5.6573 43.0468 6.58184 39.7989 8.08779 37.2868C8.55197 36.5124 9.35508 35.6823 9.91266 34.6507C11.2672 32.1452 12.4452 29.9602 14.0607 27.9705C15.7025 25.9481 17.3149 24.1536 19.0277 22.3386Z" fill="#76BD4D"/>
<path fill-rule="evenodd" clip-rule="evenodd" d="M26.1936 26.8872C26.353 26.9256 26.416 27.0065 26.4096 27.1174C24.8888 32.6487 23.0193 38.0868 21.3142 43.6224C20.3748 46.6703 18.9388 49.4958 17.8841 52.4771C15.9534 57.9343 14.2102 63.6653 11.9089 69.3667C9.56868 75.1653 7.08546 80.4118 5.36078 86.6148C5.17605 87.2791 5.14556 88.3004 4.37507 88.5601C3.47108 88.1978 3.8945 87.2557 3.74234 86.5648C5.19779 84.4817 5.41998 81.7674 6.40789 79.4504C6.76378 78.6159 7.34061 77.8981 7.70533 77.0447C8.92264 74.1948 10.3876 71.5895 11.522 68.7784C13.1162 64.8292 14.4795 60.8028 15.8676 56.495C17.3244 51.9741 19.4813 47.4615 21.1938 42.7016C23.0128 37.6454 24.6078 32.4605 26.0578 27.271L26.1936 26.8872Z" fill="#76BD4D"/>
<path fill-rule="evenodd" clip-rule="evenodd" d="M35.1718 0.248019C35.4909 0.591421 35.3196 1.10974 35.3321 1.47601C35.3593 2.25035 35.5472 3.0513 35.6533 3.93175C35.7955 5.1181 35.9188 6.31835 36.0041 7.56436C36.0589 8.3637 35.9549 9.21857 36.0182 10.0458C36.1401 11.616 36.5258 13.2304 36.7058 14.8297C36.7308 15.05 36.5811 15.2675 36.6102 15.5207C36.7357 16.6196 36.8392 18.4147 37.0413 19.7672C37.516 22.9401 38.0957 26.2445 38.0644 29.4883C38.0567 30.2286 37.7981 30.9268 37.7318 31.6887C37.5837 33.4046 37.679 35.608 37.3989 37.6758C37.2075 39.0893 36.9098 40.5764 36.6034 42.0257C36.3032 43.444 36.2027 44.8657 35.8533 46.2473C35.1906 48.8727 34.2449 51.2949 33.1425 53.4898C31.9674 55.8295 31.4148 58.2475 30.3862 60.8598C29.5705 62.9341 27.859 65.0248 26.5499 67.0797C23.8768 71.2745 21.0401 73.5137 17.6413 76.7056C15.8451 78.3926 13.854 80.081 11.69 80.4961C10.731 80.6798 9.36685 80.6755 8.01605 80.3704C6.96082 82.6331 6.51301 84.6695 5.79266 87.0752C5.68134 87.4472 5.59194 87.8468 5.38532 88.2266C5.25138 88.4727 5.09663 89.1205 4.63122 89.0971C2.92515 89.2361 3.40726 87.8399 2.99323 87.0004C3.94412 84.6808 5.6687 82.0911 5.57351 79.7069C5.524 78.4643 4.449 77.3925 3.95094 76.3056C3.25029 74.7755 2.85388 72.9375 2.47986 71.2151C1.58127 67.0796 0.534012 62.585 0.668756 57.8362C0.696049 56.8799 0.579287 55.7802 0.7902 54.9709C0.955455 54.3371 1.39674 53.7004 1.59975 53.1027C2.55932 50.2776 3.51041 47.4301 4.4568 44.6067C5.36465 41.8985 6.1548 39.0789 7.52462 36.7761C10.2087 32.2639 12.5906 28.1926 16.072 24.3872C19.4308 20.7155 22.6126 17.0984 25.2621 13.1239C25.9491 12.0932 26.6391 11.0575 27.3991 10.0264C28.759 8.18119 30.4326 6.37292 31.8436 4.19007C32.7848 2.73401 33.7633 0.468028 35.1718 0.248019ZM30.3147 7.67062C30.7699 9.09458 30.0802 11.0181 30.5649 12.429C31.9621 9.52486 32.883 6.93554 33.7686 4.21434C33.9492 3.65873 33.7205 2.87755 34.4876 2.60209C33.4415 7.40282 31.909 10.7468 30.3129 15.2435C30.8541 15.5349 31.5534 14.9837 32.027 14.6029C33.1851 13.6719 34.0059 11.8857 35.3901 11.4025C34.2901 12.5833 33.35 14.3088 31.9312 15.2937C31.2529 15.7643 30.4654 15.7585 30.0812 16.3183C29.7553 16.7935 29.788 17.5271 29.5784 18.1606C29.0088 19.8812 28.0947 21.3038 28.2501 23.1762C29.6372 22.6319 30.761 21.332 31.8745 20.078C33.0211 18.7867 34.0098 17.0276 35.5448 16.8518C33.5816 18.5809 31.7728 21.238 29.6974 22.8682C28.8828 23.5088 27.9693 23.877 27.5762 24.6608C27.4152 24.9815 27.4161 25.4325 27.2995 25.8633C26.812 27.6647 25.6939 30.1282 25.3025 31.9279C25.2129 32.3392 25.0954 32.6445 25.3325 33.1049C28.1275 30.821 31.4527 29.1441 33.7727 26.0634C34.4872 25.1142 35.0631 23.6898 36.3872 23.2983C33.9689 27.3662 30.9567 30.1887 27.4032 31.8753C26.8507 33.0372 25.4404 33.1641 24.7489 34.3332C24.3504 35.0079 24.0627 36.5206 23.7026 37.7113C23.1414 39.5677 22.6935 41.2987 22.1081 43.0595C24.2683 42.1469 27.0732 40.7378 29.0245 39.0632C29.428 38.717 29.9281 38.4068 30.261 38.0901C31.7104 36.7113 32.756 34.5619 34.1674 33.354C34.69 32.9077 35.9746 32.1581 36.5398 32.5339C35.1957 33.0174 34.3813 33.9744 33.4031 35.0943C31.8149 36.9126 30.2073 38.7945 28.6621 40.0868C29.4155 40.2334 30.1957 39.7229 30.9894 39.3941C31.8094 39.0546 32.6817 38.5251 33.5377 38.4969C34.3061 37.6558 35.1151 36.9005 36.1415 36.6019C33.7936 39.181 30.7214 40.2433 27.3855 40.7524C25.5755 42.4627 22.408 42.7124 21.1626 45.3112C20.1912 47.3376 19.5524 49.952 18.6327 52.0415C22.2972 50.3185 26.5048 49.3859 29.7159 47.1984C30.8622 46.417 31.7128 45.3201 32.9435 44.3819C33.3514 44.0697 34.17 43.567 34.6571 43.7408C31.2189 46.8672 27.6755 49.3679 23.508 50.4517C21.6255 50.9418 20.0009 52.0571 18.3154 52.937C17.322 55.4636 16.3261 58.1993 15.5039 61.305C17.6239 60.8464 19.5139 59.9073 21.6506 59.4837C24.0745 58.1334 26.5128 57.3156 28.5725 55.0531C30.2601 53.1999 31.5222 50.1954 33.7106 49.779C32.6254 50.5232 31.9768 51.3701 31.1418 52.4161C30.9015 52.717 30.4916 52.9423 30.2565 53.2354C29.6737 53.9632 29.381 54.9086 28.8289 55.5902C28.0839 56.5093 26.8343 57.2737 25.7826 57.895C22.5007 59.8324 18.6633 60.6756 15.3629 62.1236C14.3766 64.628 13.5165 66.1697 12.7023 68.8031C13.6275 68.7475 14.438 68.112 15.2506 67.9059C16.1904 67.6676 17.1146 67.7461 17.9243 67.4946C18.5864 67.2891 19.2405 66.8111 19.905 66.5213C20.5936 66.2197 21.4423 66.0949 22.1015 65.7775C25.0707 64.3455 26.8011 59.5943 29.9287 58.7874C28.8376 59.3821 28.2009 59.998 27.3644 60.9895C26.4324 62.0944 25.4686 63.4708 24.6097 64.5735C23.8933 65.4919 22.0494 66.1419 21.0862 66.5459C19.2687 67.308 17.4873 68.3895 15.466 68.1361C14.938 68.3782 14.4711 68.6671 13.8379 68.9561C13.3336 69.1857 12.5732 69.2692 12.2091 69.7758C11.8619 70.2592 11.8152 70.9889 11.5753 71.5672C11.0506 72.8332 10.2872 74.0736 9.78014 75.3805C12.2129 74.7929 14.6658 74.2063 16.8519 73.0471C17.3498 72.784 17.7373 72.2892 18.2647 71.9972C18.7784 71.7128 19.4877 71.6436 19.9789 71.3566C20.5755 71.0083 20.974 70.2527 21.7435 70.153C21.4361 71.2179 20.5413 71.0503 20.1046 71.8426C17.7677 72.7441 15.4062 74.3164 12.8917 74.9946C12.0388 75.2242 10.8673 75.3227 10.2575 75.7129C9.03931 76.4929 8.64296 78.1345 8.32635 79.91C12.5415 80.7915 14.9003 78.3868 17.6507 75.8353C19.0411 74.5456 20.6706 73.4031 21.9842 71.9947C23.309 70.5733 24.6326 68.9188 25.7598 67.2075C26.9652 65.3778 28.3934 63.5766 29.3245 61.7556C30.4676 59.5197 30.7806 57.0884 31.7688 54.8463C32.5172 53.149 33.5981 51.652 34.1932 49.6768C35.6393 44.8752 36.6118 39.2778 36.9459 35.1686C37.3153 30.6214 37.1663 26.9744 36.6521 22.965C36.3604 20.686 36.2358 18.4425 36.0759 16.1859C35.9131 13.8848 35.561 11.5903 35.369 9.35543C35.1415 6.70299 35.4836 4.1295 34.5419 1.60375C32.9938 3.33307 31.8611 5.93569 30.3147 7.67062ZM25.1161 14.3775C24.628 15.1637 24.3211 16.1342 23.7736 16.9114C23.4747 17.3353 22.9656 17.665 22.6223 18.0635C21.4005 19.4821 20.4182 20.9459 19.249 22.1337C19.6726 22.3956 19.6521 23.1128 19.6708 23.4642C19.7209 24.4025 19.6219 25.2835 19.6851 25.9458C19.7782 26.9172 19.9289 27.5732 20.0064 28.4015C20.2754 31.282 21.0727 33.3218 22.2409 35.538C22.4144 35.8671 22.3935 36.5561 22.9293 36.535C23.4197 33.6951 24.8211 31.8043 25.1123 29.5236C25.2996 28.0583 24.3187 26.7855 24.0679 25.3288C23.9063 24.3878 24.0468 23.4409 23.8828 22.4891C23.6207 20.9709 22.5752 19.2192 23.6326 17.7305C23.9697 18.3304 23.5322 18.9933 23.5669 19.5981C23.6393 20.8601 24.3147 22.1837 24.4402 23.4355C24.524 24.2665 24.4684 24.9412 24.676 25.7118C24.8751 26.4518 25.0247 27.2198 25.5701 27.8093C26.1106 25.6565 26.8879 24.0427 27.21 22.333C27.8258 19.0669 25.5613 16.0996 27.1019 12.9691C27.0157 15.4949 26.9902 17.9941 27.8489 20.1068C29.9896 15.6149 30.3211 12.0738 30.0483 8.0043C28.2252 9.96546 26.548 12.0708 25.1161 14.3775ZM27.2851 23.3812C26.861 24.8087 26.0459 26.0811 26.5003 26.8613C27.2827 23.7289 28.6878 19.5697 29.3272 17.1887C28.2901 19.1426 27.8436 21.5013 27.2851 23.3812ZM14.0607 27.9705C12.4452 29.9602 11.2672 32.1452 9.91266 34.6507C9.35508 35.6823 8.55197 36.5124 8.08779 37.2868C6.58184 39.7989 5.6573 43.0468 5.06521 44.9896C3.88437 48.863 1.76576 52.7243 1.20724 56.7356C0.79455 59.6994 1.72174 62.6829 2.1095 65.536C2.27625 66.7608 2.42449 67.8023 2.68165 68.9635C2.93104 70.09 3.29648 71.2581 3.25365 72.3915C4.19562 74.4315 4.46701 76.7651 6.15723 78.4785C6.63183 77.941 7.21703 76.8586 7.27873 76.1493C7.17059 75.5478 6.69219 75.1076 6.15825 74.6918C5.38812 73.1395 4.61025 71.454 4.15902 69.8324C4.03033 69.3703 3.45477 68.7162 3.95825 68.2979C4.57998 71.0191 5.71263 73.5167 7.76605 75.6121C8.4522 74.3017 9.0385 72.7832 9.69724 71.415C7.95464 67.0701 4.30885 63.1276 3.24215 58.5506C3.06432 57.7874 2.89919 56.7985 3.09703 56.0179C3.44989 59.2189 4.7866 61.8906 6.32126 64.5608C6.82285 65.4328 7.39863 66.3868 7.95403 67.0923C8.09455 67.2703 7.9834 67.4226 8.07961 67.5783C8.40138 68.0972 8.90685 68.5387 9.20009 69.0358C9.51102 69.5628 9.50882 70.2849 10.1445 70.5703C10.6855 69.1784 11.4017 68.1546 11.8544 66.5779C10.5197 59.4809 5.13296 54.1548 5.66269 46.2429C6.06512 47.8482 6.05328 49.4105 6.39523 50.899C6.73197 52.3647 7.11143 53.9167 7.65562 55.3241C9.01675 58.8468 11.509 62.1138 12.3018 65.7334C13.0038 63.4607 14.0721 60.9064 14.9272 58.3123C13.8475 56.6487 13.5264 54.6668 13.0238 52.7621C12.0145 48.9346 10.473 45.294 10.2727 41.1998C10.1733 39.1691 9.7303 36.8288 10.6113 34.7779C10.4565 36.7715 10.5888 38.3759 10.6802 40.0481C10.9353 44.7154 12.3075 48.6269 13.3305 52.736C13.7473 54.409 14.0498 56.1664 15.1989 57.5445C16.3481 54.3801 17.5969 50.4942 18.7247 47.999C18.3565 47.1865 17.7881 46.4615 17.132 45.7743C15.7274 42.5131 15.7206 38.911 14.8478 35.4147C14.3098 33.2607 13.531 30.8696 14.4022 28.6864C14.6118 30.0756 14.4658 31.4241 14.7027 32.8818C14.8361 33.703 14.9797 34.6611 15.1543 35.3892C15.2825 35.9223 15.5612 36.3723 15.6616 36.8981C16.3695 40.6059 16.0989 44.6886 19.0415 47.1036C20.4412 43.9955 21.08 41.3851 22.3859 38.0702C22.1767 35.8198 20.7386 34.1835 20.1358 32.2387C19.2374 29.3394 19.2016 25.6784 19.1131 22.5173C19.1335 22.4363 19.1471 22.3583 19.0277 22.3386C17.3149 24.1536 15.7025 25.9481 14.0607 27.9705ZM26.0578 27.271C24.6078 32.4605 23.0128 37.6454 21.1938 42.7016C19.4813 47.4615 17.3244 51.9741 15.8676 56.495C14.4795 60.8028 13.1162 64.8292 11.522 68.7784C10.3876 71.5895 8.92264 74.1948 7.70533 77.0447C7.34061 77.8981 6.76378 78.6159 6.40789 79.4504C5.41998 81.7674 5.19779 84.4817 3.74234 86.5648C3.8945 87.2557 3.47108 88.1978 4.37507 88.5601C5.14556 88.3004 5.17605 87.2791 5.36078 86.6148C7.08546 80.4118 9.56868 75.1653 11.9089 69.3667C14.2102 63.6653 15.9534 57.9343 17.8841 52.4771C18.9388 49.4958 20.3748 46.6703 21.3142 43.6224C23.0193 38.0868 24.8888 32.6487 26.4096 27.1174C26.416 27.0065 26.353 26.9256 26.1936 26.8872L26.0578 27.271Z" fill="#296308"/>
</svg>
