<svg width="15" height="15" viewBox="0 0 15 15" fill="none" xmlns="http://www.w3.org/2000/svg">
<path d="M0 2C0 0.89543 0.895431 0 2 0H13C14.1046 0 15 0.895431 15 2V13C15 14.1046 14.1046 15 13 15H2C0.89543 15 0 14.1046 0 13V2Z" fill="#B3E596"/>
<path d="M9.35625 7.5C9.35625 6.46875 8.53125 5.64375 7.5 5.64375C6.46875 5.64375 5.64375 6.46875 5.64375 7.5C5.64375 8.53125 6.46875 9.35625 7.5 9.35625C8.53125 9.35625 9.35625 8.53125 9.35625 7.5ZM10.3188 7.5C10.3188 9.08125 9.08125 10.3188 7.5 10.3188C5.91875 10.3188 4.68125 9.08125 4.68125 7.5C4.68125 5.91875 5.91875 4.68125 7.5 4.68125C9.08125 4.68125 10.3188 5.91875 10.3188 7.5ZM11.075 4.54375C11.075 4.95625 10.8 5.23125 10.3875 5.23125C9.975 5.23125 9.7 4.95625 9.7 4.54375C9.7 4.13125 9.975 3.85625 10.3875 3.85625C10.8 3.85625 11.075 4.2 11.075 4.54375ZM7.5 2.9625C6.675 2.9625 4.95625 2.89375 4.26875 3.16875C3.7875 3.375 3.375 3.7875 3.2375 4.26875C2.9625 4.95625 3.03125 6.675 3.03125 7.5C3.03125 8.325 2.9625 10.0437 3.2375 10.7312C3.375 11.2125 3.7875 11.625 4.26875 11.7625C4.95625 12.0375 6.74375 11.9688 7.5 11.9688C8.25625 11.9688 10.0437 12.0375 10.7312 11.7625C11.2125 11.5563 11.5563 11.2125 11.7625 10.7312C12.0375 9.975 11.9688 8.25625 11.9688 7.5C11.9688 6.74375 12.0375 4.95625 11.7625 4.26875C11.625 3.7875 11.2125 3.375 10.7312 3.2375C10.0437 2.89375 8.325 2.9625 7.5 2.9625ZM13 7.5C13 8.25625 13 9.0125 13 9.76875C13 10.5938 12.725 11.4188 12.1063 12.1063C11.4875 12.725 10.6625 13 9.76875 13C9.0125 13 8.25625 13 7.5 13C6.74375 13 5.9875 13 5.23125 13C4.40625 13 3.58125 12.725 2.89375 12.1063C2.34375 11.4875 2 10.6625 2 9.76875C2 9.0125 2 8.25625 2 7.5C2 6.74375 2 5.9875 2 5.23125C2 4.3375 2.34375 3.5125 2.89375 2.89375C3.58125 2.34375 4.40625 2 5.23125 2C5.9875 2 6.74375 2 7.5 2C8.25625 2 9.0125 2 9.76875 2C10.5938 2 11.4188 2.275 12.1063 2.89375C12.6563 3.5125 13 4.3375 13 5.23125C13 5.9875 13 6.74375 13 7.5Z" fill="#0F2700"/>
</svg>
