<svg width="20" height="20" viewBox="0 0 20 20" fill="none" xmlns="http://www.w3.org/2000/svg">
<path d="M0 2C0 0.895431 0.895431 0 2 0H18C19.1046 0 20 0.895431 20 2V18C20 19.1046 19.1046 20 18 20H2C0.895431 20 0 19.1046 0 18V2Z" fill="#B3E596"/>
<path d="M10 3C7.23571 3 5 5.191 5 7.9C5 11.575 10 17 10 17C10 17 15 11.575 15 7.9C15 5.191 12.7643 3 10 3ZM10 9.65C9.01429 9.65 8.21429 8.866 8.21429 7.9C8.21429 6.934 9.01429 6.15 10 6.15C10.9857 6.15 11.7857 6.934 11.7857 7.9C11.7857 8.866 10.9857 9.65 10 9.65Z" fill="#0F2700"/>
</svg>
