<svg width="195" height="40" viewBox="0 0 195 40" fill="none" xmlns="http://www.w3.org/2000/svg">
<path d="M10.0382 27.4878C8.20299 27.4878 6.51605 27.0331 4.97741 26.1238C3.45731 25.2144 2.24308 23.9493 1.33472 22.3283C0.444908 20.6875 0 18.849 0 16.8129C0 14.7768 0.444908 12.9482 1.33472 11.3272C2.24308 9.70622 3.45731 8.44105 4.97741 7.53171C6.51605 6.62237 8.20299 6.1677 10.0382 6.1677C11.8735 6.1677 13.5512 6.62237 15.0713 7.53171C16.6099 8.44105 17.8149 9.70622 18.6861 11.3272C19.5759 12.9482 20.0209 14.7768 20.0209 16.8129C20.0209 18.849 19.5759 20.6875 18.6861 22.3283C17.7963 23.9493 16.5914 25.2144 15.0713 26.1238C13.5512 27.0331 11.8735 27.4878 10.0382 27.4878ZM10.0382 22.862C11.5954 22.862 12.8374 22.3085 13.7643 21.2015C14.7098 20.0944 15.1825 18.6316 15.1825 16.8129C15.1825 14.9745 14.7098 13.5116 13.7643 12.4244C12.8374 11.3173 11.5954 10.7638 10.0382 10.7638C8.46252 10.7638 7.20195 11.3074 6.25652 12.3947C5.32963 13.482 4.86618 14.9547 4.86618 16.8129C4.86618 18.6514 5.32963 20.1241 6.25652 21.2311C7.20195 22.3184 8.46252 22.862 10.0382 22.862Z" fill="#296308"/>
<path d="M32.1205 10.5563C33.9372 10.5563 35.3831 11.1888 36.4583 12.454C37.5521 13.6994 38.0989 15.4192 38.0989 17.6135V27.2802H33.3718V18.2955C33.3718 17.1885 33.103 16.3286 32.5654 15.7158C32.0278 15.103 31.3048 14.7965 30.3965 14.7965C29.4881 14.7965 28.7651 15.103 28.2275 15.7158C27.6899 16.3286 27.4211 17.1885 27.4211 18.2955V27.2802H22.6662V10.7342H27.4211V12.9284C27.9031 12.197 28.552 11.6237 29.3676 11.2086C30.1833 10.7737 31.1009 10.5563 32.1205 10.5563Z" fill="#296308"/>
<path d="M46.1581 5.33743V27.2802H41.4032V5.33743H46.1581Z" fill="#296308"/>
<path d="M65.4538 10.7342L55.7215 35.1381H50.605L54.1643 26.7168L47.8522 10.7342H53.1632L56.7503 21.0829L60.3096 10.7342H65.4538Z" fill="#296308"/>
<path d="M115.237 6.46422V10.5266H107.284V14.9152H113.235V18.8589H107.284V27.2802H102.529V6.46422H115.237Z" fill="#296308"/>
<path d="M122.491 13.4918C123.047 12.5825 123.742 11.8708 124.576 11.3569C125.411 10.8231 126.337 10.5563 127.357 10.5563V15.9233H126.05C124.864 15.9233 123.974 16.2001 123.381 16.7536C122.787 17.2873 122.491 18.2362 122.491 19.6002V27.2802H117.736V10.7342H122.491V13.4918Z" fill="#296308"/>
<path d="M144.951 10.7342V27.2802H140.196V25.0266C139.714 25.7581 139.056 26.3511 138.222 26.8058C137.406 27.2407 136.498 27.4581 135.497 27.4581C134.311 27.4581 133.263 27.1814 132.355 26.6279C131.447 26.0546 130.742 25.2342 130.242 24.1667C129.741 23.0992 129.491 21.8439 129.491 20.4009V10.7342H134.218V19.7188C134.218 20.8259 134.487 21.6858 135.024 22.2986C135.562 22.9114 136.285 23.2178 137.193 23.2178C138.12 23.2178 138.852 22.9114 139.39 22.2986C139.928 21.6858 140.196 20.8259 140.196 19.7188V10.7342H144.951Z" fill="#296308"/>
<path d="M157.015 22.9806V27.2802H154.596C152.872 27.2802 151.527 26.8354 150.564 25.9459C149.6 25.0365 149.118 23.5638 149.118 21.5276V14.9448H147.227V10.7342H149.118V6.70144H153.873V10.7342H156.987V14.9448H153.873V21.587C153.873 22.0812 153.984 22.437 154.206 22.6544C154.429 22.8719 154.799 22.9806 155.319 22.9806H157.015Z" fill="#296308"/>
<path d="M158.718 18.9775C158.718 17.2775 159.014 15.785 159.608 14.5C160.219 13.2151 161.044 12.2267 162.082 11.5348C163.121 10.8429 164.279 10.4969 165.558 10.4969C166.652 10.4969 167.607 10.7342 168.422 11.2086C169.257 11.683 169.896 12.3057 170.341 13.0767V10.7342H175.096V27.2802H170.341V24.9377C169.878 25.7086 169.229 26.3313 168.395 26.8058C167.579 27.2802 166.624 27.5174 165.531 27.5174C164.27 27.5174 163.121 27.1715 162.082 26.4796C161.044 25.7679 160.219 24.7696 159.608 23.4847C159.014 22.18 158.718 20.6776 158.718 18.9775ZM170.341 19.0072C170.341 17.742 170.007 16.7437 169.34 16.0123C168.691 15.2809 167.894 14.9152 166.949 14.9152C166.003 14.9152 165.197 15.2809 164.529 16.0123C163.881 16.724 163.556 17.7124 163.556 18.9775C163.556 20.2427 163.881 21.2509 164.529 22.0021C165.197 22.7335 166.003 23.0992 166.949 23.0992C167.894 23.0992 168.691 22.7335 169.34 22.0021C170.007 21.2707 170.341 20.2724 170.341 19.0072Z" fill="#296308"/>
<path d="M184.848 27.5174C183.495 27.5174 182.29 27.2703 181.233 26.7761C180.177 26.2819 179.342 25.6098 178.731 24.7598C178.119 23.89 177.776 22.9213 177.702 21.8538H182.401C182.457 22.4271 182.707 22.8917 183.152 23.2475C183.597 23.6033 184.144 23.7812 184.793 23.7812C185.386 23.7812 185.84 23.6626 186.155 23.4254C186.489 23.1684 186.656 22.8422 186.656 22.4469C186.656 21.9724 186.424 21.6265 185.96 21.409C185.497 21.1718 184.746 20.9148 183.708 20.6381C182.596 20.3613 181.669 20.0747 180.927 19.7782C180.186 19.4619 179.546 18.9775 179.009 18.3252C178.471 17.6531 178.202 16.7536 178.202 15.6268C178.202 14.6779 178.443 13.818 178.925 13.0471C179.426 12.2563 180.149 11.6336 181.094 11.179C182.058 10.7243 183.198 10.4969 184.514 10.4969C186.461 10.4969 187.99 11.0109 189.103 12.0389C190.233 13.0668 190.882 14.4308 191.049 16.1309H186.656C186.581 15.5576 186.34 15.103 185.933 14.7669C185.543 14.4308 185.024 14.2628 184.375 14.2628C183.819 14.2628 183.393 14.3814 183.096 14.6186C182.8 14.8361 182.651 15.1425 182.651 15.5379C182.651 16.0123 182.883 16.3681 183.347 16.6053C183.829 16.8426 184.57 17.0798 185.571 17.317C186.72 17.6333 187.657 17.9496 188.38 18.2659C189.103 18.5624 189.733 19.0566 190.27 19.7485C190.827 20.4206 191.114 21.33 191.132 22.4765C191.132 23.4452 190.873 24.315 190.354 25.0859C189.853 25.8371 189.121 26.4302 188.157 26.8651C187.212 27.3 186.109 27.5174 184.848 27.5174Z" fill="#296308"/>
<path d="M86.9517 34.1003C86.9517 33.609 87.3252 33.2107 87.7859 33.2107H193.452C193.912 33.2107 194.286 33.609 194.286 34.1003C194.286 34.5916 193.912 34.9898 193.452 34.9898H87.7859C87.3252 34.9898 86.9517 34.5916 86.9517 34.1003Z" fill="#76BD4D"/>
<path d="M88.2909 10.509C88.2909 10.509 88.9234 8.14336 89.7877 6.27735C95.8975 8.83277 95.9631 15.1211 95.8487 20.2861C97.3346 27.7109 96.1856 37.5095 88.7674 39.4967C83.1846 40.9921 74.324 39.2586 70.459 32.9031C66.6009 26.5589 69.0002 18.0301 75.3061 14.2938C77.319 11.6749 79.6059 8.75623 82.0846 7.03963C83.5468 7.31415 85.1306 7.07634 86.7287 5.92629C86.7287 5.92629 87.8997 6.11063 88.1499 6.78676C88.4773 7.79968 87.8836 9.25794 87.4572 10.1967C87.6856 10.3791 87.9844 10.4867 88.2906 10.5113L88.2909 10.509Z" fill="#76BD4D"/>
<path d="M87.2274 5.01479C88.0439 5.57066 88.2665 5.66092 88.1596 6.29836C87.9428 7.42348 87.6624 8.05401 88.0064 6.88183C87.7561 6.2057 86.7293 5.92598 86.7293 5.92598C85.1311 7.07603 83.5474 7.31412 82.0852 7.03932C77.9939 6.27507 74.8264 1.51925 74.8264 1.51925C74.8264 1.51925 77.0407 0.757244 81.828 0.0599262C86.613 -0.637109 87.2274 4.97661 87.2274 4.97661" fill="#296308"/>
<path d="M85.8838 4.56528C85.657 4.24416 85.3742 3.98856 85.0743 3.76911C84.7758 3.5474 84.4525 3.36976 84.1215 3.21584C83.7872 3.06954 83.4466 2.93934 83.0945 2.84529C82.7446 2.74559 82.3882 2.66538 82.0268 2.61116C81.3053 2.49367 80.5705 2.43774 79.8295 2.41826C79.0877 2.39821 78.3412 2.41485 77.5818 2.41317C78.3076 2.17734 79.0576 2.03387 79.8172 1.96834C80.5766 1.90395 81.3479 1.91441 82.1107 2.04178C82.4908 2.11041 82.8701 2.19769 83.2401 2.32337C83.6076 2.45498 83.972 2.60692 84.3099 2.81507C84.6503 3.01616 84.9677 3.26384 85.2449 3.55305C85.5149 3.84762 85.7612 4.17976 85.8838 4.56528Z" fill="#296308"/>
<path d="M88.0705 9.55153C88.0705 9.55153 87.5257 8.62092 86.8551 9.00728C86.1605 9.40749 87.2405 10.3824 87.8897 10.5265C88.539 10.6705 89.6553 10.6086 89.5052 9.99126C89.3946 9.53712 89.1579 9.36201 88.0705 9.55153Z" fill="#296308"/>
<path d="M89.7877 6.27735C88.9234 8.14336 88.2909 10.509 88.2909 10.509L88.2912 10.511C87.9849 10.4861 87.6859 10.3788 87.4577 10.1963C87.4577 10.1963 87.5955 8.78901 87.9164 7.1128C87.9164 7.1128 87.9164 7.11279 87.9164 7.11079C87.9199 7.09358 87.9433 6.9936 87.9687 6.84193C87.9687 6.83993 87.9687 6.83799 87.9687 6.83799C88.2387 5.48798 88.6227 4.01171 89.1427 2.97464C89.1427 2.97464 89.1862 0.693746 91.6905 2.35838C93.3502 3.4624 91.5762 3.71968 90.8462 4.52404C90.4746 4.93327 90.1137 5.57043 89.7877 6.27735Z" fill="#795E36"/>
<path d="M88.1039 14.5909C88.1039 15.1707 87.7241 15.6414 87.2544 15.6414C86.7852 15.6414 86.4048 15.1714 86.4048 14.5909C86.4048 14.0117 86.7852 13.5417 87.2544 13.5417C87.7241 13.5417 88.1039 14.0117 88.1039 14.5909Z" fill="#296308"/>
<path d="M93.774 17.1855C93.774 17.7654 93.3942 18.236 92.9245 18.236C92.4553 18.236 92.0749 17.766 92.0749 17.1855C92.0749 16.6063 92.4553 16.1363 92.9245 16.1363C93.3942 16.1361 93.774 16.6063 93.774 17.1855Z" fill="#296308"/>
<path d="M95.3008 24.7964C95.3008 25.3762 94.921 25.8469 94.4512 25.8469C93.9821 25.8469 93.6017 25.3769 93.6017 24.7964C93.6017 24.2165 93.9821 23.7459 94.4512 23.7459C94.9204 23.7459 95.3008 24.2159 95.3008 24.7964Z" fill="#296308"/>
<path d="M91.9201 13.6299C91.9201 14.2098 91.5403 14.6804 91.0705 14.6804C90.6014 14.6804 90.221 14.2105 90.221 13.6299C90.221 13.0501 90.6014 12.5794 91.0705 12.5794C91.5403 12.5797 91.9201 13.0501 91.9201 13.6299Z" fill="#296308"/>
<path d="M92.6942 21.9542C92.6942 22.534 92.3144 23.0047 91.8446 23.0047C91.3755 23.0047 90.995 22.5347 90.995 21.9542C90.995 21.3743 91.3755 20.9037 91.8446 20.9037C92.3137 20.9037 92.6942 21.3736 92.6942 21.9542Z" fill="#296308"/>
<path d="M90.2557 18.9941C90.2557 19.574 89.8759 20.0446 89.4061 20.0446C88.937 20.0446 88.5565 19.5747 88.5565 18.9941C88.5565 18.4143 88.937 17.9436 89.4061 17.9436C89.8759 17.9439 90.2557 18.4143 90.2557 18.9941Z" fill="#296308"/>
<path d="M76.0916 16.7125C78.044 15.2801 78.2468 14.9646 79.5456 13.6239C80.5595 12.5778 81.4196 13.0003 80.9535 16.1923C80.5139 19.1991 80.2266 22.9743 76.6697 21.6601C73.3215 20.4228 74.7118 17.7251 76.0916 16.7125Z" fill="#296308"/>
</svg>
