<svg width="15" height="15" viewBox="0 0 15 15" fill="none" xmlns="http://www.w3.org/2000/svg">
<path d="M7.53583 3.27083C6.43567 3.27194 5.38087 3.70941 4.60285 4.48726C3.82484 5.26512 3.38716 6.31983 3.38583 7.42C3.385 8.20333 3.605 8.96667 4.02 9.6275C4.08267 9.72734 4.10061 9.84888 4.06948 9.96257L4.03353 10.0939C3.88492 10.6366 4.37956 11.1367 4.92389 10.994L5.10009 10.9479C5.20878 10.9194 5.32435 10.9358 5.42083 10.9933C6.06043 11.3719 6.79011 11.5714 7.53333 11.5708C8.63314 11.5693 9.68831 11.1318 10.4661 10.3542C11.2438 9.57656 11.6816 8.52231 11.6833 7.4225C11.6852 6.87735 11.579 6.33724 11.3707 5.83344C11.1624 5.32964 10.8563 4.87217 10.47 4.4875C10.0857 4.10071 9.62849 3.794 9.12483 3.58516C8.62117 3.37631 8.08107 3.26947 7.53583 3.27083ZM9.97583 9.2025C9.87167 9.49417 9.37333 9.75917 9.13417 9.795C8.87198 9.84021 8.60284 9.82337 8.34833 9.74583C8.10688 9.67106 7.8696 9.58344 7.6375 9.48333C6.38583 8.94333 5.56917 7.68417 5.50583 7.6C5.44417 7.51667 4.9975 6.92333 4.9975 6.31C4.9975 5.69583 5.31917 5.39417 5.43333 5.26917C5.47525 5.2218 5.52649 5.18359 5.58384 5.15692C5.6412 5.13025 5.70343 5.1157 5.76667 5.11417C5.85 5.11417 5.9325 5.115 6.00583 5.11833C6.0825 5.12167 6.185 5.08917 6.28583 5.3325C6.39 5.5825 6.64 6.19583 6.67083 6.25833C6.70167 6.32 6.7225 6.39333 6.68167 6.47667C6.64 6.56083 6.62 6.61167 6.55667 6.685C6.495 6.75833 6.42583 6.8475 6.37 6.90417C6.3075 6.96583 6.2425 7.03333 6.315 7.15833C6.38833 7.2825 6.63833 7.69167 7.00833 8.0225C7.485 8.4475 7.8875 8.57833 8.01167 8.64167C8.13667 8.70333 8.20917 8.69417 8.2825 8.61C8.355 8.52583 8.59417 8.24583 8.6775 8.12167C8.76083 7.99667 8.84333 8.0175 8.95833 8.05833C9.0725 8.10083 9.68583 8.40167 9.81 8.46417C9.93333 8.52583 10.0175 8.5575 10.0492 8.61C10.0792 8.66167 10.0792 8.91083 9.97583 9.2025Z" fill="#B3E596"/>
<path d="M14.1667 0H0.833333C0.61232 0 0.400358 0.0877973 0.244078 0.244078C0.0877973 0.400358 0 0.61232 0 0.833333V14.1667C0 14.3877 0.0877973 14.5996 0.244078 14.7559C0.400358 14.9122 0.61232 15 0.833333 15H14.1667C14.3877 15 14.5996 14.9122 14.7559 14.7559C14.9122 14.5996 15 14.3877 15 14.1667V0.833333C15 0.61232 14.9122 0.400358 14.7559 0.244078C14.5996 0.0877973 14.3877 0 14.1667 0ZM7.53333 12.4133H7.53167C6.86882 12.4134 6.21437 12.2813 5.60609 12.0265C5.30401 11.9 4.97026 11.8521 4.65347 11.9352L4.59084 11.9516C3.66168 12.1953 2.8172 11.3417 3.0709 10.4152C3.15885 10.094 3.10779 9.75404 2.9724 9.44981C2.68852 8.81189 2.5408 8.11964 2.54115 7.41755C2.54158 6.5415 2.77252 5.68098 3.21078 4.92243C3.64904 4.16388 4.27918 3.534 5.03792 3.09607C5.79666 2.65813 6.65728 2.42756 7.53333 2.4275C8.18961 2.42569 8.83972 2.55417 9.44596 2.80551C10.0522 3.05685 10.6025 3.42604 11.065 3.89167C11.5296 4.35446 11.8978 4.90483 12.1483 5.5109C12.3988 6.11698 12.5265 6.76672 12.5242 7.4225C12.5222 8.74554 11.9957 10.0138 11.0602 10.9494C10.1247 11.8849 8.85638 12.4113 7.53333 12.4133Z" fill="#B3E596"/>
</svg>
